SplineFontDB: 3.0
FontName: Exo-DemiBold
FullName: Exo DemiBold
FamilyName: Exo
Weight: Demi
Copyright: Copyright (c) 2011 Natanael Gama (exo@ndiscovered.com), with Reserved Font Name "Exo"
Version: 1.00
ItalicAngle: 0
UnderlinePosition: -50
UnderlineWidth: 50
Ascent: 800
Descent: 200
sfntRevision: 0x00010000
LayerCount: 2
Layer: 0 0 "Back"  1
Layer: 1 0 "Fore"  0
XUID: [1021 762 1116966003 6994588]
FSType: 8
OS2Version: 0
OS2_WeightWidthSlopeOnly: 0
OS2_UseTypoMetrics: 1
CreationTime: 1317847219
ModificationTime: 1325018055
PfmFamily: 33
TTFWeight: 600
TTFWidth: 5
LineGap: 90
VLineGap: 0
OS2TypoAscent: 0
OS2TypoAOffset: 1
OS2TypoDescent: 0
OS2TypoDOffset: 1
OS2TypoLinegap: 90
OS2WinAscent: 0
OS2WinAOffset: 1
OS2WinDescent: 0
OS2WinDOffset: 1
HheadAscent: 0
HheadAOffset: 1
HheadDescent: 0
HheadDOffset: 1
OS2Vendor: 'PfEd'
Lookup: 4 0 0 "'ordn' Ordinals lookup 21"  {"'ordn' Ordinals lookup 21-1"  } ['ordn' ('DFLT' <'dflt' > 'grek' <'dflt' > 'latn' <'dflt' > ) ]
Lookup: 1 0 0 "'smcp' Lowercase to Small Capitals lookup 16"  {"'smcp' Lowercase to Small Capitals lookup 16-1" ("smcp" ) } ['smcp' ('DFLT' <'dflt' > 'grek' <'dflt' > 'latn' <'FRA ' 'dflt' > ) ]
Lookup: 1 0 0 "'c2sc' Capitals to Small Capitals in Latin lookup 17"  {"'c2sc' Capitals to Small Capitals in Latin lookup 17 subtable" ("smcp" ) } ['c2sc' ('latn' <'dflt' > ) ]
Lookup: 4 0 0 "'dlig' Discretionary Ligatures lookup 14"  {"'dlig' Discretionary Ligatures lookup 14-1"  } ['dlig' ('DFLT' <'dflt' > 'grek' <'dflt' > 'latn' <'dflt' > ) ]
Lookup: 4 0 1 "'liga' Standard Ligatures lookup 15"  {"'liga' Standard Ligatures lookup 15-1"  } ['liga' ('DFLT' <'dflt' > 'grek' <'dflt' > 'latn' <'FRA ' 'dflt' > ) ]
Lookup: 1 0 0 "'frac' Diagonal Fractions lookup 13"  {"'frac' Diagonal Fractions lookup 13-1"  } ['frac' ('DFLT' <'dflt' > 'grek' <'dflt' > 'latn' <'FRA ' 'dflt' > ) ]

StartChar: a
Encoding: 97 97 0
Width: 519
VWidth: 0
Flags: HW
LayerCount: 2
Fore
SplineSet
149.7 146.4 m 2
 149.7 100.85 174 92.5 202.75 92.5 c 0
 269.1 92.5 361.05 137.2 361.05 137.2 c 1
 361.05 251.15 l 1
 198.55 239 l 2
 159.4 235.35 149.7 207.4 149.7 181 c 2
 149.7 146.4 l 2
33.7 131.95 m 2
 33.7 185.95 l 2
 33.7 264.2 78.45 327 181.05 327 c 2
 181.05 327 361.05 326 361.05 327 c 2
 361.05 327 362.05 372 361.05 373 c 1
 361.05 431.2 332.55 444.5 286.05 444.5 c 0
 230.5 444.5 114.1 437.4 51.05 432.85 c 1
 51.05 507.5 l 1
 121.35 532.05 200.2 540.35 299.2 541 c 0
 402.15 541.65 477.05 500.15 477.05 376.5 c 2
 477.05 0 l 1
 386.7 0 l 1
 361.05 60.5 l 1
 356.6 53.15 262.25 -7.05 177.55 -6 c 0
 86 -4.25 33.7 57.1 33.7 131.95 c 2
EndSplineSet
AlternateSubs2: "'salt' Access All Alternates in Latin lookup 4-1" a.salt
Substitution2: "'smcp' Lowercase to Small Capitals lookup 16-1" a.smcp
EndChar

StartChar: z
Encoding: 122 122 1
Width: 467
VWidth: 0
Flags: HW
LayerCount: 2
Fore
SplineSet
25.45 429 m 1
 25.45 531 l 1
 442.45 531 l 1
 442.45 429 l 1
 194.5 103 l 1
 442.45 103 l 1
 443.45 102 442.45 1 442.45 1 c 1
 40.45 1 l 1
 40.45 102.3 l 1
 297.25 429 l 1
 25.45 429 l 1
EndSplineSet
Substitution2: "'smcp' Lowercase to Small Capitals lookup 16-1" z.smcp
EndChar

StartChar: e
Encoding: 101 101 2
Width: 525
VWidth: 0
Flags: HW
HStem: -5 98.15<185.474 459.815> 214.5 90.5<158.3 368.921> 440 95<183.582 363.245>
VStem: 42.3 116<122.218 214.5 305 413.954> 375.3 116<311.43 427.117>
LayerCount: 2
Fore
SplineSet
158.3 305 m 1
 324.2 305 l 2
 358.75 305 375.3 319.95 375.3 348.05 c 0
 375.3 428.9 361.95 440 279.85 440 c 0
 191.7 440 157.6 436.9 158.3 305 c 1
42.3 268 m 0
 42.3 499.4 107.5 535 274.3 535 c 0
 417.5 535 491.3 519.5 491.3 343.5 c 0
 491.3 255.3 443.3 214.5 347.3 214.5 c 2
 158.3 214.5 l 1
 158.3 108.05 189.7 93.15 266.3 93.15 c 0
 351.3 93.15 406.3 92.5 481.3 103.5 c 1
 481.3 23 l 1
 404.15 -3.15 300.3 -5 217.3 -5 c 0
 82.3 -5 42.3 68.4 42.3 268 c 0
EndSplineSet
Substitution2: "'smcp' Lowercase to Small Capitals lookup 16-1" e.smcp
EndChar

StartChar: o
Encoding: 111 111 3
Width: 563
VWidth: 0
Flags: HW
HStem: -5 98.5<192 372.282> 437.5 98.5<192.066 371.205>
VStem: 42.3 116<130.596 400.771> 404.8 116<127.623 402.656>
LayerCount: 2
Fore
SplineSet
158.3 258 m 0
 158.3 106.2 196.75 93.5 281.55 93.5 c 0
 371 93.5 404.8 105.4 404.8 258 c 0
 404.8 421.75 377.2 437.5 281.55 437.5 c 0
 188.1 437.5 158.3 422.05 158.3 258 c 0
42.3 258 m 0
 42.3 475 104.05 536 281.55 536 c 0
 463 536 520.8 469 520.8 258 c 0
 520.8 61 464.75 -5 281.55 -5 c 0
 99.75 -5 42.3 68 42.3 258 c 0
EndSplineSet
Substitution2: "'smcp' Lowercase to Small Capitals lookup 16-1" o.smcp
EndChar

StartChar: c
Encoding: 99 99 5
Width: 496
VWidth: 0
Flags: HW
LayerCount: 2
Fore
SplineSet
42.3 266 m 0
 42.3 489.6 115.3 536 217.3 536 c 0
 269.3 536 374.6 529.3 455.8 506.5 c 1
 455.8 431.5 l 1
 455.8 431.5 344.45 437.5 255.45 437.5 c 0
 192.65 437.5 158.3 431.05 158.3 262.7 c 0
 158.3 120.55 183.45 93.5 255.45 93.5 c 0
 347.45 93.5 462.8 103.45 462.8 103.45 c 1
 462.8 27.15 l 1
 383.9 -6.35 300.3 -4 217.3 -5 c 1
 118.3 -5 42.3 41.75 42.3 266 c 0
EndSplineSet
Substitution2: "'smcp' Lowercase to Small Capitals lookup 16-1" c.smcp
EndChar

StartChar: d
Encoding: 100 100 6
Width: 555
VWidth: 0
Flags: HW
LayerCount: 2
Fore
SplineSet
158.3 266.5 m 0
 158.3 143.85 186.95 97.05 239.35 97.05 c 0
 301.55 97.05 350.9 114.4 389.5 134.65 c 1
 389.5 420.1 l 1
 341.15 435.65 298.15 442.25 239.35 442.25 c 0
 187.95 442.25 158.3 412 158.3 266.5 c 0
42.3 263 m 0
 42.3 420.35 67.7 539 216.25 539 c 0
 261.25 539 335.65 526.05 389.85 502.5 c 1
 389.85 785 l 1
 505.2 785 l 1
 505.2 0 l 1
 412.65 0 l 1
 389.5 55.5 l 1
 358.95 31.6 281.1 -6 216.25 -6 c 0
 80.35 -6 42.3 113.35 42.3 263 c 0
EndSplineSet
AlternateSubs2: "'salt' Access All Alternates in Latin lookup 4-1" d.salt
Substitution2: "'smcp' Lowercase to Small Capitals lookup 16-1" d.smcp
EndChar

StartChar: A
Encoding: 65 65 7
Width: 684
VWidth: 0
Flags: HW
LayerCount: 2
Fore
SplineSet
257.35 283.25 m 1
 452.6 283.25 l 1
 357.35 573.5 l 1
 257.35 283.25 l 1
38 0 m 1
 293 732 l 1
 421.25 732 l 1
 666 0 l 1
 539.15 0 l 1
 483.15 177.4 l 1
 224.4 177.4 l 1
 166.8 0 l 1
 38 0 l 1
EndSplineSet
Substitution2: "'c2sc' Capitals to Small Capitals in Latin lookup 17 subtable" a.smcp
EndChar

StartChar: p
Encoding: 112 112 8
Width: 555
VWidth: 0
Flags: HW
LayerCount: 2
Fore
SplineSet
165.95 110.9 m 1
 214.3 95.35 257.95 88.75 316.75 88.75 c 0
 368.15 88.75 397.8 119 397.8 264.5 c 0
 397.8 387.15 369.15 433.95 316.75 433.95 c 0
 254.55 433.95 204.55 416.6 165.95 396.35 c 1
 165.95 110.9 l 1
50.9 -270 m 1
 50.9 531 l 1
 143.45 531 l 1
 165.95 475.5 l 1
 196.5 499.4 275 537 339.85 537 c 0
 475.75 537 513.8 413.8 513.8 268 c 0
 513.8 120.8 488.4 -8 339.85 -8 c 0
 294.85 -8 219.8 4.95 165.6 28.5 c 1
 165.6 -270 l 1
 50.9 -270 l 1
EndSplineSet
AlternateSubs2: "'salt' Access All Alternates in Latin lookup 4-1" p.salt
Substitution2: "'smcp' Lowercase to Small Capitals lookup 16-1" p.smcp
EndChar

StartChar: b
Encoding: 98 98 9
Width: 555
VWidth: 0
Flags: HW
LayerCount: 2
Fore
SplineSet
166.6 134.65 m 1
 205.2 114.4 254.55 97.05 316.75 97.05 c 0
 369.15 97.05 397.8 143.85 397.8 266.5 c 0
 397.8 412 368.15 442.25 316.75 442.25 c 0
 257.95 442.25 214.95 435.65 166.6 420.1 c 1
 166.6 134.65 l 1
50.9 0 m 1
 50.9 785 l 1
 165.6 785 l 1
 165.6 502.5 l 1
 219.8 526.05 294.85 539 339.85 539 c 0
 488.4 539 513.8 417.55 513.8 263 c 0
 513.8 116.15 475.75 -6 339.85 -6 c 0
 275 -6 197.15 31.6 166.6 55.5 c 1
 143.45 0 l 1
 50.9 0 l 1
EndSplineSet
AlternateSubs2: "'salt' Access All Alternates in Latin lookup 4-1" b.salt
Substitution2: "'smcp' Lowercase to Small Capitals lookup 16-1" b.smcp
EndChar

StartChar: q
Encoding: 113 113 10
Width: 555
VWidth: 0
Flags: HW
LayerCount: 2
Fore
SplineSet
158.3 270.45 m 0
 158.3 174.7 157.45 87.1 249.75 87.1 c 0
 304.85 87.1 330.3 91.1 388.45 110 c 1
 388.45 442 l 1
 250.45 442 l 2
 160.6 442 158.3 332.4 158.3 270.45 c 0
42.3 268 m 0
 42.3 447.2 107.95 537 232.95 537 c 0
 338.95 537 455 519.75 504.45 509.45 c 1
 504.45 -270 l 1
 388.45 -270 l 1
 388.45 29 l 1
 339.15 1.95 277.95 -10 232.95 -10 c 0
 79.95 -10 42.3 98.1 42.3 268 c 0
EndSplineSet
Substitution2: "'smcp' Lowercase to Small Capitals lookup 16-1" q.smcp
EndChar

StartChar: n
Encoding: 110 110 11
Width: 547
VWidth: 0
Flags: HW
LayerCount: 2
Fore
SplineSet
50.9 0 m 1
 50.9 531 l 1
 141.4 531 l 1
 166.9 472.5 l 1
 218.1 506.1 264.4 540 345.4 540 c 0
 462.6 540 505.9 455.9 505.9 359.5 c 2
 505.9 0 l 1
 389.9 0 l 1
 389.9 360.9 l 2
 389.9 418.5 360.7 441.5 319.85 441.5 c 0
 254.9 441.5 221.15 425 166.9 391.5 c 1
 166.9 0 l 1
 50.9 0 l 1
EndSplineSet
AlternateSubs2: "'salt' Access All Alternates in Latin lookup 4-1" n.salt
Substitution2: "'smcp' Lowercase to Small Capitals lookup 16-1" n.smcp
EndChar

StartChar: i
Encoding: 105 105 12
Width: 216
VWidth: 0
Flags: HW
LayerCount: 2
Fore
SplineSet
49.15 0 m 1
 49.15 531 l 1
 165.15 531 l 1
 165.15 0 l 1
 49.15 0 l 1
42.3 612.45 m 2
 42.3 688.5 l 2
 42.3 703.5 50.3 713.5 66.3 713.5 c 2
 151.3 713.5 l 2
 166.3 713.5 173.95 702.5 173.95 688.5 c 2
 173.95 612.45 l 2
 173.95 597.45 165.3 589.45 151.3 589.45 c 2
 66.3 589.45 l 2
 52.3 589.45 42.3 598.45 42.3 612.45 c 2
EndSplineSet
Substitution2: "'smcp' Lowercase to Small Capitals lookup 16-1" i.smcp
EndChar

StartChar: h
Encoding: 104 104 13
Width: 547
VWidth: 0
Flags: HW
LayerCount: 2
Fore
SplineSet
50.9 0 m 1
 50.9 783.3 l 1
 166.55 783.3 l 1
 166.55 472.5 l 1
 216.7 505.4 264.4 540 345.4 540 c 0
 462.6 540 505.9 455.9 505.9 359.5 c 2
 505.9 0 l 1
 389.9 0 l 1
 389.9 360.9 l 2
 389.9 418.5 361.35 441.5 319.85 441.5 c 0
 254.9 441.5 221.15 425 166.9 391.5 c 1
 166.9 0 l 1
 50.9 0 l 1
EndSplineSet
Substitution2: "'smcp' Lowercase to Small Capitals lookup 16-1" h.smcp
EndChar

StartChar: u
Encoding: 117 117 14
Width: 547
VWidth: 0
Flags: HW
LayerCount: 2
Fore
SplineSet
42.3 171.5 m 2
 42.3 531 l 1
 158.3 531 l 1
 158.3 170.1 l 2
 158.3 112.5 187.5 89.5 228.35 89.5 c 0
 293.3 89.5 327.05 106 381.3 139.5 c 1
 381.3 531 l 1
 497.3 531 l 1
 497.3 0 l 1
 406.8 0 l 1
 381.3 58.5 l 1
 325.55 25.6 283.8 -9 202.8 -9 c 0
 85.6 -9 42.3 75.1 42.3 171.5 c 2
EndSplineSet
AlternateSubs2: "'salt' Access All Alternates in Latin lookup 4-1" u.salt
Substitution2: "'smcp' Lowercase to Small Capitals lookup 16-1" u.smcp
EndChar

StartChar: r
Encoding: 114 114 15
Width: 420
VWidth: 0
Flags: HW
LayerCount: 2
Fore
SplineSet
50.9 0 m 1
 50.9 531 l 1
 144.9 531 l 1
 166.9 464 l 1
 212.5 499.35 264 536.65 335.85 536.65 c 0
 361 536.65 387 535.35 400.4 529.7 c 1
 400.4 417.15 l 1
 387 419.1 354.35 421.05 324.65 421.05 c 0
 258.65 421.05 216.95 407.4 166.9 362.35 c 1
 166.9 0 l 1
 50.9 0 l 1
EndSplineSet
AlternateSubs2: "'salt' Access All Alternates in Latin lookup 4-1" r.salt
Substitution2: "'smcp' Lowercase to Small Capitals lookup 16-1" r.smcp
EndChar

StartChar: m
Encoding: 109 109 16
Width: 883
VWidth: 0
Flags: HW
LayerCount: 2
Fore
SplineSet
50.9 0 m 1
 50.9 531 l 1
 141.4 531 l 1
 166.9 471.2 l 1
 219.15 505.5 261.15 538.05 340.85 538.05 c 0
 407.6 538.05 459.6 511.15 481.9 466 c 1
 531.1 503.75 596.4 538.05 681.2 538.05 c 0
 789.3 538.05 841.7 462.4 841.7 356.9 c 2
 841.7 0 l 1
 725.7 0 l 1
 725.7 358.3 l 2
 725.7 411.35 697.15 439.55 655.65 439.55 c 0
 592.75 439.55 549.45 428.3 501.65 392.65 c 1
 501.65 389.85 502 361.35 502 358.2 c 2
 502 0 l 1
 386 0 l 1
 386 358.3 l 2
 386 411.35 356.8 439.55 315.3 439.55 c 0
 252.3 439.55 221.15 423.7 166.9 390.2 c 1
 166.9 0 l 1
 50.9 0 l 1
EndSplineSet
AlternateSubs2: "'salt' Access All Alternates in Latin lookup 4-1" m.salt
Substitution2: "'smcp' Lowercase to Small Capitals lookup 16-1" m.smcp
EndChar

StartChar: f
Encoding: 102 102 17
Width: 402
VWidth: 0
Flags: HW
LayerCount: 2
Fore
SplineSet
16.85 436 m 1
 16.85 514 l 1
 105.1 531 l 1
 105.1 630 l 2
 105.1 707.45 129.45 786 249.45 786 c 0
 298.45 786 340.1 778.75 385.6 762 c 1
 385.6 691.3 l 1
 384.6 691.3 280.1 692.3 280.1 692.3 c 2
 221 693.3 221.1 661.9 221.1 609 c 2
 221.1 531 l 1
 351.6 531 l 1
 351.6 436 l 1
 221.1 436 l 1
 221.1 0 l 1
 105.1 0 l 1
 105.1 436 l 1
 16.85 436 l 1
EndSplineSet
AlternateSubs2: "'salt' Access All Alternates in Latin lookup 4-1" f.salt
Substitution2: "'smcp' Lowercase to Small Capitals lookup 16-1" f.smcp
EndChar

StartChar: l
Encoding: 108 108 18
Width: 308
VWidth: 0
Flags: HW
HStem: 0 74<214.135 291.9> 763 20G<50.9 166.9>
VStem: 50.9 116<114.212 783>
LayerCount: 2
Fore
SplineSet
50.9 189 m 2
 50.9 783 l 1
 166.9 783 l 1
 166.9 203 l 2
 166.9 122.3 187.1 104.4 216.9 95 c 1
 216.9 95 284.9 74 291.9 74 c 1
 291.9 0 l 1
 186.4 0 l 2
 103.1 0 50.9 48 50.9 189 c 2
EndSplineSet
Substitution2: "'smcp' Lowercase to Small Capitals lookup 16-1" l.smcp
EndChar

StartChar: j
Encoding: 106 106 19
Width: 233
VWidth: 0
Flags: HW
LayerCount: 2
Fore
SplineSet
58.75 -270 m 1
 58.75 531 l 1
 174.75 531 l 1
 174.75 -4 l 1
 175.75 -90 173.75 -190.7 141.75 -270 c 1
 58.75 -270 l 1
50.9 612.45 m 2
 50.9 688.5 l 2
 50.9 703.5 58.9 713.5 74.9 713.5 c 2
 159.9 713.5 l 2
 174.9 713.5 182.9 702.5 182.9 688.5 c 2
 182.9 612.45 l 2
 182.9 597.45 173.9 589.45 159.9 589.45 c 2
 74.9 589.45 l 2
 60.9 589.45 50.9 598.45 50.9 612.45 c 2
EndSplineSet
Substitution2: "'smcp' Lowercase to Small Capitals lookup 16-1" j.smcp
EndChar

StartChar: t
Encoding: 116 116 20
Width: 380
VWidth: 0
Flags: HW
LayerCount: 2
Fore
SplineSet
16.85 437 m 1
 16.85 507 l 1
 107.45 532 l 1
 128.95 680 l 1
 223.45 680 l 1
 223.45 532 l 1
 355.35 532 l 1
 355.35 437 l 1
 223.45 437 l 1
 223.45 204 l 2
 223.45 122.6 243.3 104.7 273.1 95.3 c 1
 273.1 95.3 341.1 74.3 348.1 74.3 c 1
 348.1 0.3 l 1
 238.4 0.3 l 2
 160.35 0.3 107.45 49 107.45 190 c 2
 107.45 437 l 1
 16.85 437 l 1
EndSplineSet
AlternateSubs2: "'salt' Access All Alternates in Latin lookup 4-1" t.salt
Substitution2: "'smcp' Lowercase to Small Capitals lookup 16-1" t.smcp
EndChar

StartChar: s
Encoding: 115 115 21
Width: 507
VWidth: 0
Flags: HW
LayerCount: 2
Fore
SplineSet
33.7 351 m 2
 33.7 397 l 2
 33.7 479 68.7 536 171.7 536 c 0
 255.55 536 402.05 529.9 447.05 513 c 1
 447.05 436.05 l 1
 199 436.05 l 2
 152.85 436.05 149.7 419.8 149.7 391.4 c 2
 149.7 359.4 l 2
 149.7 318.05 170.75 316.75 199 316.75 c 2
 336.7 316.75 l 2
 432.8 316.75 473.7 258.9 473.7 182.5 c 2
 473.7 130 l 2
 473.7 21 407.7 -5 343.7 -5 c 0
 261.8 -5 93 3.35 55.7 20.3 c 1
 55.7 95.95 l 1
 315 95.95 l 2
 320.95 95.95 357.7 94.5 357.7 137 c 2
 357.7 170.6 l 2
 357.7 197.55 349.2 212.65 315 212.65 c 2
 178.7 212.65 l 2
 84.7 212.65 33.7 248 33.7 351 c 2
EndSplineSet
Substitution2: "'smcp' Lowercase to Small Capitals lookup 16-1" s.smcp
EndChar

StartChar: k
Encoding: 107 107 22
Width: 536
VWidth: 0
Flags: HW
LayerCount: 2
Fore
SplineSet
50.9 0 m 1
 50.9 782 l 1
 166.9 782 l 1
 166.9 349 l 1
 199.9 349 l 1
 369.65 531 l 1
 519.9 531 l 1
 307.35 301.5 l 1
 519.9 0 l 1
 380.65 0 l 1
 199.9 254 l 1
 166.9 254 l 1
 166.9 0 l 1
 50.9 0 l 1
EndSplineSet
Substitution2: "'smcp' Lowercase to Small Capitals lookup 16-1" k.smcp
EndChar

StartChar: g
Encoding: 103 103 23
Width: 558
VWidth: 0
Flags: HW
LayerCount: 2
Fore
SplineSet
158.35 344 m 0
 158.35 295 173.35 247.5 232.85 247.5 c 2
 304.25 247.5 l 2
 367.1 247.5 383.65 296.3 382.35 344 c 0
 380.4 404.566 363.35 434.5 303.25 434.5 c 2
 236.35 434.5 l 2
 170.45 434.5 158.35 389.2 158.35 344 c 0
158.2 -105.15 m 2
 158.2 -165.2 194.5 -171.5 229.5 -171.5 c 2
 336.8 -171.5 l 2
 390.2 -171.5 400.2 -143.75 400.2 -106.9 c 2
 400.2 -61.15 l 2
 400.2 -25 388.564 -5.36592 342.35 -5.1 c 2
 201.45 -5.1 l 2
 177.783 -5.1 158.2 0.1 158.2 0.1 c 1
 158.2 -105.15 l 2
39.95 106.95 m 0
 39.95 145.55 58.3 185.8 100.7 197.3 c 1
 56.7 225.3 42.35 291 42.35 344 c 0
 42.35 471 107.3 533 222.35 533 c 2
 541.35 533 l 1
 541.35 459.5 l 1
 474.35 441.5 l 1
 484.3 419.8 498.35 400.55 498.35 333.5 c 0
 498.35 263 469.75 149 322.85 149 c 2
 187.85 149 l 2
 171.85 149 147.2 147.45 147.2 123.2 c 0
 147.2 98.95 165.686 93.75 187.85 93.75 c 2
 369 93.75 l 2
 460.14 93.75 515.85 41.9 515.85 -56.5 c 2
 515.85 -116 l 2
 515.85 -186.5 486.35 -270 355.35 -270 c 2
 205.35 -270 l 2
 111.35 -270 41.85 -220.7 41.85 -116 c 2
 41.85 -42.2 l 1
 86.05 12.3 l 1
 58.05 29.5 39.95 64.9 39.95 106.95 c 0
EndSplineSet
AlternateSubs2: "'salt' Access All Alternates in Latin lookup 4-1" g.salt
Substitution2: "'smcp' Lowercase to Small Capitals lookup 16-1" g.smcp
EndChar

StartChar: v
Encoding: 118 118 24
Width: 554
VWidth: 0
Flags: HW
HStem: 0 21G<203.495 344.835> 0 21G<203.495 344.835> 511 20G<16.85 148.533 405.86 537.35>
DStem2: 141.6 531 16.85 531 0.343085 -0.939304<0 409.536> 275.75 144 337.3 0 0.352552 0.935792<0 410.522>
LayerCount: 2
Fore
SplineSet
16.85 531 m 1
 141.6 531 l 1
 275.75 144 l 1
 412.95 531 l 1
 537.35 531 l 1
 337.3 0 l 1
 210.8 0 l 1
 16.85 531 l 1
EndSplineSet
Substitution2: "'smcp' Lowercase to Small Capitals lookup 16-1" v.smcp
EndChar

StartChar: w
Encoding: 119 119 25
Width: 817
VWidth: 0
Flags: HW
LayerCount: 2
Fore
SplineSet
16.85 531 m 1
 141.6 531 l 1
 266.4 144 l 1
 377.1 531 l 1
 494.9 531 l 1
 451.75 378.15 l 1
 549.9 144 l 1
 675.5 531 l 1
 800.6 531 l 1
 617.55 0 l 1
 491.05 0 l 1
 397.55 216.95 l 1
 327.7 0 l 1
 197.3 0 l 1
 16.85 531 l 1
EndSplineSet
Substitution2: "'smcp' Lowercase to Small Capitals lookup 16-1" w.smcp
EndChar

StartChar: y
Encoding: 121 121 26
Width: 569
VWidth: 0
Flags: HW
LayerCount: 2
Fore
SplineSet
17.85 531 m 1
 140.85 531 l 1
 246.05 143.65 l 2
 259.85 95.75 299.05 105 304 104.65 c 1
 426.95 531 l 1
 549.85 531 l 1
 347.7 -168 l 1
 274.1 -270 l 1
 193.8 -270 l 1
 275.55 0 l 1
 220.95 0 159.85 24.4 131.4 126.1 c 2
 17.85 531 l 1
EndSplineSet
Substitution2: "'smcp' Lowercase to Small Capitals lookup 16-1" y.smcp
EndChar

StartChar: x
Encoding: 120 120 27
Width: 554
VWidth: 0
Flags: HW
HStem: 0 21G<20.5 174.849 379.951 526.3> 0 21G<20.5 174.849 379.951 526.3> 511 20G<20.5 174.535 379.889 534.3>
DStem2: 161.5 531 20.5 531 0.5746 -0.818435<0 209.12 359.064 567.781> 20.5 0 161.5 0 0.5746 0.818435<81.0186 289.736 437.784 648.8>
LayerCount: 2
Fore
SplineSet
20.5 0 m 1
 206.9 266 l 1
 20.5 531 l 1
 161.5 531 l 1
 275.75 355.7 l 1
 393.3 531 l 1
 534.3 531 l 1
 345.55 263 l 1
 526.3 0 l 1
 393.3 0 l 1
 277.4 173.65 l 1
 161.5 0 l 1
 20.5 0 l 1
EndSplineSet
AlternateSubs2: "'salt' Access All Alternates in Latin lookup 4-1" x.salt
Substitution2: "'smcp' Lowercase to Small Capitals lookup 16-1" x.smcp
EndChar

StartChar: V
Encoding: 86 86 28
Width: 680
VWidth: 0
Flags: HW
LayerCount: 2
Fore
SplineSet
38 732 m 1
 162.05 732 l 1
 343.5 160 l 1
 534.95 732 l 1
 659 732 l 1
 407.5 0 l 1
 277.5 0 l 1
 38 732 l 1
EndSplineSet
Substitution2: "'c2sc' Capitals to Small Capitals in Latin lookup 17 subtable" v.smcp
EndChar

StartChar: W
Encoding: 87 87 29
Width: 981
VWidth: 0
Flags: HW
LayerCount: 2
Fore
SplineSet
38 732 m 1
 162.05 732 l 1
 342.85 167.15 l 1
 492.35 732 l 1
 618.35 732 l 1
 561.2 526.7 l 1
 683.35 163.25 l 1
 836.75 732 l 1
 960.8 732 l 1
 749.3 0 l 1
 619.3 0 l 1
 506.8 326.75 l 1
 407.5 0 l 1
 277.5 0 l 1
 38 732 l 1
EndSplineSet
Substitution2: "'c2sc' Capitals to Small Capitals in Latin lookup 17 subtable" w.smcp
EndChar

StartChar: C
Encoding: 67 67 30
Width: 574
VWidth: 0
Flags: HW
LayerCount: 2
Fore
SplineSet
46.6 368 m 0
 46.6 602 94.75 740 293.75 740 c 0
 377.95 740 469.15 729.4 544.75 709.75 c 1
 544.75 618.55 l 1
 543.75 618.55 410.6 631 314.75 631 c 0
 204.1 631 162.6 595.35 162.6 366 c 0
 162.6 202 193.3 103 315.1 103 c 0
 420.1 103 544.75 110.7 544.75 110.7 c 1
 544.75 19.5 l 1
 477.55 1.95 379.35 -7.05 293.75 -6 c 0
 108.75 -4.95 46.6 142.15 46.6 368 c 0
EndSplineSet
Substitution2: "'c2sc' Capitals to Small Capitals in Latin lookup 17 subtable" c.smcp
EndChar

StartChar: D
Encoding: 68 68 31
Width: 660
VWidth: 0
Flags: HW
LayerCount: 2
Fore
SplineSet
183.75 107.45 m 1
 357.6 107.45 l 2
 463.35 107.45 504.75 214.55 504.75 364 c 0
 504.75 566.45 449.45 626.5 357.6 626.5 c 2
 183.75 626.5 l 1
 183.75 107.45 l 1
67.75 0 m 1
 67.75 732 l 1
 364.6 732 l 2
 580.5 732 620.75 532.95 620.75 363 c 0
 620.75 165.5 548.5 0 364.6 0 c 2
 67.75 0 l 1
EndSplineSet
Substitution2: "'c2sc' Capitals to Small Capitals in Latin lookup 17 subtable" d.smcp
EndChar

StartChar: O
Encoding: 79 79 32
Width: 672
VWidth: 0
Flags: HW
HStem: -4 109<235.945 454.267> 628 109<234.307 458.743>
VStem: 55.2 116<180.598 546.295> 519.2 116<185.951 548.238>
LayerCount: 2
Fore
SplineSet
171.2 361 m 0
 171.2 140.4 208.85 105 345.85 105 c 0
 477.35 105 519.2 144.9 519.2 361 c 0
 519.2 614.85 466.1 628 345.85 628 c 0
 228.6 628 171.2 618 171.2 361 c 0
55.2 361 m 0
 55.2 704 177.85 737 345.85 737 c 0
 518.85 737 635.2 704 635.2 361 c 0
 635.2 38 525.85 -4 345.85 -4 c 0
 165.85 -4 55.2 28 55.2 361 c 0
EndSplineSet
Substitution2: "'c2sc' Capitals to Small Capitals in Latin lookup 17 subtable" o.smcp
EndChar

StartChar: S
Encoding: 83 83 33
Width: 588
VWidth: 0
Flags: HW
LayerCount: 2
Fore
SplineSet
55.2 488.75 m 2
 55.2 553 l 2
 55.2 698 141.2 736.95 253.2 738 c 0
 339.45 739.4 473.6 723.55 524.2 710.85 c 1
 524.2 619 l 1
 460.2 624.05 300.8 629 277.7 629 c 0
 213.3 630.95 171.2 625.7 171.2 546 c 2
 171.2 499.25 l 2
 171.2 429.25 200.6 418.75 258.5 418.75 c 2
 383.7 418.75 l 2
 523.35 418.75 550.55 314.05 550.55 232.75 c 2
 550.55 177 l 2
 550.55 19.6 447.2 -8 348.2 -8 c 0
 250.9 -8 142.45 3.05 77.55 20.15 c 1
 77.55 112 l 1
 117.55 108 237.7 101 330.7 101 c 0
 372.4 101 434.55 106.15 434.55 173.85 c 2
 434.55 223.65 l 2
 434.55 270.85 420.35 302.75 362.7 302.75 c 2
 240.2 302.75 l 2
 69.7 302.75 55.2 417.7 55.2 488.75 c 2
EndSplineSet
Substitution2: "'c2sc' Capitals to Small Capitals in Latin lookup 17 subtable" s.smcp
EndChar

StartChar: G
Encoding: 71 71 34
Width: 614
VWidth: 0
Flags: HW
LayerCount: 2
Fore
SplineSet
46.6 370 m 0
 46.6 578.05 84.75 740 283.75 740 c 0
 373.2 740 462.5 730.9 555.25 709.5 c 1
 555.25 619 l 1
 549.25 619 413.55 634.5 304.75 634.5 c 0
 186.4 634.5 162.6 556.35 162.6 368 c 0
 162.6 166.3 191.35 106.05 302.1 104.75 c 0
 373.2 104.1 452.1 150.75 452.1 150.75 c 1
 452.1 307 l 1
 325.75 307 l 1
 325.75 381.5 l 1
 367.5 397.05 424.35 406.5 500.1 406.5 c 0
 521.1 406.5 544.1 405.5 568.1 403.5 c 1
 568.1 0 l 1
 483.75 0 l 1
 454.1 49 l 1
 419.6 22.4 371.1 -3.25 284.6 -5 c 0
 77.6 -10.85 46.6 160.1 46.6 370 c 0
EndSplineSet
Substitution2: "'c2sc' Capitals to Small Capitals in Latin lookup 17 subtable" g.smcp
EndChar

StartChar: Q
Encoding: 81 81 35
Width: 672
VWidth: 0
Flags: HW
LayerCount: 2
Fore
SplineSet
306.15 -33 m 1
 375.65 -33 l 1
 418.05 -82.95 481.45 -76.1 540.15 -58.25 c 1
 540.15 -159.25 l 1
 449.95 -183.1 316.9 -150.85 306.15 -33 c 1
171.2 361 m 0
 171.2 140.4 207.55 105 344.55 105 c 0
 476.05 105 519.2 144.9 519.2 361 c 0
 519.2 614.85 464.8 628 344.55 628 c 0
 227.3 628 171.2 618 171.2 361 c 0
55.2 361 m 0
 55.2 704 173.95 737 344.55 737 c 0
 517.55 737 635.2 704 635.2 361 c 0
 635.2 38 524.55 -3.3 344.55 -4 c 0
 164.55 -4 55.2 28 55.2 361 c 0
EndSplineSet
Substitution2: "'c2sc' Capitals to Small Capitals in Latin lookup 17 subtable" q.smcp
EndChar

StartChar: M
Encoding: 77 77 36
Width: 830
VWidth: 0
Flags: HW
HStem: 0 21G<46.6 163.144 346.529 484.684 667.78 784.5> 0 21G<46.6 163.144 346.529 484.684 667.78 784.5> 712 20G<103.502 271.401 554.891 722.2>
DStem2: 46.6 0 161.55 0 0.079664 0.996822<9.15738 539.182> 265.9 732 203.65 528.35 0.26521 -0.964191<179.848 559.744> 414.35 192.3 479.25 0 0.261051 0.965325<0 378.814> 720.45 732 622.8 528.35 0.0871669 -0.996194<194.363 724.777>
LayerCount: 2
Fore
SplineSet
46.6 0 m 1
 105.1 732 l 1
 265.9 732 l 1
 414.35 192.3 l 1
 560.3 732 l 1
 720.45 732 l 1
 784.5 0 l 1
 669.55 0 l 1
 622.8 528.35 l 1
 479.25 0 l 1
 352.15 0 l 1
 203.65 528.35 l 1
 161.55 0 l 1
 46.6 0 l 1
EndSplineSet
AlternateSubs2: "'salt' Access All Alternates in Latin lookup 4-1" M.salt
Substitution2: "'c2sc' Capitals to Small Capitals in Latin lookup 17 subtable" m.smcp
EndChar

StartChar: I
Encoding: 73 73 37
Width: 234
VWidth: 0
Flags: HW
HStem: 0 21G<67.75 183.75> 0 21G<67.75 183.75> 712 20G<67.75 183.75>
VStem: 67.75 116<0 732>
LayerCount: 2
Fore
SplineSet
67.75 0 m 1
 67.75 732 l 1
 183.75 732 l 1
 183.75 0 l 1
 67.75 0 l 1
EndSplineSet
Substitution2: "'c2sc' Capitals to Small Capitals in Latin lookup 17 subtable" i.smcp
EndChar

StartChar: J
Encoding: 74 74 38
Width: 357
VWidth: 0
Flags: HW
LayerCount: 2
Fore
SplineSet
29.75 22.4 m 1
 32.35 111.4 l 1
 117.2 99.7 190.4 86.55 191.05 203.85 c 2
 191.05 732 l 1
 307.05 732 l 1
 307.05 165 l 2
 307.05 118 304.35 50 254.35 18 c 0
 201.35 -16 81.75 -11.6 29.75 22.4 c 1
EndSplineSet
Substitution2: "'c2sc' Capitals to Small Capitals in Latin lookup 17 subtable" j.smcp
EndChar

StartChar: H
Encoding: 72 72 39
Width: 637
VWidth: 0
Flags: HW
LayerCount: 2
Fore
SplineSet
67.75 0 m 1
 67.75 732 l 1
 183.75 732 l 1
 183.75 408.5 l 1
 470.75 408.5 l 1
 470.75 732 l 1
 586.75 732 l 1
 586.75 0 l 1
 470.75 0 l 1
 470.75 299.5 l 1
 183.75 299.5 l 1
 183.75 0 l 1
 67.75 0 l 1
EndSplineSet
Substitution2: "'c2sc' Capitals to Small Capitals in Latin lookup 17 subtable" h.smcp
EndChar

StartChar: E
Encoding: 69 69 40
Width: 567
VWidth: 0
Flags: HW
LayerCount: 2
Fore
SplineSet
66 136.3 m 2
 66 588 l 2
 66 704.471 144.705 733.95 213 732 c 1
 213 732 491.9 721.6 532.85 716 c 1
 532.85 621.25 l 1
 234 621.25 l 2
 182 621.25 182 592.25 182 565.25 c 2
 182 419.85 l 1
 489.35 409.5 l 1
 489.35 314.8 l 1
 182 305.15 l 1
 182 159.75 l 2
 182.65 106.75 215 107.75 244 107.75 c 2
 532.85 107.75 l 1
 532.85 14 l 1
 496.8 9.1 223 -3 223 -3 c 2
 157.455 -6.3 66 9.3 66 136.3 c 2
EndSplineSet
Substitution2: "'c2sc' Capitals to Small Capitals in Latin lookup 17 subtable" e.smcp
EndChar

StartChar: L
Encoding: 76 76 41
Width: 546
VWidth: 0
Flags: HW
HStem: 0 109<189.92 516.75> 712 20G<67.75 183.75>
VStem: 67.75 116<116.345 732>
LayerCount: 2
Fore
SplineSet
67.75 136.5 m 2
 67.75 732 l 1
 183.75 732 l 1
 183.75 161 l 2
 183.75 108 216.75 109 245.75 109 c 2
 516.75 109 l 1
 516.75 0 l 1
 214.25 0 l 2
 139.5 0 67.75 23.5 67.75 136.5 c 2
EndSplineSet
Substitution2: "'c2sc' Capitals to Small Capitals in Latin lookup 17 subtable" l.smcp
EndChar

StartChar: F
Encoding: 70 70 42
Width: 567
VWidth: 0
Flags: HW
LayerCount: 2
Fore
SplineSet
66 0 m 1
 66 586.6 l 2
 66 698.25 139.805 734.3 213 732 c 1
 213 732 491.9 721.6 532.85 716 c 1
 532.85 621.25 l 1
 234 621.25 l 2
 182 621.25 182 592.25 182 565.25 c 2
 182 419.85 l 1
 489.35 409.5 l 1
 489.35 314.8 l 1
 182 305.15 l 1
 182 0 l 1
 66 0 l 1
EndSplineSet
Substitution2: "'c2sc' Capitals to Small Capitals in Latin lookup 17 subtable" f.smcp
EndChar

StartChar: K
Encoding: 75 75 43
Width: 615
VWidth: 0
Flags: HW
LayerCount: 2
Fore
SplineSet
67.75 0 m 1
 67.75 732 l 1
 180.25 732 l 1
 180.25 418 l 1
 247.55 418 l 1
 449.2 732 l 1
 585.75 732 l 1
 351.6 365.95 l 1
 585.75 0 l 1
 449.2 0 l 1
 247.55 312.5 l 1
 181.25 312.5 l 1
 181.25 0 l 1
 67.75 0 l 1
EndSplineSet
Substitution2: "'c2sc' Capitals to Small Capitals in Latin lookup 17 subtable" k.smcp
EndChar

StartChar: T
Encoding: 84 84 44
Width: 588
VWidth: 0
Flags: HW
HStem: 0 21G<239.75 355.75> 0 21G<239.75 355.75> 623 109<36.25 239.75 355.75 565.25>
VStem: 239.75 116<0 623>
LayerCount: 2
Fore
SplineSet
36.25 623 m 1
 36.25 732 l 1
 565.25 732 l 1
 565.25 623 l 1
 355.75 623 l 1
 355.75 0 l 1
 239.75 0 l 1
 239.75 623 l 1
 36.25 623 l 1
EndSplineSet
Substitution2: "'c2sc' Capitals to Small Capitals in Latin lookup 17 subtable" t.smcp
EndChar

StartChar: P
Encoding: 80 80 45
Width: 594
VWidth: 0
Flags: HW
HStem: 0 21G<54.4 170.4> 0 21G<54.4 170.4> 280.5 105.5<170.739 411.766> 300.5 85.5<170.4 411.766> 625.5 106.5<170.4 410.064>
VStem: 54.4 116<0 300.5 386 625.5> 440 117<414.18 596.911>
LayerCount: 2
Fore
SplineSet
170.4 386 m 1
 357.15 386 l 2
 404.25 386 440 405.9 440 510.2 c 1
 438.7 612.85 392.15 625.5 357.15 625.5 c 2
 170.4 625.5 l 1
 170.4 386 l 1
54.4 0 m 1
 54.4 732 l 1
 364.15 732 l 2
 451.2 732 557 701.8 557 511.25 c 0
 557 293.15 444.45 278.05 364.15 280.5 c 0
 324.15 281.55 175.4 297.5 170.4 300.5 c 1
 170.4 0 l 1
 54.4 0 l 1
EndSplineSet
Substitution2: "'c2sc' Capitals to Small Capitals in Latin lookup 17 subtable" p.smcp
EndChar

StartChar: R
Encoding: 82 82 46
Width: 602
VWidth: 0
Flags: HW
HStem: 0 21G<54.4 170.4 445.067 583.75> 0 21G<54.4 170.4 445.067 583.75> 299 94<170.75 245.9> 625.5 106.5<170.75 415.187>
VStem: 54.4 116<0 299 393 625.5> 442.9 117<412.802 598.865>
DStem2: 439.55 293.25 321.4 285 0.441267 -0.897376<0 269.708>
LayerCount: 2
Fore
SplineSet
170.75 393 m 1
 362.9 393 l 2
 410.65 393 442.9 402.1 442.9 506.75 c 0
 442.9 607.3 406.9 625.5 362.9 625.5 c 2
 170.75 625.5 l 1
 170.75 393 l 1
54.4 0 m 1
 54.4 732 l 1
 371.65 732 l 2
 478.9 732 559.9 678.35 559.9 506.75 c 0
 559.9 322.35 475.6 302.85 439.55 293.25 c 1
 583.75 0 l 1
 454.4 0 l 1
 321.4 285 l 1
 170.4 299 l 1
 170.4 0 l 1
 54.4 0 l 1
EndSplineSet
Substitution2: "'c2sc' Capitals to Small Capitals in Latin lookup 17 subtable" r.smcp
EndChar

StartChar: U
Encoding: 85 85 47
Width: 669
VWidth: 0
Flags: HW
LayerCount: 2
Fore
SplineSet
67.75 320 m 2
 67.75 732 l 1
 183.75 732 l 1
 183.75 320 l 2
 183.75 120.05 236.45 104 345.75 104 c 0
 441.25 104 501.75 126.65 501.75 320 c 2
 501.75 732 l 1
 618.75 732 l 1
 618.75 320 l 2
 618.75 -3 466.75 -5 345.75 -5 c 0
 209.75 -5 67.75 -13 67.75 320 c 2
EndSplineSet
Substitution2: "'c2sc' Capitals to Small Capitals in Latin lookup 17 subtable" u.smcp
EndChar

StartChar: B
Encoding: 66 66 48
Width: 601
VWidth: 0
Flags: HW
LayerCount: 2
Fore
SplineSet
184.4 434 m 1
 357.1 434 l 2
 416.35 434 448.25 468.05 448.25 531.15 c 0
 448.25 609.6 398.6 626.5 357.1 626.5 c 2
 184.4 626.5 l 1
 184.4 434 l 1
184.4 105.5 m 1
 360.6 105.5 l 2
 405.1 105.5 455.75 123.05 455.75 215.8 c 0
 455.75 276.85 428.85 332 360.6 332 c 2
 184.4 332 l 1
 184.4 105.5 l 1
67.75 0 m 1
 67.75 732 l 1
 362.35 732 l 2
 511.85 732 562.85 635.2 562.85 538.5 c 0
 562.85 468.7 536.95 396.4 465.6 380 c 1
 520.45 369.3 571.75 311.7 571.75 211 c 0
 571.75 87.3 518.1 0 364.1 0 c 2
 67.75 0 l 1
EndSplineSet
Substitution2: "'c2sc' Capitals to Small Capitals in Latin lookup 17 subtable" b.smcp
EndChar

StartChar: N
Encoding: 78 78 49
Width: 678
VWidth: 0
Flags: HW
LayerCount: 2
Fore
SplineSet
67.75 0 m 1
 67.75 732 l 1
 185.75 732 l 1
 512.4 215 l 1
 512.4 732 l 1
 628.4 732 l 1
 628.4 0 l 1
 512.4 0 l 1
 184.75 513.5 l 1
 184.75 0 l 1
 67.75 0 l 1
EndSplineSet
AlternateSubs2: "'salt' Access All Alternates in Latin lookup 4-1" N.salt
Substitution2: "'c2sc' Capitals to Small Capitals in Latin lookup 17 subtable" n.smcp
EndChar

StartChar: X
Encoding: 88 88 50
Width: 625
VWidth: 0
Flags: HW
HStem: 0 21G<41 180.117 459.739 598.9> 0 21G<41 180.117 459.739 598.9> 712 20G<38 177.264 464.444 603.9>
DStem2: 165.9 732 38 732 0.509125 -0.860692<0 311.181 476.951 785.361> 41 0 168.9 0 0.510864 0.859661<65.3396 65.3396 539 851.498>
LayerCount: 2
Fore
SplineSet
38 732 m 1
 165.9 732 l 1
 319.65 461.4 l 1
 476 732 l 1
 603.9 732 l 1
 385.45 368.2 l 1
 598.9 0 l 1
 471 0 l 1
 319.65 268.8 l 1
 168.9 0 l 1
 41 0 l 1
 253.5 368.2 l 1
 38 732 l 1
EndSplineSet
AlternateSubs2: "'salt' Access All Alternates in Latin lookup 4-1" X.salt
Substitution2: "'c2sc' Capitals to Small Capitals in Latin lookup 17 subtable" x.smcp
EndChar

StartChar: Z
Encoding: 90 90 51
Width: 559
VWidth: 0
Flags: HW
LayerCount: 2
Fore
SplineSet
29.75 0 m 1
 29.75 109 l 1
 387.25 623 l 1
 29.75 623 l 1
 29.75 732 l 1
 529.75 732 l 1
 529.75 623 l 1
 182.75 109 l 1
 529.75 109 l 1
 529.75 0 l 1
 29.75 0 l 1
EndSplineSet
Substitution2: "'c2sc' Capitals to Small Capitals in Latin lookup 17 subtable" z.smcp
EndChar

StartChar: Y
Encoding: 89 89 52
Width: 647
VWidth: 0
Flags: HW
LayerCount: 2
Fore
SplineSet
38 732 m 1
 164.5 732 l 1
 324.1 369 l 1
 499.5 732 l 1
 626 732 l 1
 380.7 239 l 1
 380.7 0 l 1
 264.7 0 l 1
 264.7 239 l 1
 38 732 l 1
EndSplineSet
Substitution2: "'c2sc' Capitals to Small Capitals in Latin lookup 17 subtable" y.smcp
EndChar

StartChar: Agrave
Encoding: 192 192 53
Width: 684
VWidth: 0
Flags: HW
LayerCount: 2
Fore
SplineSet
257.35 283.25 m 1
 452.6 283.25 l 1
 357.35 573.5 l 1
 257.35 283.25 l 1
38 0 m 1
 293 732 l 1
 421.25 732 l 1
 666 0 l 1
 539.15 0 l 1
 483.15 177.4 l 1
 224.4 177.4 l 1
 166.8 0 l 1
 38 0 l 1
189.625 933.5 m 1
 302.125 933.5 l 1
 398.625 797 l 1
 315.625 797 l 1
 189.625 933.5 l 1
EndSplineSet
Substitution2: "'c2sc' Capitals to Small Capitals in Latin lookup 17 subtable" agrave.smcp
EndChar

StartChar: Aacute
Encoding: 193 193 54
Width: 684
VWidth: 0
Flags: HW
LayerCount: 2
Fore
SplineSet
257.35 283.25 m 1
 452.6 283.25 l 1
 357.35 573.5 l 1
 257.35 283.25 l 1
38 0 m 1
 293 732 l 1
 421.25 732 l 1
 666 0 l 1
 539.15 0 l 1
 483.15 177.4 l 1
 224.4 177.4 l 1
 166.8 0 l 1
 38 0 l 1
315.625 797 m 1
 412.125 933.5 l 1
 524.625 933.5 l 1
 398.625 797 l 1
 315.625 797 l 1
EndSplineSet
Substitution2: "'c2sc' Capitals to Small Capitals in Latin lookup 17 subtable" aacute.smcp
EndChar

StartChar: Acircumflex
Encoding: 194 194 55
Width: 684
VWidth: 0
Flags: HW
LayerCount: 2
Fore
SplineSet
257.35 283.25 m 1
 452.6 283.25 l 1
 357.35 573.5 l 1
 257.35 283.25 l 1
38 0 m 1
 293 732 l 1
 421.25 732 l 1
 666 0 l 1
 539.15 0 l 1
 483.15 177.4 l 1
 224.4 177.4 l 1
 166.8 0 l 1
 38 0 l 1
205.875 797 m 1
 316.925 930.5 l 1
 408.925 930.5 l 1
 508.375 797 l 1
 423.375 797 l 1
 360.075 861 l 1
 291.875 797 l 1
 205.875 797 l 1
EndSplineSet
Substitution2: "'c2sc' Capitals to Small Capitals in Latin lookup 17 subtable" acircumflex.smcp
EndChar

StartChar: Atilde
Encoding: 195 195 56
Width: 684
VWidth: 0
Flags: HW
LayerCount: 2
Fore
SplineSet
257.35 283.25 m 1
 452.6 283.25 l 1
 357.35 573.5 l 1
 257.35 283.25 l 1
38 0 m 1
 293 732 l 1
 421.25 732 l 1
 666 0 l 1
 539.15 0 l 1
 483.15 177.4 l 1
 224.4 177.4 l 1
 166.8 0 l 1
 38 0 l 1
186.375 847.1 m 1
 221.125 881.15 259.875 914.6 306.125 914.6 c 1
 354.025 912.65 380.575 880.25 412.775 879.6 c 0
 442.375 878.25 475.975 897.9 504.475 917 c 1
 527.875 863.8 l 1
 498.725 836 459.075 796.35 413.925 797.65 c 0
 362.475 799.6 340.825 832.65 303.775 832 c 0
 261.525 831.35 244.375 814.5 209.475 797 c 1
 186.375 847.1 l 1
EndSplineSet
Substitution2: "'c2sc' Capitals to Small Capitals in Latin lookup 17 subtable" atilde.smcp
EndChar

StartChar: Adieresis
Encoding: 196 196 57
Width: 684
VWidth: 0
Flags: HW
LayerCount: 2
Fore
SplineSet
257.35 283.25 m 1
 452.6 283.25 l 1
 357.35 573.5 l 1
 257.35 283.25 l 1
38 0 m 1
 293 732 l 1
 421.25 732 l 1
 666 0 l 1
 539.15 0 l 1
 483.15 177.4 l 1
 224.4 177.4 l 1
 166.8 0 l 1
 38 0 l 1
428.875 853.25 m 0
 428.875 884.05 454.325 908.5 485.125 908.5 c 0
 515.925 908.5 540.375 884.05 540.375 853.25 c 0
 540.375 822.45 515.925 797 485.125 797 c 0
 454.325 797 428.875 822.45 428.875 853.25 c 0
173.875 853.25 m 0
 173.875 884.05 199.325 908.5 230.125 908.5 c 0
 260.925 908.5 285.375 884.05 285.375 853.25 c 0
 285.375 822.45 260.925 797 230.125 797 c 0
 199.325 797 173.875 822.45 173.875 853.25 c 0
EndSplineSet
Substitution2: "'c2sc' Capitals to Small Capitals in Latin lookup 17 subtable" adieresis.smcp
EndChar

StartChar: Aring
Encoding: 197 197 58
Width: 684
VWidth: 0
Flags: HW
LayerCount: 2
Fore
SplineSet
257.35 283.25 m 1
 452.6 283.25 l 1
 357.35 573.5 l 1
 257.35 283.25 l 1
38 0 m 1
 293 732 l 1
 338.239 732 l 1
 291.39 740.977 255.625 781.907 255.625 832.167 c 0
 255.625 889.167 301.625 935.167 357.625 935.167 c 0
 413.625 935.167 458.625 889.167 458.625 832.167 c 0
 458.625 781.907 423.638 740.977 376.973 732 c 1
 421.25 732 l 1
 666 0 l 1
 539.15 0 l 1
 483.15 177.4 l 1
 224.4 177.4 l 1
 166.8 0 l 1
 38 0 l 1
309.975 832.167 m 0
 309.975 806.017 331.475 785.517 357.625 785.517 c 0
 383.775 785.517 404.275 806.017 404.275 832.167 c 0
 404.275 858.317 383.775 879.817 357.625 879.817 c 0
 331.475 879.817 309.975 858.317 309.975 832.167 c 0
EndSplineSet
Substitution2: "'c2sc' Capitals to Small Capitals in Latin lookup 17 subtable" aring.smcp
EndChar

StartChar: AE
Encoding: 198 198 59
Width: 942
VWidth: 0
Flags: HW
LayerCount: 2
Fore
SplineSet
306.25 311.5 m 1
 442.85 311.5 l 1
 442.85 592.5 l 1
 306.25 311.5 l 1
25.45 0 m 1
 314 585.8 l 2
 389.15 737.15 485.95 734.45 588.55 732 c 1
 588.55 732 863.05 721.6 904 716 c 1
 904 620.6 l 1
 609.55 620.6 l 2
 560.15 620.6 560.15 593.55 558.85 566.55 c 1
 558.85 416.6 l 1
 860.5 406.25 l 1
 860.5 311.55 l 1
 558.85 301.9 l 1
 558.85 158.45 l 2
 558.85 105.45 591.85 109.7 620.85 109.7 c 2
 903.35 109.05 l 1
 903.35 12.7 l 1
 867.3 7.8 599.85 -4.3 599.85 -4.3 c 2
 532.45 -8.3 442.85 8 442.85 121 c 2
 442.85 206 l 1
 254.9 206 l 1
 153.35 0 l 1
 25.45 0 l 1
EndSplineSet
EndChar

StartChar: Ccedilla
Encoding: 199 199 60
Width: 574
VWidth: 0
Flags: HW
LayerCount: 2
Fore
SplineSet
46.5996 368 m 0
 46.5996 602 94.75 740 293.75 740 c 0
 377.95 740 469.15 729.4 544.75 709.75 c 1
 544.75 618.55 l 1
 543.75 618.55 410.6 631 314.75 631 c 0
 204.1 631 162.6 595.35 162.6 366 c 0
 162.6 202 193.3 103 315.1 103 c 0
 420.1 103 544.75 110.7 544.75 110.7 c 1
 544.75 19.5 l 1
 477.55 1.9502 379.35 -7.0498 293.75 -6 c 0
 108.75 -4.9502 46.5996 142.15 46.5996 368 c 0
151.5 -124.15 m 1
 198.9 -109.15 l 1
 226.9 -97.1504 229.5 -74.3496 229.5 -36.3496 c 1
 314 -36.3496 l 1
 314 -138.35 290.2 -175.85 206 -175.85 c 2
 151.5 -175.85 l 1
 151.5 -124.15 l 1
EndSplineSet
Substitution2: "'c2sc' Capitals to Small Capitals in Latin lookup 17 subtable" ccedilla.smcp
EndChar

StartChar: Eth
Encoding: 208 208 61
Width: 660
VWidth: 0
Flags: HW
LayerCount: 2
Fore
SplineSet
183.75 107.45 m 1
 358.25 107.45 l 2
 464 107.45 502.8 214.55 502.8 364 c 0
 502.8 563.85 444.9 623.25 358.25 623.25 c 2
 183.75 622.6 l 1
 183.75 403.5 l 1
 305.25 403.5 l 1
 305.25 342.5 l 1
 183.75 342.5 l 1
 183.75 107.45 l 1
2.75 342.5 m 1
 2.75 403.5 l 1
 67.75 403.5 l 1
 67.75 731.35 l 2
 67.75 732 326.25 732 365.25 732 c 0
 581.15 732 620.75 532.95 620.75 363 c 0
 620.75 165.5 549.15 0 365.25 0 c 2
 67.75 0 l 1
 67.75 342.5 l 1
 2.75 342.5 l 1
EndSplineSet
Substitution2: "'c2sc' Capitals to Small Capitals in Latin lookup 17 subtable" eth.smcp
EndChar

StartChar: Egrave
Encoding: 200 200 62
Width: 567
VWidth: 0
Flags: HW
LayerCount: 2
Fore
SplineSet
66 136.3 m 2
 66 588 l 2
 66 704.471 144.705 733.95 213 732 c 1
 213 732 491.9 721.6 532.85 716 c 1
 532.85 621.25 l 1
 234 621.25 l 2
 182 621.25 182 592.25 182 565.25 c 2
 182 419.85 l 1
 489.35 409.5 l 1
 489.35 314.8 l 1
 182 305.15 l 1
 182 159.75 l 2
 182.65 106.75 215 107.75 244 107.75 c 2
 532.85 107.75 l 1
 532.85 14 l 1
 496.8 9.09961 223 -3 223 -3 c 2
 157.455 -6.2998 66 9.2998 66 136.3 c 2
168.65 930.6 m 1
 281.15 930.6 l 1
 377.65 794.1 l 1
 294.65 794.1 l 1
 168.65 930.6 l 1
EndSplineSet
Substitution2: "'c2sc' Capitals to Small Capitals in Latin lookup 17 subtable" egrave.smcp
EndChar

StartChar: Eacute
Encoding: 201 201 63
Width: 567
VWidth: 0
Flags: HW
LayerCount: 2
Fore
SplineSet
66 136.3 m 2
 66 588 l 2
 66 704.471 144.705 733.95 213 732 c 1
 213 732 491.9 721.6 532.85 716 c 1
 532.85 621.25 l 1
 234 621.25 l 2
 182 621.25 182 592.25 182 565.25 c 2
 182 419.85 l 1
 489.35 409.5 l 1
 489.35 314.8 l 1
 182 305.15 l 1
 182 159.75 l 2
 182.65 106.75 215 107.75 244 107.75 c 2
 532.85 107.75 l 1
 532.85 14 l 1
 496.8 9.09961 223 -3 223 -3 c 2
 157.455 -6.2998 66 9.2998 66 136.3 c 2
279.65 793.75 m 1
 376.15 930.25 l 1
 488.65 930.25 l 1
 362.65 793.75 l 1
 279.65 793.75 l 1
EndSplineSet
Substitution2: "'c2sc' Capitals to Small Capitals in Latin lookup 17 subtable" eacute.smcp
EndChar

StartChar: Ecircumflex
Encoding: 202 202 64
Width: 567
VWidth: 0
Flags: HW
LayerCount: 2
Fore
SplineSet
66 136.3 m 2
 66 588 l 2
 66 704.471 144.705 733.95 213 732 c 1
 213 732 491.9 721.6 532.85 716 c 1
 532.85 621.25 l 1
 234 621.25 l 2
 182 621.25 182 592.25 182 565.25 c 2
 182 419.85 l 1
 489.35 409.5 l 1
 489.35 314.8 l 1
 182 305.15 l 1
 182 159.75 l 2
 182.65 106.75 215 107.75 244 107.75 c 2
 532.85 107.75 l 1
 532.85 14 l 1
 496.8 9.09961 223 -3 223 -3 c 2
 157.455 -6.2998 66 9.2998 66 136.3 c 2
165.8 797 m 1
 276.85 930.5 l 1
 368.85 930.5 l 1
 468.3 797 l 1
 383.3 797 l 1
 320 861 l 1
 251.8 797 l 1
 165.8 797 l 1
EndSplineSet
Substitution2: "'c2sc' Capitals to Small Capitals in Latin lookup 17 subtable" ecircumflex.smcp
EndChar

StartChar: Edieresis
Encoding: 203 203 65
Width: 567
VWidth: 0
Flags: HW
LayerCount: 2
Fore
SplineSet
66 136.3 m 2
 66 588 l 2
 66 704.471 144.705 733.95 213 732 c 1
 213 732 491.9 721.6 532.85 716 c 1
 532.85 621.25 l 1
 234 621.25 l 2
 182 621.25 182 592.25 182 565.25 c 2
 182 419.85 l 1
 489.35 409.5 l 1
 489.35 314.8 l 1
 182 305.15 l 1
 182 159.75 l 2
 182.65 106.75 215 107.75 244 107.75 c 2
 532.85 107.75 l 1
 532.85 14 l 1
 496.8 9.09961 223 -3 223 -3 c 2
 157.455 -6.2998 66 9.2998 66 136.3 c 2
385.95 850 m 0
 385.95 880.8 411.4 905.25 442.2 905.25 c 0
 473 905.25 497.45 880.8 497.45 850 c 0
 497.45 819.2 473 793.75 442.2 793.75 c 0
 411.4 793.75 385.95 819.2 385.95 850 c 0
130.95 850 m 0
 130.95 880.8 156.4 905.25 187.2 905.25 c 0
 218 905.25 242.45 880.8 242.45 850 c 0
 242.45 819.2 218 793.75 187.2 793.75 c 0
 156.4 793.75 130.95 819.2 130.95 850 c 0
EndSplineSet
Substitution2: "'c2sc' Capitals to Small Capitals in Latin lookup 17 subtable" edieresis.smcp
EndChar

StartChar: Igrave
Encoding: 204 204 66
Width: 234
VWidth: 0
Flags: HW
LayerCount: 2
Fore
SplineSet
67.75 0 m 1
 67.75 732 l 1
 183.75 732 l 1
 183.75 0 l 1
 67.75 0 l 1
-41.75 933.5 m 1
 70.75 933.5 l 1
 167.25 797 l 1
 84.25 797 l 1
 -41.75 933.5 l 1
EndSplineSet
Substitution2: "'c2sc' Capitals to Small Capitals in Latin lookup 17 subtable" igrave.smcp
EndChar

StartChar: Iacute
Encoding: 205 205 67
Width: 234
VWidth: 0
Flags: HW
LayerCount: 2
Fore
SplineSet
67.75 0 m 1
 67.75 732 l 1
 183.75 732 l 1
 183.75 0 l 1
 67.75 0 l 1
84.25 797 m 1
 180.75 933.5 l 1
 293.25 933.5 l 1
 167.25 797 l 1
 84.25 797 l 1
EndSplineSet
Substitution2: "'c2sc' Capitals to Small Capitals in Latin lookup 17 subtable" iacute.smcp
EndChar

StartChar: Icircumflex
Encoding: 206 206 68
Width: 234
VWidth: 0
Flags: HW
LayerCount: 2
Fore
SplineSet
67.75 0 m 1
 67.75 732 l 1
 183.75 732 l 1
 183.75 0 l 1
 67.75 0 l 1
-25.5 797 m 1
 85.5498 930.5 l 1
 177.55 930.5 l 1
 277 797 l 1
 192 797 l 1
 128.7 861 l 1
 60.5 797 l 1
 -25.5 797 l 1
EndSplineSet
Substitution2: "'c2sc' Capitals to Small Capitals in Latin lookup 17 subtable" icircumflex.smcp
EndChar

StartChar: Idieresis
Encoding: 207 207 69
Width: 234
VWidth: 0
Flags: HW
LayerCount: 2
Fore
SplineSet
67.75 0 m 1
 67.75 732 l 1
 183.75 732 l 1
 183.75 0 l 1
 67.75 0 l 1
197.5 853.25 m 0
 197.5 884.05 222.95 908.5 253.75 908.5 c 0
 284.55 908.5 309 884.05 309 853.25 c 0
 309 822.45 284.55 797 253.75 797 c 0
 222.95 797 197.5 822.45 197.5 853.25 c 0
-57.5 853.25 m 0
 -57.5 884.05 -32.0498 908.5 -1.25 908.5 c 0
 29.5498 908.5 54 884.05 54 853.25 c 0
 54 822.45 29.5498 797 -1.25 797 c 0
 -32.0498 797 -57.5 822.45 -57.5 853.25 c 0
EndSplineSet
Substitution2: "'c2sc' Capitals to Small Capitals in Latin lookup 17 subtable" idieresis.smcp
EndChar

StartChar: Ntilde
Encoding: 209 209 70
Width: 678
VWidth: 0
Flags: HW
LayerCount: 2
Fore
SplineSet
67.75 0 m 1
 67.75 732 l 1
 185.75 732 l 1
 512.4 215 l 1
 512.4 732 l 1
 628.4 732 l 1
 628.4 0 l 1
 512.4 0 l 1
 184.75 513.5 l 1
 184.75 0 l 1
 67.75 0 l 1
177.325 847.1 m 1
 212.075 881.15 250.825 914.6 297.075 914.6 c 1
 344.975 912.65 371.525 880.25 403.725 879.6 c 0
 433.325 878.25 466.925 897.9 495.425 917 c 1
 518.825 863.8 l 1
 489.675 836 450.025 796.35 404.875 797.65 c 0
 353.425 799.6 331.775 832.65 294.725 832 c 0
 252.475 831.35 235.325 814.5 200.425 797 c 1
 177.325 847.1 l 1
EndSplineSet
AlternateSubs2: "'salt' Access All Alternates in Latin lookup 4-1" Ntilde.salt
Substitution2: "'c2sc' Capitals to Small Capitals in Latin lookup 17 subtable" ntilde.smcp
EndChar

StartChar: Ograve
Encoding: 210 210 71
Width: 672
VWidth: 0
Flags: HW
LayerCount: 2
Fore
SplineSet
171.2 361 m 0
 171.2 140.4 208.85 105 345.85 105 c 0
 477.35 105 519.2 144.9 519.2 361 c 0
 519.2 614.85 466.1 628 345.85 628 c 0
 228.6 628 171.2 618 171.2 361 c 0
55.2002 361 m 0
 55.2002 704 177.85 737 345.85 737 c 0
 518.85 737 635.2 704 635.2 361 c 0
 635.2 38 525.85 -4 345.85 -4 c 0
 165.85 -4 55.2002 28 55.2002 361 c 0
178.35 933.5 m 1
 290.85 933.5 l 1
 387.35 797 l 1
 304.35 797 l 1
 178.35 933.5 l 1
EndSplineSet
Substitution2: "'c2sc' Capitals to Small Capitals in Latin lookup 17 subtable" ograve.smcp
EndChar

StartChar: Oacute
Encoding: 211 211 72
Width: 672
VWidth: 0
Flags: HW
LayerCount: 2
Fore
SplineSet
171.2 361 m 0
 171.2 140.4 208.85 105 345.85 105 c 0
 477.35 105 519.2 144.9 519.2 361 c 0
 519.2 614.85 466.1 628 345.85 628 c 0
 228.6 628 171.2 618 171.2 361 c 0
55.2002 361 m 0
 55.2002 704 177.85 737 345.85 737 c 0
 518.85 737 635.2 704 635.2 361 c 0
 635.2 38 525.85 -4 345.85 -4 c 0
 165.85 -4 55.2002 28 55.2002 361 c 0
304.35 797 m 1
 400.85 933.5 l 1
 513.35 933.5 l 1
 387.35 797 l 1
 304.35 797 l 1
EndSplineSet
Substitution2: "'c2sc' Capitals to Small Capitals in Latin lookup 17 subtable" oacute.smcp
EndChar

StartChar: Ocircumflex
Encoding: 212 212 73
Width: 672
VWidth: 0
Flags: HW
LayerCount: 2
Fore
SplineSet
171.2 361 m 0
 171.2 140.4 208.85 105 345.85 105 c 0
 477.35 105 519.2 144.9 519.2 361 c 0
 519.2 614.85 466.1 628 345.85 628 c 0
 228.6 628 171.2 618 171.2 361 c 0
55.2002 361 m 0
 55.2002 704 177.85 737 345.85 737 c 0
 518.85 737 635.2 704 635.2 361 c 0
 635.2 38 525.85 -4 345.85 -4 c 0
 165.85 -4 55.2002 28 55.2002 361 c 0
194.6 797 m 1
 305.65 930.5 l 1
 397.65 930.5 l 1
 497.1 797 l 1
 412.1 797 l 1
 348.8 861 l 1
 280.6 797 l 1
 194.6 797 l 1
EndSplineSet
Substitution2: "'c2sc' Capitals to Small Capitals in Latin lookup 17 subtable" ocircumflex.smcp
EndChar

StartChar: Otilde
Encoding: 213 213 74
Width: 672
VWidth: 0
Flags: HW
LayerCount: 2
Fore
SplineSet
171.2 361 m 0
 171.2 140.4 208.85 105 345.85 105 c 0
 477.35 105 519.2 144.9 519.2 361 c 0
 519.2 614.85 466.1 628 345.85 628 c 0
 228.6 628 171.2 618 171.2 361 c 0
55.2002 361 m 0
 55.2002 704 177.85 737 345.85 737 c 0
 518.85 737 635.2 704 635.2 361 c 0
 635.2 38 525.85 -4 345.85 -4 c 0
 165.85 -4 55.2002 28 55.2002 361 c 0
175.1 847.1 m 1
 209.85 881.15 248.6 914.6 294.85 914.6 c 1
 342.75 912.65 369.3 880.25 401.5 879.6 c 0
 431.1 878.25 464.7 897.9 493.2 917 c 1
 516.6 863.8 l 1
 487.45 836 447.8 796.35 402.65 797.65 c 0
 351.2 799.6 329.55 832.65 292.5 832 c 0
 250.25 831.35 233.1 814.5 198.2 797 c 1
 175.1 847.1 l 1
EndSplineSet
Substitution2: "'c2sc' Capitals to Small Capitals in Latin lookup 17 subtable" otilde.smcp
EndChar

StartChar: Odieresis
Encoding: 214 214 75
Width: 672
VWidth: 0
Flags: HW
LayerCount: 2
Fore
SplineSet
171.2 361 m 0
 171.2 140.4 208.85 105 345.85 105 c 0
 477.35 105 519.2 144.9 519.2 361 c 0
 519.2 614.85 466.1 628 345.85 628 c 0
 228.6 628 171.2 618 171.2 361 c 0
55.2002 361 m 0
 55.2002 704 177.85 737 345.85 737 c 0
 518.85 737 635.2 704 635.2 361 c 0
 635.2 38 525.85 -4 345.85 -4 c 0
 165.85 -4 55.2002 28 55.2002 361 c 0
417.6 853.25 m 0
 417.6 884.05 443.05 908.5 473.85 908.5 c 0
 504.65 908.5 529.1 884.05 529.1 853.25 c 0
 529.1 822.45 504.65 797 473.85 797 c 0
 443.05 797 417.6 822.45 417.6 853.25 c 0
162.6 853.25 m 0
 162.6 884.05 188.05 908.5 218.85 908.5 c 0
 249.65 908.5 274.1 884.05 274.1 853.25 c 0
 274.1 822.45 249.65 797 218.85 797 c 0
 188.05 797 162.6 822.45 162.6 853.25 c 0
EndSplineSet
Substitution2: "'c2sc' Capitals to Small Capitals in Latin lookup 17 subtable" odieresis.smcp
EndChar

StartChar: Oslash
Encoding: 216 216 76
Width: 678
VWidth: 0
Flags: HW
LayerCount: 2
Fore
SplineSet
224.3 135.7 m 1
 251.35 111.7 290.35 105 348.35 105 c 0
 479.85 105 522.35 144.9 522.35 361 c 0
 522.35 454.1 514.85 513.15 498.5 551.55 c 1
 224.3 135.7 l 1
174.35 361 m 0
 174.35 281.7 180.2 229.8 194.85 194.85 c 1
 464.9 605.45 l 1
 437.2 626.6 398.25 628 348.35 628 c 0
 231.1 628 174.35 618 174.35 361 c 0
58.35 361 m 0
 58.35 704 177.75 737 348.35 737 c 0
 420 737 482.05 731.65 530.1 700.35 c 1
 551.45 732 l 1
 621.2 732 l 1
 573 660.5 l 1
 614.65 606.15 638.35 514.85 638.35 361 c 0
 638.35 38 528.35 -4 348.35 -4 c 0
 269.95 -4 205.15 2 156.4 36.1 c 1
 131.95 0 l 1
 62.2 0 l 1
 114.9 78.7 l 1
 78 132.05 58.35 218.65 58.35 361 c 0
EndSplineSet
Substitution2: "'c2sc' Capitals to Small Capitals in Latin lookup 17 subtable" oslash.smcp
EndChar

StartChar: Ugrave
Encoding: 217 217 77
Width: 669
VWidth: 0
Flags: HW
LayerCount: 2
Fore
SplineSet
67.75 320 m 2
 67.75 732 l 1
 183.75 732 l 1
 183.75 320 l 2
 183.75 120.05 236.45 104 345.75 104 c 0
 441.25 104 501.75 126.65 501.75 320 c 2
 501.75 732 l 1
 618.75 732 l 1
 618.75 320 l 2
 618.75 -3 466.75 -5 345.75 -5 c 0
 209.75 -5 67.75 -13 67.75 320 c 2
175.75 933.5 m 1
 288.25 933.5 l 1
 384.75 797 l 1
 301.75 797 l 1
 175.75 933.5 l 1
EndSplineSet
Substitution2: "'c2sc' Capitals to Small Capitals in Latin lookup 17 subtable" ugrave.smcp
EndChar

StartChar: Uacute
Encoding: 218 218 78
Width: 669
VWidth: 0
Flags: HW
LayerCount: 2
Fore
SplineSet
67.75 320 m 2
 67.75 732 l 1
 183.75 732 l 1
 183.75 320 l 2
 183.75 120.05 236.45 104 345.75 104 c 0
 441.25 104 501.75 126.65 501.75 320 c 2
 501.75 732 l 1
 618.75 732 l 1
 618.75 320 l 2
 618.75 -3 466.75 -5 345.75 -5 c 0
 209.75 -5 67.75 -13 67.75 320 c 2
301.75 797 m 1
 398.25 933.5 l 1
 510.75 933.5 l 1
 384.75 797 l 1
 301.75 797 l 1
EndSplineSet
Substitution2: "'c2sc' Capitals to Small Capitals in Latin lookup 17 subtable" uacute.smcp
EndChar

StartChar: Ucircumflex
Encoding: 219 219 79
Width: 669
VWidth: 0
Flags: HW
LayerCount: 2
Fore
SplineSet
67.75 320 m 2
 67.75 732 l 1
 183.75 732 l 1
 183.75 320 l 2
 183.75 120.05 236.45 104 345.75 104 c 0
 441.25 104 501.75 126.65 501.75 320 c 2
 501.75 732 l 1
 618.75 732 l 1
 618.75 320 l 2
 618.75 -3 466.75 -5 345.75 -5 c 0
 209.75 -5 67.75 -13 67.75 320 c 2
192 797 m 1
 303.05 930.5 l 1
 395.05 930.5 l 1
 494.5 797 l 1
 409.5 797 l 1
 346.2 861 l 1
 278 797 l 1
 192 797 l 1
EndSplineSet
Substitution2: "'c2sc' Capitals to Small Capitals in Latin lookup 17 subtable" ucircumflex.smcp
EndChar

StartChar: Udieresis
Encoding: 220 220 80
Width: 669
VWidth: 0
Flags: HW
LayerCount: 2
Fore
SplineSet
67.75 320 m 2
 67.75 732 l 1
 183.75 732 l 1
 183.75 320 l 2
 183.75 120.05 236.45 104 345.75 104 c 0
 441.25 104 501.75 126.65 501.75 320 c 2
 501.75 732 l 1
 618.75 732 l 1
 618.75 320 l 2
 618.75 -3 466.75 -5 345.75 -5 c 0
 209.75 -5 67.75 -13 67.75 320 c 2
415 853.25 m 0
 415 884.05 440.45 908.5 471.25 908.5 c 0
 502.05 908.5 526.5 884.05 526.5 853.25 c 0
 526.5 822.45 502.05 797 471.25 797 c 0
 440.45 797 415 822.45 415 853.25 c 0
160 853.25 m 0
 160 884.05 185.45 908.5 216.25 908.5 c 0
 247.05 908.5 271.5 884.05 271.5 853.25 c 0
 271.5 822.45 247.05 797 216.25 797 c 0
 185.45 797 160 822.45 160 853.25 c 0
EndSplineSet
Substitution2: "'c2sc' Capitals to Small Capitals in Latin lookup 17 subtable" udieresis.smcp
EndChar

StartChar: Yacute
Encoding: 221 221 81
Width: 647
VWidth: 0
Flags: HW
LayerCount: 2
Fore
SplineSet
38 732 m 1
 164.5 732 l 1
 324.1 369 l 1
 499.5 732 l 1
 626 732 l 1
 380.7 239 l 1
 380.7 0 l 1
 264.7 0 l 1
 264.7 239 l 1
 38 732 l 1
290.5 797 m 1
 387 933.5 l 1
 499.5 933.5 l 1
 373.5 797 l 1
 290.5 797 l 1
EndSplineSet
Substitution2: "'c2sc' Capitals to Small Capitals in Latin lookup 17 subtable" yacute.smcp
EndChar

StartChar: agrave
Encoding: 224 224 82
Width: 519
VWidth: 0
Flags: HW
LayerCount: 2
Fore
SplineSet
149.7 146.4 m 2
 149.7 100.85 174 92.5 202.75 92.5 c 0
 269.1 92.5 361.05 137.2 361.05 137.2 c 1
 361.05 251.15 l 1
 198.55 239 l 2
 159.4 235.35 149.7 207.4 149.7 181 c 2
 149.7 146.4 l 2
33.7002 131.95 m 2
 33.7002 185.95 l 2
 33.7002 264.2 78.4502 327 181.05 327 c 2
 181.05 327 361.05 326 361.05 327 c 2
 361.05 327 362.05 372 361.05 373 c 1
 361.05 431.2 332.55 444.5 286.05 444.5 c 0
 230.5 444.5 114.1 437.4 51.0498 432.85 c 1
 51.0498 507.5 l 1
 121.35 532.05 200.2 540.35 299.2 541 c 0
 402.15 541.65 477.05 500.15 477.05 376.5 c 2
 477.05 0 l 1
 386.7 0 l 1
 361.05 60.5 l 1
 356.6 53.1504 262.25 -7.0498 177.55 -6 c 0
 86 -4.25 33.7002 57.0996 33.7002 131.95 c 2
99.5254 737.5 m 1
 212.025 737.5 l 1
 308.525 601 l 1
 225.525 601 l 1
 99.5254 737.5 l 1
EndSplineSet
AlternateSubs2: "'salt' Access All Alternates in Latin lookup 4-1" agrave.salt
Substitution2: "'smcp' Lowercase to Small Capitals lookup 16-1" agrave.smcp
EndChar

StartChar: aacute
Encoding: 225 225 83
Width: 519
VWidth: 0
Flags: HW
LayerCount: 2
Fore
SplineSet
149.7 146.4 m 2
 149.7 100.85 174 92.5 202.75 92.5 c 0
 269.1 92.5 361.05 137.2 361.05 137.2 c 1
 361.05 251.15 l 1
 198.55 239 l 2
 159.4 235.35 149.7 207.4 149.7 181 c 2
 149.7 146.4 l 2
33.7002 131.95 m 2
 33.7002 185.95 l 2
 33.7002 264.2 78.4502 327 181.05 327 c 2
 181.05 327 361.05 326 361.05 327 c 2
 361.05 327 362.05 372 361.05 373 c 1
 361.05 431.2 332.55 444.5 286.05 444.5 c 0
 230.5 444.5 114.1 437.4 51.0498 432.85 c 1
 51.0498 507.5 l 1
 121.35 532.05 200.2 540.35 299.2 541 c 0
 402.15 541.65 477.05 500.15 477.05 376.5 c 2
 477.05 0 l 1
 386.7 0 l 1
 361.05 60.5 l 1
 356.6 53.1504 262.25 -7.0498 177.55 -6 c 0
 86 -4.25 33.7002 57.0996 33.7002 131.95 c 2
222.275 601 m 1
 318.775 737.5 l 1
 431.275 737.5 l 1
 305.275 601 l 1
 222.275 601 l 1
EndSplineSet
AlternateSubs2: "'salt' Access All Alternates in Latin lookup 4-1" aacute.salt
Substitution2: "'smcp' Lowercase to Small Capitals lookup 16-1" aacute.smcp
EndChar

StartChar: acircumflex
Encoding: 226 226 84
Width: 519
VWidth: 0
Flags: HW
LayerCount: 2
Fore
SplineSet
149.7 146.4 m 2
 149.7 100.85 174 92.5 202.75 92.5 c 0
 269.1 92.5 361.05 137.2 361.05 137.2 c 1
 361.05 251.15 l 1
 198.55 239 l 2
 159.4 235.35 149.7 207.4 149.7 181 c 2
 149.7 146.4 l 2
33.7002 131.95 m 2
 33.7002 185.95 l 2
 33.7002 264.2 78.4502 327 181.05 327 c 2
 181.05 327 361.05 326 361.05 327 c 2
 361.05 327 362.05 372 361.05 373 c 1
 361.05 431.2 332.55 444.5 286.05 444.5 c 0
 230.5 444.5 114.1 437.4 51.0498 432.85 c 1
 51.0498 507.5 l 1
 121.35 532.05 200.2 540.35 299.2 541 c 0
 402.15 541.65 477.05 500.15 477.05 376.5 c 2
 477.05 0 l 1
 386.7 0 l 1
 361.05 60.5 l 1
 356.6 53.1504 262.25 -7.0498 177.55 -6 c 0
 86 -4.25 33.7002 57.0996 33.7002 131.95 c 2
113.5 601 m 1
 224.55 734.5 l 1
 316.55 734.5 l 1
 416 601 l 1
 331 601 l 1
 267.7 665 l 1
 199.5 601 l 1
 113.5 601 l 1
EndSplineSet
AlternateSubs2: "'salt' Access All Alternates in Latin lookup 4-1" acircumflex.salt
Substitution2: "'smcp' Lowercase to Small Capitals lookup 16-1" acircumflex.smcp
EndChar

StartChar: atilde
Encoding: 227 227 85
Width: 519
VWidth: 0
Flags: HW
LayerCount: 2
Fore
SplineSet
149.7 146.4 m 2
 149.7 100.85 174 92.5 202.75 92.5 c 0
 269.1 92.5 361.05 137.2 361.05 137.2 c 1
 361.05 251.15 l 1
 198.55 239 l 2
 159.4 235.35 149.7 207.4 149.7 181 c 2
 149.7 146.4 l 2
33.7002 131.95 m 2
 33.7002 185.95 l 2
 33.7002 264.2 78.4502 327 181.05 327 c 2
 181.05 327 361.05 326 361.05 327 c 2
 361.05 327 362.05 372 361.05 373 c 1
 361.05 431.2 332.55 444.5 286.05 444.5 c 0
 230.5 444.5 114.1 437.4 51.0498 432.85 c 1
 51.0498 507.5 l 1
 121.35 532.05 200.2 540.35 299.2 541 c 0
 402.15 541.65 477.05 500.15 477.05 376.5 c 2
 477.05 0 l 1
 386.7 0 l 1
 361.05 60.5 l 1
 356.6 53.1504 262.25 -7.0498 177.55 -6 c 0
 86 -4.25 33.7002 57.0996 33.7002 131.95 c 2
90.75 651.1 m 1
 125.5 685.15 164.25 718.6 210.5 718.6 c 1
 258.4 716.65 284.95 684.25 317.15 683.6 c 0
 346.75 682.25 380.35 701.9 408.85 721 c 1
 432.25 667.8 l 1
 403.1 640 363.45 600.35 318.3 601.65 c 0
 266.85 603.6 245.2 636.65 208.15 636 c 0
 165.9 635.35 148.75 618.5 113.85 601 c 1
 90.75 651.1 l 1
EndSplineSet
AlternateSubs2: "'salt' Access All Alternates in Latin lookup 4-1" atilde.salt
Substitution2: "'smcp' Lowercase to Small Capitals lookup 16-1" atilde.smcp
EndChar

StartChar: adieresis
Encoding: 228 228 86
Width: 519
VWidth: 0
Flags: HW
LayerCount: 2
Fore
SplineSet
149.7 146.4 m 2
 149.7 100.85 174 92.5 202.75 92.5 c 0
 269.1 92.5 361.05 137.2 361.05 137.2 c 1
 361.05 251.15 l 1
 198.55 239 l 2
 159.4 235.35 149.7 207.4 149.7 181 c 2
 149.7 146.4 l 2
33.7002 131.95 m 2
 33.7002 185.95 l 2
 33.7002 264.2 78.4502 327 181.05 327 c 2
 181.05 327 361.05 326 361.05 327 c 2
 361.05 327 362.05 372 361.05 373 c 1
 361.05 431.2 332.55 444.5 286.05 444.5 c 0
 230.5 444.5 114.1 437.4 51.0498 432.85 c 1
 51.0498 507.5 l 1
 121.35 532.05 200.2 540.35 299.2 541 c 0
 402.15 541.65 477.05 500.15 477.05 376.5 c 2
 477.05 0 l 1
 386.7 0 l 1
 361.05 60.5 l 1
 356.6 53.1504 262.25 -7.0498 177.55 -6 c 0
 86 -4.25 33.7002 57.0996 33.7002 131.95 c 2
335.426 657.261 m 0
 335.426 688.061 360.876 712.511 391.676 712.511 c 0
 422.477 712.511 446.926 688.061 446.926 657.261 c 0
 446.926 626.461 422.477 601.011 391.676 601.011 c 0
 360.876 601.011 335.426 626.461 335.426 657.261 c 0
80.4258 657.261 m 0
 80.4258 688.061 105.876 712.511 136.676 712.511 c 0
 167.477 712.511 191.926 688.061 191.926 657.261 c 0
 191.926 626.461 167.477 601.011 136.676 601.011 c 0
 105.876 601.011 80.4258 626.461 80.4258 657.261 c 0
EndSplineSet
AlternateSubs2: "'salt' Access All Alternates in Latin lookup 4-1" adieresis.salt
Substitution2: "'smcp' Lowercase to Small Capitals lookup 16-1" adieresis.smcp
EndChar

StartChar: aring
Encoding: 229 229 87
Width: 519
VWidth: 0
Flags: HW
LayerCount: 2
Fore
SplineSet
149.7 146.4 m 2
 149.7 100.85 174 92.5 202.75 92.5 c 0
 269.1 92.5 361.05 137.2 361.05 137.2 c 1
 361.05 251.15 l 1
 198.55 239 l 2
 159.4 235.35 149.7 207.4 149.7 181 c 2
 149.7 146.4 l 2
33.7002 131.95 m 2
 33.7002 185.95 l 2
 33.7002 264.2 78.4502 327 181.05 327 c 2
 181.05 327 361.05 326 361.05 327 c 2
 361.05 327 362.05 372 361.05 373 c 1
 361.05 431.2 332.55 444.5 286.05 444.5 c 0
 230.5 444.5 114.1 437.4 51.0498 432.85 c 1
 51.0498 507.5 l 1
 121.35 532.05 200.2 540.35 299.2 541 c 0
 402.15 541.65 477.05 500.15 477.05 376.5 c 2
 477.05 0 l 1
 386.7 0 l 1
 361.05 60.5 l 1
 356.6 53.1504 262.25 -7.0498 177.55 -6 c 0
 86 -4.25 33.7002 57.0996 33.7002 131.95 c 2
217.975 683.5 m 0
 217.975 657.35 239.475 636.85 265.625 636.85 c 0
 291.775 636.85 312.275 657.35 312.275 683.5 c 0
 312.275 709.65 291.775 731.15 265.625 731.15 c 0
 239.475 731.15 217.975 709.65 217.975 683.5 c 0
163.625 683.5 m 0
 163.625 740.5 209.625 786.5 265.625 786.5 c 0
 321.625 786.5 366.625 740.5 366.625 683.5 c 0
 366.625 626.5 321.625 581.5 265.625 581.5 c 0
 209.625 581.5 163.625 626.5 163.625 683.5 c 0
EndSplineSet
AlternateSubs2: "'salt' Access All Alternates in Latin lookup 4-1" aring.salt
Substitution2: "'smcp' Lowercase to Small Capitals lookup 16-1" aring.smcp
EndChar

StartChar: ae
Encoding: 230 230 88
Width: 853
VWidth: 0
Flags: HW
LayerCount: 2
Fore
SplineSet
486.45 313.1 m 1
 652 313.1 l 2
 686.55 313.1 703.45 328.05 703.45 356.15 c 0
 703.45 437 689.75 443.9 607.65 443.9 c 0
 519.5 443.9 485.75 445 486.45 313.1 c 1
149.7 148.55 m 2
 149.7 103 174 96.4 202.75 96.4 c 0
 269.1 96.4 361.05 141.1 361.05 141.1 c 1
 361.05 241.8 l 1
 198.55 229.65 l 2
 159.4 226 149.7 198.05 149.7 171.65 c 2
 149.7 148.55 l 2
33.7 135.85 m 2
 33.7 172.7 l 2
 33.7 250.95 78.45 313.75 181.05 313.75 c 2
 181.05 313.75 361.05 312.75 361.05 313.75 c 2
 361.05 313.75 362.05 375.9 361.05 376.9 c 1
 361.05 435.1 332.55 448.4 286.05 448.4 c 0
 225.25 448.4 116.05 440.95 51.05 436.4 c 1
 51.05 511.4 l 1
 118.1 537.25 200.2 544.25 299.2 544.9 c 0
 353.25 544.85 405.2 530.35 434.25 496.7 c 1
 473.7 532.3 527.35 538.9 602.1 538.9 c 0
 745.3 538.9 819.45 521.3 819.45 351.6 c 0
 819.45 263.4 771.1 226.1 675.1 226.1 c 2
 486.45 226.1 l 1
 486.45 119.65 517.85 97.05 594.45 97.05 c 0
 679.45 97.05 734.45 96.4 809.45 107.4 c 1
 809.45 26.9 l 1
 732.3 0.75 628.45 -1.1 545.45 -1.1 c 0
 465.1 -1.1 429.9 25.15 397.05 68.2 c 1
 389.45 53.85 259.1 -2.8 177.55 -2.1 c 0
 86 -0.35 33.7 61 33.7 135.85 c 2
EndSplineSet
Substitution2: "'smcp' Lowercase to Small Capitals lookup 16-1" ae.smcp
EndChar

StartChar: ccedilla
Encoding: 231 231 89
Width: 496
VWidth: 0
Flags: HW
LayerCount: 2
Fore
SplineSet
164.15 -125.15 m 1
 211.55 -110.15 l 1
 239.55 -98.15 242.15 -75.35 242.15 -37.35 c 1
 326.65 -37.35 l 1
 326.65 -139.35 302.85 -176.85 218.65 -176.85 c 2
 164.15 -176.85 l 1
 164.15 -125.15 l 1
42.3 266 m 0
 42.3 489.6 115.3 537.3 217.3 537.3 c 0
 269.3 537.3 374.6 529.3 455.8 506.5 c 1
 455.8 431.5 l 1
 455.8 431.5 344.45 438.8 255.45 438.8 c 0
 192.65 438.8 158.3 431.05 158.3 262.7 c 0
 158.3 120.55 183.45 92.2 255.45 92.2 c 0
 347.45 92.2 462.8 102.15 462.8 102.15 c 1
 462.8 25.85 l 1
 383.9 -7.65 300.3 -5.3 217.3 -6.3 c 1
 118.3 -6.3 42.3 41.75 42.3 266 c 0
EndSplineSet
Substitution2: "'smcp' Lowercase to Small Capitals lookup 16-1" ccedilla.smcp
EndChar

StartChar: egrave
Encoding: 232 232 90
Width: 525
VWidth: 0
Flags: HW
LayerCount: 2
Fore
SplineSet
158.3 305 m 1
 324.2 305 l 2
 358.75 305 375.3 319.95 375.3 348.05 c 0
 375.3 428.9 361.95 440 279.85 440 c 0
 191.7 440 157.6 436.9 158.3 305 c 1
42.2998 268 m 0
 42.2998 499.4 107.5 535 274.3 535 c 0
 417.5 535 491.3 519.5 491.3 343.5 c 0
 491.3 255.3 443.3 214.5 347.3 214.5 c 2
 158.3 214.5 l 1
 158.3 108.05 189.7 93.1504 266.3 93.1504 c 0
 351.3 93.1504 406.3 92.5 481.3 103.5 c 1
 481.3 23 l 1
 404.15 -3.15039 300.3 -5 217.3 -5 c 0
 82.2998 -5 42.2998 68.4004 42.2998 268 c 0
109.25 732.5 m 1
 221.75 732.5 l 1
 318.25 596 l 1
 235.25 596 l 1
 109.25 732.5 l 1
EndSplineSet
Substitution2: "'smcp' Lowercase to Small Capitals lookup 16-1" egrave.smcp
EndChar

StartChar: eacute
Encoding: 233 233 91
Width: 525
VWidth: 0
Flags: HW
LayerCount: 2
Fore
SplineSet
158.3 305 m 1
 324.2 305 l 2
 358.75 305 375.3 319.95 375.3 348.05 c 0
 375.3 428.9 361.95 440 279.85 440 c 0
 191.7 440 157.6 436.9 158.3 305 c 1
42.2998 268 m 0
 42.2998 499.4 107.5 535 274.3 535 c 0
 417.5 535 491.3 519.5 491.3 343.5 c 0
 491.3 255.3 443.3 214.5 347.3 214.5 c 2
 158.3 214.5 l 1
 158.3 108.05 189.7 93.1504 266.3 93.1504 c 0
 351.3 93.1504 406.3 92.5 481.3 103.5 c 1
 481.3 23 l 1
 404.15 -3.15039 300.3 -5 217.3 -5 c 0
 82.2998 -5 42.2998 68.4004 42.2998 268 c 0
228.75 596 m 1
 325.25 732.5 l 1
 437.75 732.5 l 1
 311.75 596 l 1
 228.75 596 l 1
EndSplineSet
Substitution2: "'smcp' Lowercase to Small Capitals lookup 16-1" eacute.smcp
EndChar

StartChar: ecircumflex
Encoding: 234 234 92
Width: 525
VWidth: 0
Flags: HW
LayerCount: 2
Fore
SplineSet
158.3 305 m 1
 324.2 305 l 2
 358.75 305 375.3 319.95 375.3 348.05 c 0
 375.3 428.9 361.95 440 279.85 440 c 0
 191.7 440 157.6 436.9 158.3 305 c 1
42.2998 268 m 0
 42.2998 499.4 107.5 535 274.3 535 c 0
 417.5 535 491.3 519.5 491.3 343.5 c 0
 491.3 255.3 443.3 214.5 347.3 214.5 c 2
 158.3 214.5 l 1
 158.3 108.05 189.7 93.1504 266.3 93.1504 c 0
 351.3 93.1504 406.3 92.5 481.3 103.5 c 1
 481.3 23 l 1
 404.15 -3.15039 300.3 -5 217.3 -5 c 0
 82.2998 -5 42.2998 68.4004 42.2998 268 c 0
117.85 596 m 1
 228.9 729.5 l 1
 320.9 729.5 l 1
 420.35 596 l 1
 335.35 596 l 1
 272.05 660 l 1
 203.85 596 l 1
 117.85 596 l 1
EndSplineSet
Substitution2: "'smcp' Lowercase to Small Capitals lookup 16-1" ecircumflex.smcp
EndChar

StartChar: edieresis
Encoding: 235 235 93
Width: 525
VWidth: 0
Flags: HW
LayerCount: 2
Fore
SplineSet
158.3 305 m 1
 324.2 305 l 2
 358.75 305 375.3 319.95 375.3 348.05 c 0
 375.3 428.9 361.95 440 279.85 440 c 0
 191.7 440 157.6 436.9 158.3 305 c 1
42.2998 268 m 0
 42.2998 499.4 107.5 535 274.3 535 c 0
 417.5 535 491.3 519.5 491.3 343.5 c 0
 491.3 255.3 443.3 214.5 347.3 214.5 c 2
 158.3 214.5 l 1
 158.3 108.05 189.7 93.1504 266.3 93.1504 c 0
 351.3 93.1504 406.3 92.5 481.3 103.5 c 1
 481.3 23 l 1
 404.15 -3.15039 300.3 -5 217.3 -5 c 0
 82.2998 -5 42.2998 68.4004 42.2998 268 c 0
338.9 652.25 m 0
 338.9 683.05 364.35 707.5 395.15 707.5 c 0
 425.95 707.5 450.4 683.05 450.4 652.25 c 0
 450.4 621.45 425.95 596 395.15 596 c 0
 364.35 596 338.9 621.45 338.9 652.25 c 0
83.9004 652.25 m 0
 83.9004 683.05 109.35 707.5 140.15 707.5 c 0
 170.95 707.5 195.4 683.05 195.4 652.25 c 0
 195.4 621.45 170.95 596 140.15 596 c 0
 109.35 596 83.9004 621.45 83.9004 652.25 c 0
EndSplineSet
Substitution2: "'smcp' Lowercase to Small Capitals lookup 16-1" edieresis.smcp
EndChar

StartChar: igrave
Encoding: 236 236 94
Width: 217
VWidth: 0
Flags: HW
LayerCount: 2
Fore
SplineSet
50.9004 0 m 1
 50.9004 531 l 1
 166.9 531 l 1
 166.9 0 l 1
 50.9004 0 l 1
-58.5996 732.5 m 1
 53.9004 732.5 l 1
 150.4 596 l 1
 67.4004 596 l 1
 -58.5996 732.5 l 1
EndSplineSet
Substitution2: "'smcp' Lowercase to Small Capitals lookup 16-1" igrave.smcp
EndChar

StartChar: iacute
Encoding: 237 237 95
Width: 217
VWidth: 0
Flags: HW
LayerCount: 2
Fore
SplineSet
50.9004 0 m 1
 50.9004 531 l 1
 166.9 531 l 1
 166.9 0 l 1
 50.9004 0 l 1
67.4004 596 m 1
 163.9 732.5 l 1
 276.4 732.5 l 1
 150.4 596 l 1
 67.4004 596 l 1
EndSplineSet
Substitution2: "'smcp' Lowercase to Small Capitals lookup 16-1" iacute.smcp
EndChar

StartChar: icircumflex
Encoding: 238 238 96
Width: 217
VWidth: 0
Flags: HW
LayerCount: 2
Fore
SplineSet
50.9004 0 m 1
 50.9004 531 l 1
 166.9 531 l 1
 166.9 0 l 1
 50.9004 0 l 1
-42.3496 596 m 1
 68.7002 729.5 l 1
 160.7 729.5 l 1
 260.15 596 l 1
 175.15 596 l 1
 111.85 660 l 1
 43.6504 596 l 1
 -42.3496 596 l 1
EndSplineSet
Substitution2: "'smcp' Lowercase to Small Capitals lookup 16-1" icircumflex.smcp
EndChar

StartChar: idieresis
Encoding: 239 239 97
Width: 217
VWidth: 0
Flags: HW
LayerCount: 2
Fore
SplineSet
50.9004 0 m 1
 50.9004 531 l 1
 166.9 531 l 1
 166.9 0 l 1
 50.9004 0 l 1
180.65 652.25 m 0
 180.65 683.05 206.1 707.5 236.9 707.5 c 0
 267.7 707.5 292.15 683.05 292.15 652.25 c 0
 292.15 621.45 267.7 596 236.9 596 c 0
 206.1 596 180.65 621.45 180.65 652.25 c 0
-74.3496 652.25 m 0
 -74.3496 683.05 -48.9004 707.5 -18.0996 707.5 c 0
 12.7002 707.5 37.1504 683.05 37.1504 652.25 c 0
 37.1504 621.45 12.7002 596 -18.0996 596 c 0
 -48.9004 596 -74.3496 621.45 -74.3496 652.25 c 0
EndSplineSet
Substitution2: "'smcp' Lowercase to Small Capitals lookup 16-1" idieresis.smcp
EndChar

StartChar: eth
Encoding: 240 240 98
Width: 539
VWidth: 0
Flags: HW
LayerCount: 2
Fore
SplineSet
149.7 264 m 0
 149.7 122.45 179.6 111 232 111 c 2
 306.8 111 l 2
 376.05 111 389.7 159.3 389.7 264 c 0
 389.7 392.3 375.4 422 306.8 422 c 2
 232 422 l 2
 177.2 422 149.7 397.9 149.7 264 c 0
33.7 264 m 0
 33.7 434 82.3 531 217.3 531 c 2
 289.3 531 l 2
 295.3 531 346.7 531 362.8 519.5 c 1
 350.55 560.25 330.35 599.45 299.3 629.1 c 1
 174.25 573.9 l 1
 147.45 632.5 l 1
 233 669.5 l 1
 193.5 686.2 146.65 688.15 105.8 686.5 c 1
 105.8 783 l 1
 212.5 783 287.3 763.3 344.55 723.3 c 1
 446.45 767.85 l 1
 473.9 709.25 l 1
 397.95 676.4 l 1
 491.65 566.7 505.7 393.25 505.7 264 c 0
 505.7 65 427.8 0 320.8 0 c 2
 217.3 0 l 2
 80.3 0 33.7 85 33.7 264 c 0
EndSplineSet
Substitution2: "'smcp' Lowercase to Small Capitals lookup 16-1" eth.smcp
EndChar

StartChar: ograve
Encoding: 242 242 99
Width: 563
VWidth: 0
Flags: HW
LayerCount: 2
Fore
SplineSet
158.3 258 m 0
 158.3 106.2 196.75 93.5 281.55 93.5 c 0
 371 93.5 404.8 105.4 404.8 258 c 0
 404.8 421.75 377.2 437.5 281.55 437.5 c 0
 188.1 437.5 158.3 422.05 158.3 258 c 0
42.2998 258 m 0
 42.2998 475 104.05 536 281.55 536 c 0
 463 536 520.8 469 520.8 258 c 0
 520.8 61 464.75 -5 281.55 -5 c 0
 99.75 -5 42.2998 68 42.2998 258 c 0
120.55 732.5 m 1
 233.05 732.5 l 1
 329.55 596 l 1
 246.55 596 l 1
 120.55 732.5 l 1
EndSplineSet
Substitution2: "'smcp' Lowercase to Small Capitals lookup 16-1" ograve.smcp
EndChar

StartChar: oacute
Encoding: 243 243 100
Width: 563
VWidth: 0
Flags: HW
LayerCount: 2
Fore
SplineSet
158.3 258 m 0
 158.3 106.2 196.75 93.5 281.55 93.5 c 0
 371 93.5 404.8 105.4 404.8 258 c 0
 404.8 421.75 377.2 437.5 281.55 437.5 c 0
 188.1 437.5 158.3 422.05 158.3 258 c 0
42.2998 258 m 0
 42.2998 475 104.05 536 281.55 536 c 0
 463 536 520.8 469 520.8 258 c 0
 520.8 61 464.75 -5 281.55 -5 c 0
 99.75 -5 42.2998 68 42.2998 258 c 0
240.05 596 m 1
 336.55 732.5 l 1
 449.05 732.5 l 1
 323.05 596 l 1
 240.05 596 l 1
EndSplineSet
Substitution2: "'smcp' Lowercase to Small Capitals lookup 16-1" oacute.smcp
EndChar

StartChar: ocircumflex
Encoding: 244 244 101
Width: 563
VWidth: 0
Flags: HW
LayerCount: 2
Fore
SplineSet
158.3 258 m 0
 158.3 106.2 196.75 93.5 281.55 93.5 c 0
 371 93.5 404.8 105.4 404.8 258 c 0
 404.8 421.75 377.2 437.5 281.55 437.5 c 0
 188.1 437.5 158.3 422.05 158.3 258 c 0
42.2998 258 m 0
 42.2998 475 104.05 536 281.55 536 c 0
 463 536 520.8 469 520.8 258 c 0
 520.8 61 464.75 -5 281.55 -5 c 0
 99.75 -5 42.2998 68 42.2998 258 c 0
133.55 596 m 1
 244.6 729.5 l 1
 336.6 729.5 l 1
 436.05 596 l 1
 351.05 596 l 1
 287.75 660 l 1
 219.55 596 l 1
 133.55 596 l 1
EndSplineSet
Substitution2: "'smcp' Lowercase to Small Capitals lookup 16-1" ocircumflex.smcp
EndChar

StartChar: otilde
Encoding: 245 245 102
Width: 563
VWidth: 0
Flags: HW
LayerCount: 2
Fore
SplineSet
158.3 258 m 0
 158.3 106.2 196.75 93.5 281.55 93.5 c 0
 371 93.5 404.8 105.4 404.8 258 c 0
 404.8 421.75 377.2 437.5 281.55 437.5 c 0
 188.1 437.5 158.3 422.05 158.3 258 c 0
42.2998 258 m 0
 42.2998 475 104.05 536 281.55 536 c 0
 463 536 520.8 469 520.8 258 c 0
 520.8 61 464.75 -5 281.55 -5 c 0
 99.75 -5 42.2998 68 42.2998 258 c 0
116.65 646.1 m 1
 151.4 680.15 190.15 713.6 236.4 713.6 c 1
 284.3 711.65 310.85 679.25 343.05 678.6 c 0
 372.65 677.25 406.25 696.9 434.75 716 c 1
 458.15 662.8 l 1
 429 635 389.35 595.35 344.2 596.65 c 0
 292.75 598.6 271.1 631.65 234.05 631 c 0
 191.8 630.35 174.65 613.5 139.75 596 c 1
 116.65 646.1 l 1
EndSplineSet
Substitution2: "'smcp' Lowercase to Small Capitals lookup 16-1" otilde.smcp
EndChar

StartChar: odieresis
Encoding: 246 246 103
Width: 563
VWidth: 0
Flags: HW
LayerCount: 2
Fore
SplineSet
158.3 258 m 0
 158.3 106.2 196.75 93.5 281.55 93.5 c 0
 371 93.5 404.8 105.4 404.8 258 c 0
 404.8 421.75 377.2 437.5 281.55 437.5 c 0
 188.1 437.5 158.3 422.05 158.3 258 c 0
42.2998 258 m 0
 42.2998 475 104.05 536 281.55 536 c 0
 463 536 520.8 469 520.8 258 c 0
 520.8 61 464.75 -5 281.55 -5 c 0
 99.75 -5 42.2998 68 42.2998 258 c 0
353.95 652.25 m 0
 353.95 683.05 379.4 707.5 410.2 707.5 c 0
 441 707.5 465.45 683.05 465.45 652.25 c 0
 465.45 621.45 441 596 410.2 596 c 0
 379.4 596 353.95 621.45 353.95 652.25 c 0
98.9502 652.25 m 0
 98.9502 683.05 124.4 707.5 155.2 707.5 c 0
 186 707.5 210.45 683.05 210.45 652.25 c 0
 210.45 621.45 186 596 155.2 596 c 0
 124.4 596 98.9502 621.45 98.9502 652.25 c 0
EndSplineSet
Substitution2: "'smcp' Lowercase to Small Capitals lookup 16-1" odieresis.smcp
EndChar

StartChar: ntilde
Encoding: 241 241 104
Width: 547
VWidth: 0
Flags: HW
LayerCount: 2
Fore
SplineSet
50.9004 0 m 1
 50.9004 531 l 1
 141.4 531 l 1
 166.9 472.5 l 1
 218.1 506.1 264.4 540 345.4 540 c 0
 462.6 540 505.9 455.9 505.9 359.5 c 2
 505.9 0 l 1
 389.9 0 l 1
 389.9 360.9 l 2
 389.9 418.5 360.7 441.5 319.85 441.5 c 0
 254.9 441.5 221.15 425 166.9 391.5 c 1
 166.9 0 l 1
 50.9004 0 l 1
107.65 650.1 m 1
 142.4 684.15 181.15 717.6 227.4 717.6 c 1
 275.3 715.65 301.85 683.25 334.05 682.6 c 0
 363.65 681.25 397.25 700.9 425.75 720 c 1
 449.15 666.8 l 1
 420 639 380.35 599.35 335.2 600.65 c 0
 283.75 602.6 262.1 635.65 225.05 635 c 0
 182.8 634.35 165.65 617.5 130.75 600 c 1
 107.65 650.1 l 1
EndSplineSet
AlternateSubs2: "'salt' Access All Alternates in Latin lookup 4-1" ntilde.salt
Substitution2: "'smcp' Lowercase to Small Capitals lookup 16-1" ntilde.smcp
EndChar

StartChar: oslash
Encoding: 248 248 105
Width: 576
VWidth: 0
Flags: HW
LayerCount: 2
Fore
SplineSet
202.55 113.2 m 1
 221.9 95.85 250.85 93.5 288.55 93.5 c 0
 378 93.5 411.8 105.4 411.8 258 c 0
 411.8 312.15 407.25 346.15 396.2 368.1 c 1
 202.55 113.2 l 1
165.3 258 m 0
 165.3 217.65 169.85 189.65 178.3 170.75 c 1
 368.05 422.7 l 1
 350 434.8 324.3 437.5 288.55 437.5 c 0
 195.1 437.5 165.3 422.05 165.3 258 c 0
49.3 258 m 0
 49.3 475 111.05 536 288.55 536 c 0
 351.7 536 399.8 528.3 435.85 508.9 c 1
 453.3 531 l 1
 526.3 531 l 1
 479.95 471.7 l 1
 514.5 428.35 527.8 360.1 527.8 258 c 0
 527.8 61 471.75 -5 288.55 -5 c 0
 220.85 -5 170.45 5 133.75 27 c 1
 112.7 0 l 1
 42.95 0 l 1
 92.9 64.85 l 1
 61.3 106.85 49.3 169.8 49.3 258 c 0
EndSplineSet
Substitution2: "'smcp' Lowercase to Small Capitals lookup 16-1" oslash.smcp
EndChar

StartChar: thorn
Encoding: 254 254 106
Width: 555
VWidth: 0
Flags: HW
LayerCount: 2
Fore
SplineSet
175.15 106.5 m 1
 231.95 87.7 281.45 86.95 324.65 85 c 1
 374.1 85 405.7 115.9 405.7 262.7 c 0
 405.7 382.1 375.1 433.45 324.65 433.45 c 1
 271.55 430.85 218.95 414.8 175.15 393.25 c 1
 175.15 106.5 l 1
59.15 -270 m 1
 59.15 782 l 1
 175.15 782 l 1
 175.15 472.4 l 1
 205.7 496.3 282.9 536.5 347.75 536.5 c 0
 477.8 536.5 521.7 419.8 521.7 264.9 c 0
 521.7 119 498.25 -11.75 347.75 -11.75 c 0
 302.75 -11.75 229 0.55 175.15 25.5 c 1
 175.15 -270 l 1
 59.15 -270 l 1
EndSplineSet
Substitution2: "'smcp' Lowercase to Small Capitals lookup 16-1" thorn.smcp
EndChar

StartChar: ugrave
Encoding: 249 249 107
Width: 547
VWidth: 0
Flags: HW
LayerCount: 2
Fore
SplineSet
42.2998 171.5 m 2
 42.2998 531 l 1
 158.3 531 l 1
 158.3 170.1 l 2
 158.3 112.5 187.5 89.5 228.35 89.5 c 0
 293.3 89.5 327.05 106 381.3 139.5 c 1
 381.3 531 l 1
 497.3 531 l 1
 497.3 0 l 1
 406.8 0 l 1
 381.3 58.5 l 1
 325.55 25.5996 283.8 -9 202.8 -9 c 0
 85.5996 -9 42.2998 75.0996 42.2998 171.5 c 2
108.8 732.5 m 1
 221.3 732.5 l 1
 317.8 596 l 1
 234.8 596 l 1
 108.8 732.5 l 1
EndSplineSet
AlternateSubs2: "'salt' Access All Alternates in Latin lookup 4-1" ugrave.salt
Substitution2: "'smcp' Lowercase to Small Capitals lookup 16-1" ugrave.smcp
EndChar

StartChar: uacute
Encoding: 250 250 108
Width: 547
VWidth: 0
Flags: HW
LayerCount: 2
Fore
SplineSet
42.2998 171.5 m 2
 42.2998 531 l 1
 158.3 531 l 1
 158.3 170.1 l 2
 158.3 112.5 187.5 89.5 228.35 89.5 c 0
 293.3 89.5 327.05 106 381.3 139.5 c 1
 381.3 531 l 1
 497.3 531 l 1
 497.3 0 l 1
 406.8 0 l 1
 381.3 58.5 l 1
 325.55 25.5996 283.8 -9 202.8 -9 c 0
 85.5996 -9 42.2998 75.0996 42.2998 171.5 c 2
228.3 596 m 1
 324.8 732.5 l 1
 437.3 732.5 l 1
 311.3 596 l 1
 228.3 596 l 1
EndSplineSet
AlternateSubs2: "'salt' Access All Alternates in Latin lookup 4-1" uacute.salt
Substitution2: "'smcp' Lowercase to Small Capitals lookup 16-1" uacute.smcp
EndChar

StartChar: ucircumflex
Encoding: 251 251 109
Width: 547
VWidth: 0
Flags: HW
LayerCount: 2
Fore
SplineSet
42.2998 171.5 m 2
 42.2998 531 l 1
 158.3 531 l 1
 158.3 170.1 l 2
 158.3 112.5 187.5 89.5 228.35 89.5 c 0
 293.3 89.5 327.05 106 381.3 139.5 c 1
 381.3 531 l 1
 497.3 531 l 1
 497.3 0 l 1
 406.8 0 l 1
 381.3 58.5 l 1
 325.55 25.5996 283.8 -9 202.8 -9 c 0
 85.5996 -9 42.2998 75.0996 42.2998 171.5 c 2
118.55 596 m 1
 229.6 729.5 l 1
 321.6 729.5 l 1
 421.05 596 l 1
 336.05 596 l 1
 272.75 660 l 1
 204.55 596 l 1
 118.55 596 l 1
EndSplineSet
AlternateSubs2: "'salt' Access All Alternates in Latin lookup 4-1" ucircumflex.salt
Substitution2: "'smcp' Lowercase to Small Capitals lookup 16-1" ucircumflex.smcp
EndChar

StartChar: udieresis
Encoding: 252 252 110
Width: 547
VWidth: 0
Flags: HW
LayerCount: 2
Fore
SplineSet
42.2998 171.5 m 2
 42.2998 531 l 1
 158.3 531 l 1
 158.3 170.1 l 2
 158.3 112.5 187.5 89.5 228.35 89.5 c 0
 293.3 89.5 327.05 106 381.3 139.5 c 1
 381.3 531 l 1
 497.3 531 l 1
 497.3 0 l 1
 406.8 0 l 1
 381.3 58.5 l 1
 325.55 25.5996 283.8 -9 202.8 -9 c 0
 85.5996 -9 42.2998 75.0996 42.2998 171.5 c 2
341.55 652.25 m 0
 341.55 683.05 367 707.5 397.8 707.5 c 0
 428.6 707.5 453.05 683.05 453.05 652.25 c 0
 453.05 621.45 428.6 596 397.8 596 c 0
 367 596 341.55 621.45 341.55 652.25 c 0
86.5498 652.25 m 0
 86.5498 683.05 112 707.5 142.8 707.5 c 0
 173.6 707.5 198.05 683.05 198.05 652.25 c 0
 198.05 621.45 173.6 596 142.8 596 c 0
 112 596 86.5498 621.45 86.5498 652.25 c 0
EndSplineSet
AlternateSubs2: "'salt' Access All Alternates in Latin lookup 4-1" udieresis.salt
Substitution2: "'smcp' Lowercase to Small Capitals lookup 16-1" udieresis.smcp
EndChar

StartChar: yacute
Encoding: 253 253 111
Width: 569
VWidth: 0
Flags: HW
LayerCount: 2
Fore
SplineSet
17.8496 531 m 1
 140.85 531 l 1
 246.05 143.65 l 2
 259.85 95.75 299.05 105 304 104.65 c 1
 426.95 531 l 1
 549.85 531 l 1
 347.7 -168 l 1
 274.1 -270 l 1
 193.8 -270 l 1
 275.55 0 l 1
 220.95 0 159.85 24.4004 131.4 126.1 c 2
 17.8496 531 l 1
242.35 596 m 1
 338.85 732.5 l 1
 451.35 732.5 l 1
 325.35 596 l 1
 242.35 596 l 1
EndSplineSet
Substitution2: "'smcp' Lowercase to Small Capitals lookup 16-1" yacute.smcp
EndChar

StartChar: ydieresis
Encoding: 255 255 112
Width: 569
VWidth: 0
Flags: HW
LayerCount: 2
Fore
SplineSet
17.8496 531 m 1
 140.85 531 l 1
 246.05 143.65 l 2
 259.85 95.75 299.05 105 304 104.65 c 1
 426.95 531 l 1
 549.85 531 l 1
 347.7 -168 l 1
 274.1 -270 l 1
 193.8 -270 l 1
 275.55 0 l 1
 220.95 0 159.85 24.4004 131.4 126.1 c 2
 17.8496 531 l 1
355.6 652.25 m 0
 355.6 683.05 381.05 707.5 411.85 707.5 c 0
 442.65 707.5 467.1 683.05 467.1 652.25 c 0
 467.1 621.45 442.65 596 411.85 596 c 0
 381.05 596 355.6 621.45 355.6 652.25 c 0
100.6 652.25 m 0
 100.6 683.05 126.05 707.5 156.85 707.5 c 0
 187.65 707.5 212.1 683.05 212.1 652.25 c 0
 212.1 621.45 187.65 596 156.85 596 c 0
 126.05 596 100.6 621.45 100.6 652.25 c 0
EndSplineSet
Substitution2: "'smcp' Lowercase to Small Capitals lookup 16-1" ydieresis.smcp
EndChar

StartChar: Thorn
Encoding: 222 222 113
Width: 550
VWidth: 0
Flags: HW
LayerCount: 2
Fore
SplineSet
166.9 254.5 m 1
 304.4 254.5 l 2
 356.4 253.85 391.4 269.55 391.4 375.25 c 1
 390.1 478.25 341.15 481.85 304.4 481.85 c 2
 166.9 481.85 l 1
 166.9 254.5 l 1
50.9 0 m 1
 50.9 243 50.9 486 50.9 729 c 1
 166.9 729 l 1
 166.9 588 l 1
 332.4 588 l 2
 411.4 587.35 508.4 554 508.4 375 c 0
 508.4 171 406.4 150.05 332.4 149 c 0
 281.85 148.3 265.15 145.05 166.9 168 c 1
 166.9 0 l 1
 50.9 0 l 1
EndSplineSet
Substitution2: "'c2sc' Capitals to Small Capitals in Latin lookup 17 subtable" thorn.smcp
EndChar

StartChar: uni00B5
Encoding: 181 181 114
Width: 590
VWidth: 0
Flags: HW
LayerCount: 2
Fore
SplineSet
76.35 171.5 m 1
 76.35 531 l 1
 192.35 531 l 1
 192.35 170.1 l 2
 192.35 112.5 221.55 89.5 262.4 89.5 c 0
 327.35 89.5 361.1 106 415.35 139.5 c 1
 415.35 531 l 1
 531.35 531 l 1
 531.35 0 l 1
 440.85 0 l 1
 415.35 58.5 l 1
 366.6 29.8 324.85 0.45 263.45 -3.75 c 0
 236.55 -5.5 212.85 -1.05 192.35 8.3 c 1
 192.35 -270 l 1
 76.35 -270 l 1
 76.35 171.5 l 1
EndSplineSet
EndChar

StartChar: germandbls
Encoding: 223 223 115
Width: 571
VWidth: 0
Flags: HW
LayerCount: 2
Fore
SplineSet
50.9 0 m 1
 50.9 566 l 2
 50.9 682 131.2 779.45 284.4 779.45 c 0
 574.5 779.45 561.25 545.7 456.8 446.95 c 0
 410.65 403.1 377.4 385.2 377.4 348 c 0
 377.4 289.4 554.9 311.5 554.9 175.5 c 2
 554.9 139 l 2
 555.55 22.65 464.1 -8 389.9 -8 c 0
 321.9 -8 268.9 4.55 232.65 11 c 1
 232.65 95.85 l 1
 269.85 94.45 320 90.5 369.4 90.5 c 0
 403.45 90.5 437.6 110.2 438.9 150.2 c 1
 438.9 182.85 l 2
 438.9 253.55 264.9 218.55 264.9 349.05 c 0
 264.9 413.05 288.35 439.4 365.25 499.4 c 1
 395.85 524.8 409.65 552.95 409.65 588.9 c 0
 409.65 657.9 346.7 671.5 287.9 671.5 c 0
 214.85 671.5 166.9 635.5 166.9 534.5 c 2
 166.9 0 l 1
 50.9 0 l 1
EndSplineSet
Substitution2: "'smcp' Lowercase to Small Capitals lookup 16-1" germandbls.smcp
EndChar

StartChar: asciitilde
Encoding: 126 126 116
Width: 426
VWidth: 0
Flags: HW
LayerCount: 2
Fore
SplineSet
42.3 581.1 m 1
 77.05 615.15 107.35 651.2 161.4 651.2 c 0
 205.4 651.2 227.4 616.2 267.4 616.2 c 0
 306.75 615.5 335.8 637.75 360.4 656.2 c 1
 383.8 603 l 1
 358.55 575.2 322.15 531 269.85 531 c 0
 225.55 531 197.4 566 158.4 566 c 0
 119.4 566 99.65 548.5 65.4 531 c 1
 42.3 581.1 l 1
EndSplineSet
EndChar

StartChar: asciicircum
Encoding: 94 94 117
Width: 387
VWidth: 0
Flags: HW
LayerCount: 2
Fore
SplineSet
42.3 531 m 1
 153.35 664.5 l 1
 245.35 664.5 l 1
 344.8 531 l 1
 259.8 531 l 1
 197.15 595 l 1
 128.3 531 l 1
 42.3 531 l 1
EndSplineSet
EndChar

StartChar: grave
Encoding: 96 96 118
Width: 242
VWidth: 0
Flags: HW
LayerCount: 2
Fore
SplineSet
16.85 667.5 m 1
 129.35 667.5 l 1
 225.85 531 l 1
 142.85 531 l 1
 16.85 667.5 l 1
EndSplineSet
Substitution2: "'smcp' Lowercase to Small Capitals lookup 16-1" grave.smcp
EndChar

StartChar: dieresis
Encoding: 168 168 119
Width: 451
VWidth: 0
Flags: HW
LayerCount: 2
Fore
SplineSet
297.3 582 m 0
 297.3 612.8 322.75 637.25 353.55 637.25 c 0
 384.35 637.25 408.8 612.8 408.8 582 c 0
 408.8 551.2 384.35 525.75 353.55 525.75 c 0
 322.75 525.75 297.3 551.2 297.3 582 c 0
42.3 582 m 0
 42.3 612.8 67.75 637.25 98.55 637.25 c 0
 129.35 637.25 153.8 612.8 153.8 582 c 0
 153.8 551.2 129.35 525.75 98.55 525.75 c 0
 67.75 525.75 42.3 551.2 42.3 582 c 0
EndSplineSet
Substitution2: "'smcp' Lowercase to Small Capitals lookup 16-1" dieresis.smcp
EndChar

StartChar: acute
Encoding: 180 180 120
Width: 242
VWidth: 0
Flags: HW
LayerCount: 2
Fore
SplineSet
16.85 531 m 1
 113.35 667.5 l 1
 225.85 667.5 l 1
 99.85 531 l 1
 16.85 531 l 1
EndSplineSet
Substitution2: "'smcp' Lowercase to Small Capitals lookup 16-1" acute.smcp
EndChar

StartChar: cedilla
Encoding: 184 184 121
Width: 247
VWidth: 0
Flags: HW
LayerCount: 2
Fore
SplineSet
42.3 -124.8 m 1
 89.7 -109.8 l 1
 117.7 -97.8 120.3 -75 120.3 -37 c 1
 204.8 -37 l 1
 204.8 -139 181 -176.5 96.8 -176.5 c 2
 42.3 -176.5 l 1
 42.3 -124.8 l 1
EndSplineSet
EndChar

StartChar: exclam
Encoding: 33 33 122
Width: 271
VWidth: 0
Flags: HW
LayerCount: 2
Fore
SplineSet
73.3 731 m 1
 195.55 731 l 1
 183.65 196 l 1
 83.8 196 l 1
 73.3 731 l 1
72.2 23 m 2
 72.2 101 l 2
 72.2 116 80.2 126 96.2 126 c 2
 172.2 126 l 2
 187.2 126 195.2 115 195.2 101 c 2
 195.2 23 l 2
 195.2 8 186.2 0 172.2 0 c 2
 96.2 0 l 2
 82.2 0 72.2 9 72.2 23 c 2
EndSplineSet
Substitution2: "'smcp' Lowercase to Small Capitals lookup 16-1" exclam.smcp
EndChar

StartChar: degree
Encoding: 176 176 123
Width: 287
VWidth: 0
Flags: HW
LayerCount: 2
Fore
SplineSet
95.95 632 m 0
 95.95 605.5 117.8 584.65 144.3 584.65 c 0
 170.8 584.65 191.65 605.5 191.65 632 c 0
 191.65 658.5 170.8 680.35 144.3 680.35 c 0
 117.8 680.35 95.95 658.5 95.95 632 c 0
42.3 632 m 0
 42.3 689 88.3 735 144.3 735 c 0
 200.3 735 245.3 689 245.3 632 c 0
 245.3 575 200.3 530 144.3 530 c 0
 88.3 530 42.3 575 42.3 632 c 0
EndSplineSet
Substitution2: "'smcp' Lowercase to Small Capitals lookup 16-1" degree.smcp
EndChar

StartChar: period
Encoding: 46 46 124
Width: 266
VWidth: 0
Flags: HW
HStem: 0 126<72.1965 194.92>
VStem: 72.05 123<0.104492 125.884>
LayerCount: 2
Fore
SplineSet
72.05 23 m 2
 72.05 101 l 2
 72.05 116 80.05 126 96.05 126 c 2
 170.05 126 l 2
 188.05 126 195.05 117 195.05 101 c 2
 195.05 23 l 2
 195.05 5 184.05 0 170.05 0 c 2
 96.05 0 l 2
 82.05 0 72.05 9 72.05 23 c 2
EndSplineSet
EndChar

StartChar: periodcentered
Encoding: 183 183 125
Width: 266
VWidth: 0
Flags: HW
LayerCount: 2
Fore
SplineSet
72.05 344.9 m 2
 72.05 422.9 l 2
 72.05 437.9 80.05 447.9 96.05 447.9 c 2
 170.05 447.9 l 2
 188.05 447.9 195.05 438.9 195.05 422.9 c 2
 195.05 344.9 l 2
 195.05 326.9 184.05 321.9 170.05 321.9 c 2
 96.05 321.9 l 2
 82.05 321.9 72.05 330.9 72.05 344.9 c 2
EndSplineSet
Substitution2: "'smcp' Lowercase to Small Capitals lookup 16-1" periodcentered.smcp
EndChar

StartChar: comma
Encoding: 44 44 126
Width: 264
VWidth: 0
Flags: HW
LayerCount: 2
Fore
SplineSet
72.05 25 m 2
 72.05 100 l 2
 72.05 118 81.05 127 97.05 127 c 2
 169.05 127 l 2
 187.05 127 193.05 115 193.05 100 c 2
 193.05 -11 l 2
 193.05 -116.15 77.05 -88 77.05 -88 c 1
 77.05 -45.5 l 1
 107.05 -46.5 108.05 -28.65 108.05 -18 c 2
 108.05 0 l 1
 97.05 0 l 2
 83.05 0 72.05 8 72.05 25 c 2
EndSplineSet
EndChar

StartChar: bullet
Encoding: 256 8226 127
Width: 310
VWidth: 0
Flags: HW
LayerCount: 2
Fore
SplineSet
72.05 328.75 m 2
 72.05 433.25 l 2
 72.05 454.25 83.05 468.25 105.05 468.25 c 2
 203.55 468.25 l 2
 228.55 468.25 238.55 455.25 238.55 433.25 c 2
 238.55 328.75 l 2
 238.55 304.75 223.55 296.75 203.55 296.75 c 2
 105.05 296.75 l 2
 85.05 296.75 72.05 308.75 72.05 328.75 c 2
EndSplineSet
Substitution2: "'smcp' Lowercase to Small Capitals lookup 16-1" bullet.smcp
EndChar

StartChar: quoteleft
Encoding: 257 8216 128
Width: 263
VWidth: 0
Flags: HW
LayerCount: 2
Fore
SplineSet
67.75 531.1 m 2
 67.75 651.45 l 2
 67.75 765.25 189.6 740 189.6 740 c 1
 189.6 692.05 l 1
 157.65 692.7 156.65 670.4 156.65 659.1 c 2
 156.65 635.65 l 1
 168.3 635.65 l 2
 182.95 635.65 195.25 627.65 195.25 609.35 c 2
 195.25 531.1 l 2
 195.25 511.8 185.6 502.15 168.3 502.15 c 2
 93.05 502.15 l 2
 73.75 502.15 67.75 515.45 67.75 531.1 c 2
EndSplineSet
Substitution2: "'smcp' Lowercase to Small Capitals lookup 16-1" quoteleft.smcp
EndChar

StartChar: quoteright
Encoding: 258 8217 129
Width: 263
VWidth: 0
Flags: HW
LayerCount: 2
Fore
SplineSet
67.75 635.5 m 2
 67.75 713.75 l 2
 67.75 733.05 77.4 742.7 94.7 742.7 c 2
 169.95 742.7 l 2
 189.25 742.7 195.25 729.4 195.25 713.75 c 2
 195.25 593.4 l 2
 195.25 479.6 73.4 504.2 73.4 504.2 c 1
 73.4 552.15 l 1
 105.35 551.5 106.35 574.45 106.35 585.75 c 2
 106.35 608.55 l 1
 94.7 608.55 l 2
 80.05 608.55 67.75 617.2 67.75 635.5 c 2
EndSplineSet
Substitution2: "'smcp' Lowercase to Small Capitals lookup 16-1" quoteright.smcp
EndChar

StartChar: quotesinglbase
Encoding: 259 8218 130
Width: 263
VWidth: 0
Flags: HW
LayerCount: 2
Fore
SplineSet
67.75 26.3 m 2
 67.75 104.55 l 2
 67.75 123.85 77.4 133.5 94.7 133.5 c 2
 169.95 133.5 l 2
 189.25 133.5 195.25 120.2 195.25 104.55 c 2
 195.25 -15.8 l 2
 195.25 -130.25 73.4 -105 73.4 -105 c 1
 73.4 -57.05 l 1
 105.35 -57.7 106.35 -34.75 106.35 -23.45 c 2
 106.35 -0.65 l 1
 94.7 -0.65 l 2
 80.05 -0.65 67.75 8 67.75 26.3 c 2
EndSplineSet
Substitution2: "'smcp' Lowercase to Small Capitals lookup 16-1" quotesinglbase.smcp
EndChar

StartChar: quotedblleft
Encoding: 260 8220 131
Width: 422
VWidth: 0
Flags: HW
LayerCount: 2
Fore
SplineSet
61.8 530.4 m 2
 61.8 650.75 l 2
 61.8 764.55 183.65 739.3 183.65 739.3 c 1
 183.65 691.35 l 1
 151.7 692 150.7 669.7 150.7 658.4 c 2
 150.7 635.6 l 1
 162.35 635.6 l 2
 177 635.6 189.3 626.95 189.3 608.65 c 2
 189.3 530.4 l 2
 189.3 511.1 179.65 501.45 162.35 501.45 c 2
 87.1 501.45 l 2
 67.8 501.45 61.8 514.75 61.8 530.4 c 2
233.95 530.4 m 2
 233.95 650.75 l 2
 233.95 764.55 356.45 739.3 356.45 739.3 c 1
 356.45 691.35 l 1
 324.5 692 322.85 669.7 322.85 658.4 c 2
 322.85 635.6 l 1
 335.15 635.6 l 2
 349.8 635.6 361.45 626.95 361.45 608.65 c 2
 361.45 530.4 l 2
 361.45 511.1 352.45 501.45 335.15 501.45 c 2
 259.9 501.45 l 2
 240.6 501.45 233.95 514.75 233.95 530.4 c 2
EndSplineSet
Substitution2: "'smcp' Lowercase to Small Capitals lookup 16-1" quotedblleft.smcp
EndChar

StartChar: quotedblright
Encoding: 261 8221 132
Width: 422
VWidth: 0
Flags: HW
LayerCount: 2
Fore
SplineSet
233.95 634.8 m 2
 233.95 713.05 l 2
 233.95 732.35 243.6 742 260.9 742 c 2
 336.15 742 l 2
 355.45 742 361.45 728.7 361.45 713.05 c 2
 361.45 592.7 l 2
 361.45 478.9 239.6 503.5 239.6 503.5 c 1
 239.6 551.45 l 1
 271.55 550.8 272.55 573.75 272.55 585.05 c 2
 272.55 607.85 l 1
 260.9 607.85 l 2
 246.25 607.85 233.95 616.5 233.95 634.8 c 2
61.8 634.8 m 2
 61.8 713.05 l 2
 61.8 732.35 70.8 742 88.1 742 c 2
 163.35 742 l 2
 182.65 742 189.3 728.7 189.3 713.05 c 2
 189.3 592.7 l 2
 189.3 478.9 66.8 503.5 66.8 503.5 c 1
 66.8 551.45 l 1
 98.75 550.8 99.75 573.75 99.75 585.05 c 2
 99.75 607.85 l 1
 88.1 607.85 l 2
 73.45 607.85 61.8 616.5 61.8 634.8 c 2
EndSplineSet
Substitution2: "'smcp' Lowercase to Small Capitals lookup 16-1" quotedblright.smcp
EndChar

StartChar: quotedblbase
Encoding: 262 8222 133
Width: 422
VWidth: 0
Flags: HW
LayerCount: 2
Fore
SplineSet
233.95 26.3 m 2
 233.95 104.55 l 2
 233.95 123.85 243.6 133.5 260.9 133.5 c 2
 336.15 133.5 l 2
 355.45 133.5 361.45 120.2 361.45 104.55 c 2
 361.45 -15.8 l 2
 361.45 -130.25 239.6 -105 239.6 -105 c 1
 239.6 -57.05 l 1
 271.55 -57.7 272.55 -34.75 272.55 -23.45 c 2
 272.55 -0.65 l 1
 260.9 -0.65 l 2
 246.25 -0.65 233.95 8 233.95 26.3 c 2
61.8 26.3 m 2
 61.8 104.55 l 2
 61.8 123.85 70.8 133.5 88.1 133.5 c 2
 163.35 133.5 l 2
 182.65 133.5 189.3 120.2 189.3 104.55 c 2
 189.3 -15.8 l 2
 189.3 -130.25 66.8 -105 66.8 -105 c 1
 66.8 -57.05 l 1
 98.75 -57.7 99.75 -34.75 99.75 -23.45 c 2
 99.75 -0.65 l 1
 88.1 -0.65 l 2
 73.45 -0.65 61.8 8 61.8 26.3 c 2
EndSplineSet
Substitution2: "'smcp' Lowercase to Small Capitals lookup 16-1" quotedblbase.smcp
EndChar

StartChar: colon
Encoding: 58 58 134
Width: 266
VWidth: 0
Flags: HW
LayerCount: 2
Fore
SplineSet
72.05 428.65 m 2
 72.05 506.65 l 2
 72.05 521.65 80.05 531.65 96.05 531.65 c 2
 170.05 531.65 l 2
 188.05 531.65 195.05 522.65 195.05 506.65 c 2
 195.05 428.65 l 2
 195.05 410.65 184.05 405.65 170.05 405.65 c 2
 96.05 405.65 l 2
 82.05 405.65 72.05 414.65 72.05 428.65 c 2
72.05 23 m 2
 72.05 101 l 2
 72.05 116 80.05 126 96.05 126 c 2
 170.05 126 l 2
 188.05 126 195.05 117 195.05 101 c 2
 195.05 23 l 2
 195.05 5 184.05 0 170.05 0 c 2
 96.05 0 l 2
 82.05 0 72.05 9 72.05 23 c 2
EndSplineSet
EndChar

StartChar: semicolon
Encoding: 59 59 135
Width: 268
VWidth: 0
Flags: HW
LayerCount: 2
Fore
SplineSet
73.35 429.3 m 2
 73.35 507.3 l 2
 73.35 522.3 81.35 532.3 97.35 532.3 c 2
 171.35 532.3 l 2
 189.35 532.3 196.35 523.3 196.35 507.3 c 2
 196.35 429.3 l 2
 196.35 411.3 185.35 406.3 171.35 406.3 c 2
 97.35 406.3 l 2
 83.35 406.3 73.35 415.3 73.35 429.3 c 2
72.05 25 m 2
 72.05 100 l 2
 72.05 115.4 81.7 127 97.05 127 c 2
 169.05 127 l 2
 185.1 127 193.05 115 193.05 100 c 2
 193.05 -11 l 2
 193.05 -116.15 77.05 -88 77.05 -88 c 1
 77.05 -45.5 l 1
 107.05 -46.5 108.05 -28.65 108.05 -18 c 2
 108.05 0 l 1
 97.05 0 l 2
 83.05 0 72.05 11.25 72.05 25 c 2
EndSplineSet
EndChar

StartChar: quotedbl
Encoding: 34 34 136
Width: 420
VWidth: 0
Flags: HW
LayerCount: 2
Fore
SplineSet
236.1 665 m 1
 236.1 732 l 1
 349.25 732 l 1
 349.25 665 l 1
 339.25 531 l 1
 246.75 531 l 1
 236.1 665 l 1
72.05 665 m 1
 72.05 732 l 1
 185.2 732 l 1
 185.2 665 l 1
 175.2 531 l 1
 83.4 531 l 1
 72.05 665 l 1
EndSplineSet
Substitution2: "'smcp' Lowercase to Small Capitals lookup 16-1" quotedbl.smcp
EndChar

StartChar: exclamdown.alt
Encoding: 263 -1 137
Width: 271
VWidth: 0
Flags: HW
LayerCount: 2
Fore
SplineSet
73.95 0 m 1
 85.85 535 l 1
 185.7 535 l 1
 196.2 0 l 1
 73.95 0 l 1
74.3 630 m 2
 74.3 708 l 2
 74.3 723 83.3 731 97.3 731 c 2
 173.3 731 l 2
 187.3 731 197.3 722 197.3 708 c 2
 197.3 630 l 2
 197.3 615 189.3 605 173.3 605 c 2
 97.3 605 l 2
 82.3 605 74.3 616 74.3 630 c 2
EndSplineSet
EndChar

StartChar: zero
Encoding: 48 48 138
Width: 635
VWidth: 0
Flags: HW
HStem: 0 109<196.252 440.496> 623 109<196.318 442.465>
VStem: 59.15 116<130.635 601.511> 460.15 116<126.336 605.674>
LayerCount: 2
Fore
SplineSet
175.15 186.85 m 2
 175.15 123.7 219.9 109 258.8 109 c 2
 380.1 109 l 2
 433.25 109 460.15 132.5 460.15 186.5 c 2
 460.15 545.5 l 2
 460.15 591.5 440.45 623 382.9 623 c 2
 256.35 623 l 2
 192.65 623 175.15 581.25 175.15 545.5 c 2
 175.15 186.85 l 2
59.15 172.5 m 2
 59.15 556 l 2
 59.15 671.7 133.35 732 238.85 732 c 2
 402.85 732 l 2
 532.9 732 576.15 651.8 576.15 559.5 c 2
 576.15 172.5 l 2
 576.15 53.5 508.85 0 402.5 0 c 2
 238.5 0 l 2
 133.85 0 59.15 52.5 59.15 172.5 c 2
EndSplineSet
Substitution2: "'dnom' Denominators lookup 0 subtable" zero.denominator
Substitution2: "'sups' Superscript lookup 2 subtable" zerosuperior
Substitution2: "'onum' Oldstyle Figures in Latin lookup 5-1" zero.oldstyle
Substitution2: "'tnum' Tabular Numbers in Latin lookup 7-1" zero.tnum
Substitution2: "'numr' Numerators lookup 9 subtable" zero.numerator
Substitution2: "'zero' Slashed Zero lookup 20-1" uni0338
Substitution2: "'sinf' Scientific Inferiors lookup 3-1" zeroinferior
Substitution2: "'frac' Diagonal Fractions lookup 13-1" zero.numerator
Substitution2: "'smcp' Lowercase to Small Capitals lookup 16-1" zero.smcp
EndChar

StartChar: one
Encoding: 49 49 139
Width: 367
VWidth: 0
Flags: HW
HStem: 0 21G<184.2 300.2> 0 21G<184.2 300.2> 712 20G<148.728 300.2>
VStem: 184.2 116<0 613>
LayerCount: 2
Fore
SplineSet
33.7 570.9 m 1
 33.7 648.4 l 1
 184.9 732 l 1
 300.2 732 l 1
 300.2 0 l 1
 184.2 0 l 1
 184.2 613 l 1
 33.7 570.9 l 1
EndSplineSet
Substitution2: "'dnom' Denominators lookup 0 subtable" one.denominator
Substitution2: "'sups' Superscript lookup 2 subtable" onesuperior
Substitution2: "'onum' Oldstyle Figures in Latin lookup 5-1" one.oldstyle
Substitution2: "'tnum' Tabular Numbers in Latin lookup 7-1" one.tnum
Substitution2: "'numr' Numerators lookup 9 subtable" one.numerator
Substitution2: "'sinf' Scientific Inferiors lookup 3-1" oneinferior
Substitution2: "'frac' Diagonal Fractions lookup 13-1" one.numerator
Substitution2: "'smcp' Lowercase to Small Capitals lookup 16-1" one.smcp
EndChar

StartChar: two
Encoding: 50 50 140
Width: 591
VWidth: 0
Flags: HW
HStem: 0 109<243.9 549.45> 632 110<64.6234 389.535> 632 86.5<33.7 251.859>
VStem: 432.8 116.65<454.544 594.942>
LayerCount: 2
Fore
SplineSet
33.7 632 m 1
 33.7 718.5 l 1
 128.7 733.25 215.15 742 337.7 742 c 0
 486.55 742 549.45 636.8 549.45 521.5 c 0
 549.45 345.8 312.4 160.45 243.9 109 c 1
 549.45 109 l 1
 549.45 0 l 1
 41.05 0 l 1
 41.05 103 l 1
 140.25 170 432.8 387.6 432.8 521.75 c 0
 432.8 590.55 397.2 632 309.05 632 c 2
 33.7 632 l 1
EndSplineSet
Substitution2: "'dnom' Denominators lookup 0 subtable" two.denominator
Substitution2: "'sups' Superscript lookup 2 subtable" twosuperior
Substitution2: "'onum' Oldstyle Figures in Latin lookup 5-1" two.oldstyle
Substitution2: "'tnum' Tabular Numbers in Latin lookup 7-1" two.tnum
Substitution2: "'numr' Numerators lookup 9 subtable" two.numerator
Substitution2: "'sinf' Scientific Inferiors lookup 3-1" twoinferior
Substitution2: "'frac' Diagonal Fractions lookup 13-1" two.numerator
Substitution2: "'smcp' Lowercase to Small Capitals lookup 16-1" two.smcp
EndChar

StartChar: three
Encoding: 51 51 141
Width: 587
VWidth: 0
Flags: HW
HStem: -7 110<65.2957 387.87> 21 82<32.45 132.982> 308.5 110<157.95 381.38> 315.5 93<93.45 243.95> 625 109<73.2086 384.869> 625 81<25.45 125.166>
VStem: 408.95 115.3<123.322 281.079 442.443 598.436>
LayerCount: 2
Fore
SplineSet
25.45 625 m 1
 25.45 706 l 1
 113.45 737 229.95 736 346.95 734 c 0
 456.95 732 524.25 663.45 524.25 562 c 2
 524.25 503.5 l 2
 524.25 430.5 499.3 382.1 451.95 364 c 1
 500.65 340.1 524.25 292.5 524.25 216.5 c 2
 524.25 168 l 2
 524.25 54.8 461.95 -7 339.95 -7 c 0
 225.95 -7 119.45 -10 31.45 21 c 1
 32.45 103 l 1
 302.45 103 l 2
 364.2 103 406.95 109.2 406.95 180.25 c 2
 406.95 221.75 l 2
 406.95 288.55 365.95 306.15 308.45 308.5 c 2
 93.45 315.5 l 1
 93.45 408.5 l 1
 308.45 418.5 l 2
 377.45 421.5 408.95 444.25 408.95 500 c 2
 408.95 548 l 2
 408.95 608.1 360.45 625 308.45 625 c 2
 25.45 625 l 1
EndSplineSet
Substitution2: "'dnom' Denominators lookup 0 subtable" three.denominator
Substitution2: "'sups' Superscript lookup 2 subtable" threesuperior
Substitution2: "'onum' Oldstyle Figures in Latin lookup 5-1" three.oldstyle
Substitution2: "'tnum' Tabular Numbers in Latin lookup 7-1" three.tnum
Substitution2: "'numr' Numerators lookup 9 subtable" three.numerator
Substitution2: "'sinf' Scientific Inferiors lookup 3-1" threeinferior
Substitution2: "'frac' Diagonal Fractions lookup 13-1" three.numerator
Substitution2: "'smcp' Lowercase to Small Capitals lookup 16-1" three.smcp
EndChar

StartChar: four
Encoding: 52 52 142
Width: 614
VWidth: 0
Flags: HW
HStem: 169.5 113<183.3 401.85> 712 20G<288.228 429.35>
VStem: 401.85 116<2 169.5 282.5 463.95>
DStem2: 16.85 224 183.3 282.5 0.486008 0.873954<132.022 581.266>
LayerCount: 2
Fore
SplineSet
16.85 224 m 1
 299.35 732 l 1
 429.35 732 l 1
 183.3 282.5 l 1
 401.85 282.5 l 1
 401.85 463.95 l 1
 435.35 540 l 1
 517.85 540 l 1
 517.85 282.5 l 1
 597.35 282.5 l 1
 597.35 192 l 1
 517.85 169.5 l 1
 517.85 2 l 1
 401.85 2 l 1
 401.85 169.5 l 1
 50.85 169.5 l 1
 16.85 224 l 1
EndSplineSet
Substitution2: "'dnom' Denominators lookup 0 subtable" four.denominator
Substitution2: "'sups' Superscript lookup 2 subtable" foursuperior
Substitution2: "'onum' Oldstyle Figures in Latin lookup 5-1" four.oldstyle
Substitution2: "'tnum' Tabular Numbers in Latin lookup 7-1" four.tnum
Substitution2: "'numr' Numerators lookup 9 subtable" four.numerator
Substitution2: "'sinf' Scientific Inferiors lookup 3-1" fourinferior
Substitution2: "'frac' Diagonal Fractions lookup 13-1" four.numerator
Substitution2: "'smcp' Lowercase to Small Capitals lookup 16-1" four.smcp
EndChar

StartChar: five
Encoding: 53 53 143
Width: 599
VWidth: 0
Flags: HW
HStem: -4 114<94.3848 412.269> 20 90<64.45 242.852> 351 105.5<195.534 415.383> 623 109<198.45 524.45>
VStem: 66.1 108<286.5 336.938> 433.6 116<131.453 333.178>
LayerCount: 2
Fore
SplineSet
64.45 20 m 1
 64.45 110 l 1
 354.45 110 l 2
 421 110 433.6 153.4 433.6 189 c 2
 433.6 271.35 l 2
 433.6 304.35 429.45 351 358.3 351 c 2
 242.8 351 l 2
 206.25 351 174.1 332.45 174.1 286.5 c 1
 66.1 286.5 l 1
 88.1 732 l 1
 524.45 732 l 1
 524.45 623 l 1
 198.45 623 l 1
 189.25 430 l 1
 207.45 446.65 234.75 453.55 260.1 456.5 c 0
 304.3 461.75 359.5 456.85 384.2 456.5 c 0
 501.5 453 549.6 380.15 549.6 280 c 2
 549.6 173 l 2
 549.6 36 446.55 -4 371.95 -4 c 0
 247.95 -4 198.45 -3 64.45 20 c 1
EndSplineSet
Substitution2: "'dnom' Denominators lookup 0 subtable" five.denominator
Substitution2: "'sups' Superscript lookup 2 subtable" fivesuperior
Substitution2: "'onum' Oldstyle Figures in Latin lookup 5-1" five.oldstyle
Substitution2: "'tnum' Tabular Numbers in Latin lookup 7-1" five.tnum
Substitution2: "'numr' Numerators lookup 9 subtable" five.numerator
Substitution2: "'sinf' Scientific Inferiors lookup 3-1" fiveinferior
Substitution2: "'frac' Diagonal Fractions lookup 13-1" five.numerator
Substitution2: "'smcp' Lowercase to Small Capitals lookup 16-1" five.smcp
EndChar

StartChar: six
Encoding: 54 54 144
Width: 613
VWidth: 0
Flags: HW
HStem: -1 109<221.103 437.276> 333 105.5<174.405 432.076> 333 84.5<171.2 392.066> 629 87.55<290.289 539.7>
VStem: 55.2 116<172.576 333 417.5 558.482> 448.35 115.35<122.403 319.709>
LayerCount: 2
Fore
SplineSet
171.2 333 m 1
 171.2 234.8 179.05 108 273.3 108 c 2
 376.1 108 l 2
 420.8 108 448.35 117.65 448.35 176.75 c 2
 448.35 265 l 2
 448.35 319.7 420.7 333 377.85 333 c 2
 171.2 333 l 1
55.2 384 m 0
 55.2 649 142.1 731.35 227.2 736.25 c 0
 327.85 741.85 445.4 732 539.7 716.55 c 1
 539.7 629 l 1
 275.2 629 l 2
 184.2 629 172.5 497.65 171.2 417.5 c 1
 239.4 430.65 318.2 438.5 395.7 438.5 c 0
 535.2 438.5 563.7 364.35 563.7 275.5 c 2
 563.7 158.5 l 2
 563.7 40.2 493.9 -1 392.2 -1 c 2
 247.05 -1 l 2
 133.5 -0.35 55.2 69 55.2 384 c 0
EndSplineSet
Substitution2: "'dnom' Denominators lookup 0 subtable" six.denominator
Substitution2: "'sups' Superscript lookup 2 subtable" sixsuperior
Substitution2: "'onum' Oldstyle Figures in Latin lookup 5-1" six.oldstyle
Substitution2: "'tnum' Tabular Numbers in Latin lookup 7-1" six.tnum
Substitution2: "'numr' Numerators lookup 9 subtable" six.numerator
Substitution2: "'sinf' Scientific Inferiors lookup 3-1" sixinferior
Substitution2: "'frac' Diagonal Fractions lookup 13-1" six.numerator
Substitution2: "'smcp' Lowercase to Small Capitals lookup 16-1" six.smcp
EndChar

StartChar: seven
Encoding: 55 55 145
Width: 551
VWidth: 0
Flags: HW
HStem: 0 21G<144.45 281.245> 0 21G<144.45 281.245> 623 109<25.45 381.45>
DStem2: 144.45 0 273.75 0 0.350925 0.936403<45.3747 666.549>
LayerCount: 2
Fore
SplineSet
25.45 623 m 1
 25.45 732 l 1
 492.15 732 l 1
 526.15 673.5 l 1
 273.75 0 l 1
 144.45 0 l 1
 381.45 623 l 1
 25.45 623 l 1
EndSplineSet
Substitution2: "'dnom' Denominators lookup 0 subtable" seven.denominator
Substitution2: "'sups' Superscript lookup 2 subtable" sevensuperior
Substitution2: "'onum' Oldstyle Figures in Latin lookup 5-1" seven.oldstyle
Substitution2: "'tnum' Tabular Numbers in Latin lookup 7-1" seven.tnum
Substitution2: "'numr' Numerators lookup 9 subtable" seven.numerator
Substitution2: "'sinf' Scientific Inferiors lookup 3-1" seveninferior
Substitution2: "'frac' Diagonal Fractions lookup 13-1" seven.numerator
Substitution2: "'smcp' Lowercase to Small Capitals lookup 16-1" seven.smcp
EndChar

StartChar: percent
Encoding: 37 37 146
Width: 959
VWidth: 0
Flags: HW
LayerCount: 2
Fore
SplineSet
646.2 141.35 m 2
 646.2 101.8 657.35 88.35 699.45 88.35 c 2
 782.6 88.35 l 2
 832.2 88.35 838.2 104.4 838.2 141.35 c 2
 838.2 246.35 l 2
 838.2 289.75 823.9 299.35 784.6 299.35 c 2
 701.45 299.35 l 2
 656.05 299.35 646.2 287.5 646.2 246.35 c 2
 646.2 141.35 l 2
560.2 130.85 m 2
 560.2 256.85 l 2
 560.2 341.85 591.35 385.35 692.35 385.35 c 2
 793.7 385.35 l 2
 891.7 385.35 924.2 341.85 924.2 256.85 c 2
 924.2 130.85 l 2
 924.2 45.85 892.7 2.35 791.7 2.35 c 2
 690.35 2.35 l 2
 592.35 2.35 560.2 45.85 560.2 130.85 c 2
214.75 0 m 1
 658.35 732 l 1
 747.9 732 l 1
 306.75 0 l 1
 214.75 0 l 1
121.7 488 m 2
 121.7 448.45 132.85 435 174.95 435 c 2
 258.45 435 l 2
 308.05 435 313.7 451.05 313.7 488 c 2
 313.7 593 l 2
 313.7 636.4 299.75 646 260.45 646 c 2
 176.95 646 l 2
 131.55 646 121.7 634.15 121.7 593 c 2
 121.7 488 l 2
35.7 477.5 m 2
 35.7 603.5 l 2
 35.7 688.5 67.2 732 168.2 732 c 2
 269.2 732 l 2
 367.2 732 399.7 688.5 399.7 603.5 c 2
 399.7 477.5 l 2
 399.7 392.5 368.2 349 267.2 349 c 2
 166.2 349 l 2
 68.2 349 35.7 392.5 35.7 477.5 c 2
EndSplineSet
Substitution2: "'smcp' Lowercase to Small Capitals lookup 16-1" percent.smcp
EndChar

StartChar: nine
Encoding: 57 57 147
Width: 613
VWidth: 0
Flags: HW
HStem: 18.7 87.55<74.9 328.821> 296.75 105.5<182.524 440.195> 317.75 84.5<222.534 443.4> 627.25 109<177.324 393.497>
VStem: 50.9 115.35<415.541 612.847> 443.4 116<176.768 317.75 402.25 562.674>
LayerCount: 2
Fore
SplineSet
166.25 470.25 m 2
 166.25 415.55 193.9 402.25 236.75 402.25 c 2
 443.4 402.25 l 1
 443.4 500.45 435.55 627.25 341.3 627.25 c 2
 238.5 627.25 l 2
 193.8 627.25 166.25 617.6 166.25 558.5 c 2
 166.25 470.25 l 2
50.9 459.75 m 2
 50.9 576.75 l 2
 50.9 695.05 120.7 736.25 222.4 736.25 c 2
 367.55 736.25 l 2
 481.1 735.6 559.4 666.25 559.4 351.25 c 0
 559.4 86.25 472.5 3.9 387.4 -1 c 0
 286.75 -6.6 164 0 74.9 18.7 c 1
 74.9 106.25 l 1
 339.4 106.25 l 2
 430.4 106.25 442.1 237.6 443.4 317.75 c 1
 375.2 304.6 296.4 296.75 218.9 296.75 c 0
 79.4 296.75 50.9 370.9 50.9 459.75 c 2
EndSplineSet
Substitution2: "'dnom' Denominators lookup 0 subtable" nine.denominator
Substitution2: "'sups' Superscript lookup 2 subtable" ninesuperior
Substitution2: "'onum' Oldstyle Figures in Latin lookup 5-1" nine.oldstyle
Substitution2: "'tnum' Tabular Numbers in Latin lookup 7-1" nine.tnum
Substitution2: "'numr' Numerators lookup 9 subtable" nine.numerator
Substitution2: "'sinf' Scientific Inferiors lookup 3-1" nineinferior
Substitution2: "'frac' Diagonal Fractions lookup 13-1" nine.numerator
Substitution2: "'smcp' Lowercase to Small Capitals lookup 16-1" nine.smcp
EndChar

StartChar: eight
Encoding: 56 56 148
Width: 628
VWidth: 0
Flags: HW
HStem: 0 105.5<193.955 431.316> 323 101<195.794 433.255> 631.5 105.5<195.668 430.424>
VStem: 63.45 116<120.035 307.106 441.345 615.705> 448.95 116<122.524 305.888 437.21 616.654>
LayerCount: 2
Fore
SplineSet
179.45 494 m 2
 179.45 436.8 221.05 424 255.05 424 c 2
 376.6 424 l 2
 439.45 424 448.95 460.1 448.95 494 c 2
 448.95 548.7 l 2
 448.95 613.6 422.05 631.5 375.3 631.5 c 2
 262.2 631.5 l 2
 210.1 631.5 179.45 623.3 179.45 548.7 c 2
 179.45 494 l 2
179.45 171.65 m 2
 179.45 127.55 202.5 105.5 262.2 105.5 c 2
 374.65 105.5 l 2
 418 105.5 448.95 127.4 448.95 171.65 c 2
 448.95 253.9 l 2
 448.95 300.05 419.55 323 377.3 323 c 2
 255.05 323 l 2
 210.45 323 179.45 303.65 179.45 253.9 c 2
 179.45 171.65 l 2
63.45 162.75 m 2
 63.45 245 l 2
 63.45 310.6 99 343.9 144.6 355.5 c 1
 77.1 382.75 63.45 443.2 63.45 499 c 2
 63.45 564 l 2
 63.45 700.1 143.45 737 246.45 737 c 2
 395.95 737 l 2
 506.8 737 564.95 688.4 564.95 563.65 c 2
 564.95 506 l 2
 565.6 482.25 559.5 402.9 489.95 390 c 1
 549.2 378.95 565.6 298.15 564.95 255.15 c 2
 564.95 164.85 l 2
 564.95 23.3 470.5 0 394.95 0 c 2
 246.45 0 l 2
 68.15 0 63.45 113.7 63.45 162.75 c 2
EndSplineSet
Substitution2: "'dnom' Denominators lookup 0 subtable" eight.denominator
Substitution2: "'sups' Superscript lookup 2 subtable" eightsuperior
Substitution2: "'onum' Oldstyle Figures in Latin lookup 5-1" eight.oldstyle
Substitution2: "'tnum' Tabular Numbers in Latin lookup 7-1" eight.tnum
Substitution2: "'numr' Numerators lookup 9 subtable" eight.numerator
Substitution2: "'sinf' Scientific Inferiors lookup 3-1" eightinferior
Substitution2: "'frac' Diagonal Fractions lookup 13-1" eight.numerator
Substitution2: "'smcp' Lowercase to Small Capitals lookup 16-1" eight.smcp
EndChar

StartChar: quotesingle
Encoding: 39 39 149
Width: 209
VWidth: 0
Flags: HW
LayerCount: 2
Fore
SplineSet
46.6 665 m 1
 46.6 732 l 1
 163.6 732 l 1
 163.6 665 l 1
 153.6 531 l 1
 57.6 531 l 1
 46.6 665 l 1
EndSplineSet
Substitution2: "'smcp' Lowercase to Small Capitals lookup 16-1" quotesingle.smcp
EndChar

StartChar: onesuperior
Encoding: 185 185 150
Width: 270
VWidth: 132
Flags: HW
LayerCount: 2
Fore
SplineSet
13.55 753.15 m 1
 13.55 813 l 1
 125.1 868 l 1
 215.8 868 l 1
 215.8 388.15 l 1
 124.4 388.15 l 1
 124.4 780.45 l 1
 13.55 753.15 l 1
EndSplineSet
EndChar

StartChar: twosuperior
Encoding: 178 178 151
Width: 395
VWidth: 132
Flags: HW
LayerCount: 2
Fore
SplineSet
26.75 788.2 m 2
 25.45 788.2 26.1 857.55 26.75 856.9 c 0
 89.6 866.65 138.1 874.35 219.9 874.35 c 0
 321.75 874.35 360.05 814.25 360.05 732.4 c 0
 360.05 620.35 222.2 509.65 178.8 474.3 c 1
 359.4 474.3 l 1
 359.4 388.15 l 1
 30.1 388.15 l 1
 30.1 469.95 l 1
 92.55 516.25 266.7 635.3 266.7 724.15 c 0
 266.7 771.2 246.95 788.2 190.35 788.2 c 2
 26.75 788.2 l 2
EndSplineSet
EndChar

StartChar: threesuperior
Encoding: 179 179 152
Width: 407
VWidth: 132
Flags: HW
LayerCount: 2
Fore
SplineSet
25.45 783.85 m 1
 25.45 849.95 l 1
 83.85 871 154.25 870.05 232.35 869.35 c 0
 315.85 869 357.2 816.55 357.2 749.9 c 2
 357.2 718.05 l 2
 357.2 670.35 336.3 638.65 303.3 626.9 c 1
 337.3 611.3 357.2 579.45 357.2 529.75 c 2
 357.2 504.9 l 2
 357.2 430.4 321.45 383.8 227.35 383.8 c 0
 151.25 383.8 87.85 381.8 29.45 402.85 c 1
 30.45 469.3 l 1
 51.25 469.3 196.25 469.95 196.25 469.95 c 2
 249.55 469.95 265.8 481 265.8 517.3 c 2
 265.8 533.65 l 2
 265.8 574.15 238.05 585.9 200.25 586.9 c 2
 70.15 591.9 l 1
 70.15 664.1 l 1
 200.25 671.1 l 2
 245.6 672.75 267.15 687.05 267.15 720.75 c 2
 267.15 736.45 l 2
 267.15 772.15 241.75 783.85 200.25 783.85 c 2
 25.45 783.85 l 1
EndSplineSet
EndChar

StartChar: ordmasculine
Encoding: 186 186 153
Width: 392
VWidth: 0
Flags: HW
LayerCount: 2
Fore
SplineSet
116.85 550.35 m 0
 116.85 456.55 144.9 451.8 197.05 451.8 c 0
 252.5 451.8 275 454.2 276.3 550.35 c 0
 277.6 653.05 253.55 658.2 197.05 658.2 c 0
 138.95 658.2 116.85 653.3 116.85 550.35 c 0
37.85 266.45 m 1
 37.85 331.45 l 1
 354.65 331.45 l 1
 354.65 266.45 l 1
 37.85 266.45 l 1
25.45 550 m 0
 25.45 692.7 67.25 736.3 197.05 736.3 c 0
 327.2 736.3 367.7 691.3 367.7 550 c 0
 367.7 420.95 328.6 373.7 197.05 373.7 c 0
 66.55 373.7 25.45 422.7 25.45 550 c 0
EndSplineSet
Ligature2: "'ordn' Ordinals lookup 21-1" o
Substitution2: "'smcp' Lowercase to Small Capitals lookup 16-1" ordmasculine.smcp
EndChar

StartChar: ordfeminine
Encoding: 170 170 154
Width: 365
VWidth: 0
Flags: HW
LayerCount: 2
Fore
SplineSet
112.65 481.6 m 2
 112.65 453.7 129.6 447.9 151.05 447.9 c 0
 200.55 447.9 247.6 475.7 247.6 475.7 c 1
 247.6 544.2 l 1
 147.9 536.65 l 2
 119.4 534 112.65 517.05 112.65 500.55 c 2
 112.65 481.6 l 2
25.45 465.1 m 2
 25.45 504.1 l 2
 25.45 556 58.55 597.25 132.45 597.25 c 2
 132.45 597.25 247.6 596.25 247.6 597.25 c 2
 247.6 597.25 248.6 618.45 247.6 619.45 c 1
 247.6 655.4 227.4 663.5 192.9 663.5 c 0
 129.45 663.5 84.9 657.75 37.45 655.8 c 1
 37.45 713.2 l 1
 90.3 727.15 133.6 738 205.8 738.65 c 0
 282.85 739.3 339 711.1 339 629 c 2
 339 378 l 1
 272.4 378 l 1
 248.25 424.2 l 1
 244.85 418.6 185.5 373.3 130 374 c 0
 65.75 375.05 25.45 414.8 25.45 465.1 c 2
25.45 264.5 m 1
 25.45 329.5 l 1
 340.3 329.5 l 1
 340.3 264.5 l 1
 25.45 264.5 l 1
EndSplineSet
Ligature2: "'ordn' Ordinals lookup 21-1" a
Substitution2: "'smcp' Lowercase to Small Capitals lookup 16-1" ordfeminine.smcp
EndChar

StartChar: slash
Encoding: 47 47 155
Width: 435
VWidth: 0
Flags: HW
LayerCount: 2
Fore
SplineSet
16.85 -72 m 1
 297.85 770 l 1
 418.85 770 l 1
 137.85 -72 l 1
 16.85 -72 l 1
EndSplineSet
Substitution2: "'numr' Numerators lookup 9 subtable" fraction
Substitution2: "'frac' Diagonal Fractions lookup 12-1" fraction
EndChar

StartChar: backslash
Encoding: 92 92 156
Width: 435
VWidth: 0
Flags: HW
LayerCount: 2
Fore
SplineSet
16.85 770 m 1
 137.85 770 l 1
 418.85 -72 l 1
 297.85 -72 l 1
 16.85 770 l 1
EndSplineSet
EndChar

StartChar: bar
Encoding: 124 124 157
Width: 246
VWidth: 0
Flags: HW
LayerCount: 2
Fore
SplineSet
72.7 -72 m 1
 72.7 770 l 1
 174.7 770 l 1
 174.7 -72 l 1
 72.7 -72 l 1
EndSplineSet
EndChar

StartChar: underscore
Encoding: 95 95 158
Width: 674
VWidth: 0
Flags: HW
LayerCount: 2
Fore
SplineSet
20 -1 m 1
 20 101 l 1
 654 101 l 1
 654 -1 l 1
 20 -1 l 1
EndSplineSet
EndChar

StartChar: hyphen
Encoding: 45 45 159
Width: 354
VWidth: 0
Flags: HW
LayerCount: 2
Fore
SplineSet
20 239 m 1
 20 341 l 1
 334 341 l 1
 334 239 l 1
 20 239 l 1
EndSplineSet
Substitution2: "'case' Case-Sensitive Forms lookup 1-1" hyphen.alt
Substitution2: "'c2sc' Capitals to Small Capitals in Latin lookup 17 subtable" hyphen.smcp
Substitution2: "'smcp' Lowercase to Small Capitals lookup 16-1" hyphen.smcp
EndChar

StartChar: numbersign
Encoding: 35 35 160
Width: 708
VWidth: 0
Flags: HW
LayerCount: 2
Fore
SplineSet
263.85 298 m 1
 404 297 l 1
 426.5 435 l 1
 286.35 435 l 1
 263.85 298 l 1
16.85 218 m 1
 29.05 298 l 1
 183.85 298 l 1
 206.35 435 l 1
 50.85 435 l 1
 64.05 515 l 1
 220.65 515 l 1
 257.65 732 l 1
 337.65 732 l 1
 300.65 515 l 1
 439.35 515 l 1
 475.35 732 l 1
 555.35 732 l 1
 519.35 515 l 1
 692.85 515 l 1
 680.35 435 l 1
 506.5 435 l 1
 484 297 l 1
 657.85 297 l 1
 646.35 217 l 1
 468.3 217 l 1
 431.3 0 l 1
 351.3 0 l 1
 388.3 217 l 1
 249.25 218 l 1
 212.25 0 l 1
 132.25 0 l 1
 169.25 218 l 1
 16.85 218 l 1
EndSplineSet
Substitution2: "'smcp' Lowercase to Small Capitals lookup 16-1" numbersign.smcp
EndChar

StartChar: dollar
Encoding: 36 36 161
Width: 571
VWidth: 0
Flags: HW
LayerCount: 2
Fore
SplineSet
46.6 488.75 m 2
 46.6 553 l 1
 47.9 695.05 131.75 735.3 240.15 738 c 1
 240.15 824 l 1
 315.65 824 l 1
 315.65 736.05 l 1
 382.15 731.75 454.05 720.1 498.6 710.85 c 1
 498.6 620.3 l 1
 443.7 622.75 292.2 629.65 269.1 629.65 c 0
 204.7 631.6 162.6 622.45 162.6 546 c 2
 162.6 499.25 l 2
 162.6 436.4 199.8 418.75 251.2 418.75 c 2
 358.1 418.75 l 2
 501 418.75 525.6 314.05 525.6 232.75 c 2
 525.6 177 l 2
 525.6 23.95 419.15 -11.2 315.65 -8 c 1
 315.65 -90 l 1
 240.15 -90 l 1
 240.15 -4.75 l 1
 168.4 0.15 113.8 9.1 69.6 20.15 c 1
 69.6 108.75 l 1
 109.6 107.35 212.1 101 305.1 101 c 0
 346.8 101 409.6 109.4 409.6 173.85 c 2
 409.6 223.65 l 2
 409.6 270.85 394.75 302.75 337.1 302.75 c 2
 231.6 302.75 l 2
 69.55 302.75 46.6 420.95 46.6 488.75 c 2
EndSplineSet
Substitution2: "'smcp' Lowercase to Small Capitals lookup 16-1" dollar.smcp
EndChar

StartChar: zerosuperior
Encoding: 264 8304 162
Width: 465
VWidth: 132
Flags: HW
LayerCount: 2
Fore
SplineSet
142.95 519.7 m 2
 142.95 482.15 157.2 473.65 193.95 473.65 c 2
 274.6 473.65 l 2
 315.45 473.65 323.95 485.4 323.95 519.35 c 2
 323.95 734.85 l 2
 323.95 767.05 313.85 780.55 276.35 780.55 c 2
 192.2 780.55 l 2
 145.4 780.55 142.95 757.8 142.95 734.85 c 2
 142.95 519.7 l 2
50.9 503.8 m 2
 50.9 748.3 l 2
 50.9 833 98.3 866.7 176.3 866.7 c 2
 294 866.7 l 2
 384.7 866.7 414.7 818.1 414.7 750.4 c 2
 414.7 503.8 l 2
 414.7 413.75 366.05 387.5 294 387.5 c 2
 175.95 387.5 l 2
 104.35 387.5 50.9 410.8 50.9 503.8 c 2
EndSplineSet
EndChar

StartChar: foursuperior
Encoding: 265 8308 163
Width: 425
VWidth: 132
Flags: HW
LayerCount: 2
Fore
SplineSet
13.55 532.5 m 1
 198.1 866.7 l 1
 294.3 866.7 l 1
 138.5 583.3 l 1
 269.45 583.3 l 1
 269.45 692.4 l 1
 295 741.45 l 1
 360.85 741.45 l 1
 360.85 583.3 l 1
 413.2 583.3 l 1
 413.2 510.3 l 1
 360.85 500.45 l 1
 360.85 388.85 l 1
 269.45 388.85 l 1
 269.45 494.15 l 1
 35.9 494.15 l 1
 13.55 532.5 l 1
EndSplineSet
EndChar

StartChar: fivesuperior
Encoding: 266 8309 164
Width: 417
VWidth: 131
Flags: HW
LayerCount: 2
Fore
SplineSet
46.6 399.25 m 1
 46.6 471.7 l 1
 245.35 471.7 l 2
 284.2 471.7 292.15 491.95 292.15 516.9 c 2
 292.15 558.55 l 2
 292.15 578.8 291.35 608.3 247.8 608.3 c 2
 162.9 608.3 l 2
 139.3 608.3 124.15 596.75 124.15 568.4 c 1
 46.95 568.4 l 1
 61.95 866.7 l 1
 366.4 866.7 l 1
 366.4 780.55 l 1
 143.4 780.55 l 1
 137.5 674.05 l 1
 167.5 699.55 236.95 693.05 270.35 691.65 c 0
 349.8 689.2 383.55 638.45 383.55 567.1 c 2
 383.55 503.1 l 2
 383.55 417.25 328.1 383.85 263.35 383.85 c 0
 180.25 383.85 136.05 383.55 46.6 399.25 c 1
EndSplineSet
EndChar

StartChar: sixsuperior
Encoding: 267 8310 165
Width: 439
VWidth: 131
Flags: HW
LayerCount: 2
Fore
SplineSet
137.65 595.7 m 1
 137.65 556.05 142.45 474.3 199.75 474.3 c 2
 272.5 474.3 l 2
 301.65 474.3 313.2 485.45 313.2 515.15 c 2
 313.2 558.3 l 2
 313.2 589.05 302.15 595.7 273.9 595.7 c 2
 137.65 595.7 l 1
46.25 640.25 m 0
 47.55 830.25 106.25 865.55 169.95 871.3 c 1
 239.05 878.75 327.05 868.35 387.9 858.6 c 1
 387.9 787.25 l 1
 202 787.25 l 2
 140.9 787.25 138.3 713.4 137.65 664.35 c 1
 182.15 673.15 237.95 679.05 288.75 679.05 c 0
 384.45 679.05 404.6 627.3 404.6 568.25 c 2
 404.6 499.1 l 2
 404.6 421.15 357.1 388.15 287.7 388.15 c 2
 182.8 388.15 l 2
 104.85 388.15 44.95 428.3 46.25 640.25 c 0
EndSplineSet
EndChar

StartChar: sevensuperior
Encoding: 268 8311 166
Width: 386
VWidth: 132
Flags: HW
LayerCount: 2
Fore
SplineSet
12.55 781.85 m 1
 12.55 868 l 1
 349.4 868 l 1
 373.05 827.2 l 1
 190.35 388.15 l 1
 89.55 388.15 l 1
 254.25 781.85 l 1
 12.55 781.85 l 1
EndSplineSet
EndChar

StartChar: eightsuperior
Encoding: 269 8312 167
Width: 464
VWidth: 132
Flags: HW
LayerCount: 2
Fore
SplineSet
147.25 715.2 m 2
 147.25 679.95 167.6 671.75 189.95 671.75 c 2
 274.35 671.75 l 2
 315.05 671.75 317.7 695 317.7 715.2 c 2
 317.7 741.25 l 2
 317.7 780.85 301.4 788 271.1 788 c 2
 195.8 788 l 2
 159.55 788 147.25 779.2 147.25 741.25 c 2
 147.25 715.2 l 2
147.25 508.5 m 2
 147.25 481.4 156.55 470.85 191.25 470.85 c 2
 276.3 470.85 l 2
 304.65 470.85 317.7 481.5 317.7 508.5 c 2
 317.7 548.35 l 2
 317.7 577.3 305.25 590.55 277.3 590.55 c 2
 189.95 590.55 l 2
 160.65 590.55 147.25 579.25 147.25 548.35 c 2
 147.25 508.5 l 2
55.85 496.1 m 2
 55.85 546.05 l 2
 55.85 588.8 79.6 612.5 111.2 619.8 c 1
 64.3 637.65 55.85 677.2 55.85 713.65 c 2
 55.85 754.7 l 2
 55.85 847.4 111.5 871.35 181.3 871.35 c 2
 292.35 871.35 l 2
 367.95 871.35 409.1 840.7 409.1 755.4 c 2
 409.1 719.25 l 2
 409.75 703.85 406 652.5 358.3 643.9 c 1
 399.25 636.85 409.1 582.1 409.1 553.75 c 2
 409.1 498.2 l 2
 409.1 405.1 354.55 386.85 294.3 386.85 c 2
 176.75 386.85 l 2
 68.3 386.85 55.85 446.3 55.85 496.1 c 2
EndSplineSet
EndChar

StartChar: ninesuperior
Encoding: 270 8313 168
Width: 439
VWidth: 132
Flags: HW
LayerCount: 2
Fore
SplineSet
129.4 702.2 m 2
 129.4 670.75 140.8 663.75 169.05 663.75 c 2
 304.95 663.75 l 1
 304.95 705.15 302.1 787.25 244.8 787.25 c 2
 170.1 787.25 l 2
 140.95 787.25 129.4 775.75 129.4 745.35 c 2
 129.4 702.2 l 2
38 691.9 m 2
 38 761.4 l 2
 38 840.05 85.85 873.4 155.25 873.4 c 2
 259.8 873.4 l 2
 337.75 873.4 397.65 832.55 396.35 618.5 c 0
 395.05 426.75 338.95 392.1 273.3 385.35 c 0
 204.85 377.9 123.35 384.4 54.7 398.05 c 1
 54.7 469.75 l 1
 239.95 469.75 l 2
 301.05 469.75 304.3 544.3 304.95 594.75 c 1
 260.45 585.95 205 580.05 154.2 580.05 c 0
 58.5 580.05 38 632.15 38 691.9 c 2
EndSplineSet
EndChar

StartChar: zeroinferior
Encoding: 271 8320 169
Width: 465
VWidth: 0
Flags: HW
LayerCount: 2
Fore
SplineSet
142.95 -67.8 m 2
 142.95 -105.35 157.2 -113.85 193.95 -113.85 c 2
 274.6 -113.85 l 2
 315.45 -113.85 323.95 -102.1 323.95 -68.15 c 2
 323.95 147.35 l 2
 323.95 179.55 313.85 193.05 276.35 193.05 c 2
 192.2 193.05 l 2
 145.4 193.05 142.95 170.3 142.95 147.35 c 2
 142.95 -67.8 l 2
50.9 -83.7 m 2
 50.9 160.8 l 2
 50.9 245.5 98.3 279.2 176.3 279.2 c 2
 294 279.2 l 2
 384.7 279.2 414.7 230.6 414.7 162.9 c 2
 414.7 -83.7 l 2
 414.7 -173.75 366.05 -200 294 -200 c 2
 175.95 -200 l 2
 104.35 -200 50.9 -176.7 50.9 -83.7 c 2
EndSplineSet
EndChar

StartChar: oneinferior
Encoding: 272 8321 170
Width: 270
VWidth: 0
Flags: HW
LayerCount: 2
Fore
SplineSet
13.55 165.65 m 1
 13.55 225.5 l 1
 125.1 280.5 l 1
 215.8 280.5 l 1
 215.8 -199.35 l 1
 124.4 -199.35 l 1
 124.4 192.95 l 1
 13.55 165.65 l 1
EndSplineSet
EndChar

StartChar: twoinferior
Encoding: 273 8322 171
Width: 397
VWidth: 0
Flags: HW
LayerCount: 2
Fore
SplineSet
26.75 200.7 m 2
 25.45 200.7 26.1 270.05 26.75 269.4 c 0
 89.95 279.15 138.45 286.85 220.95 286.85 c 0
 323.5 286.85 362.15 226.75 362.15 144.9 c 0
 362.15 32.85 222.9 -77.85 179.15 -113.2 c 1
 361.5 -113.2 l 1
 361.5 -199.35 l 1
 30.1 -199.35 l 1
 30.1 -117.55 l 1
 92.9 -71.25 268.8 47.8 268.8 137 c 0
 268.8 183.7 249.05 200.7 191.75 200.7 c 2
 26.75 200.7 l 2
EndSplineSet
EndChar

StartChar: threeinferior
Encoding: 274 8323 172
Width: 409
VWidth: 0
Flags: HW
LayerCount: 2
Fore
SplineSet
25.45 196.35 m 1
 25.45 262.45 l 1
 84.2 283.5 155.3 282.55 233.75 281.85 c 0
 317.6 281.5 359.3 229.4 359.3 162.4 c 2
 359.3 130.55 l 2
 359.3 82.85 338.4 51.15 305.4 39.4 c 1
 339.4 23.8 359.3 -8.05 359.3 -57.75 c 2
 359.3 -82.6 l 2
 359.3 -156.75 323.55 -203.7 228.75 -203.7 c 0
 152.3 -203.7 88.55 -205.7 29.45 -184.65 c 1
 30.45 -118.2 l 1
 51.25 -118.2 197.65 -117.55 197.65 -117.55 c 2
 251.3 -117.55 267.9 -106.5 267.9 -70.2 c 2
 267.9 -53.85 l 2
 267.9 -13.35 239.8 -1.6 201.65 -0.599999 c 2
 70.15 4.4 l 1
 70.15 76.25 l 1
 201.65 83.6 l 2
 247.7 85.25 269.25 99.55 269.25 133.25 c 2
 269.25 148.95 l 2
 269.25 184.65 243.5 196.35 201.65 196.35 c 2
 25.45 196.35 l 1
EndSplineSet
EndChar

StartChar: fourinferior
Encoding: 275 8324 173
Width: 427
VWidth: 0
Flags: HW
LayerCount: 2
Fore
SplineSet
13.55 -55 m 1
 198.1 279.2 l 1
 296.4 279.2 l 1
 142 -4.2 l 1
 271.55 -4.2 l 1
 271.55 104.9 l 1
 297.1 153.95 l 1
 362.95 153.95 l 1
 362.95 -4.2 l 1
 415.3 -4.2 l 1
 415.3 -77.2 l 1
 362.95 -87.05 l 1
 362.95 -198.65 l 1
 271.55 -198.65 l 1
 271.55 -93.35 l 1
 35.9 -93.35 l 1
 13.55 -55 l 1
EndSplineSet
EndChar

StartChar: fiveinferior
Encoding: 276 8325 174
Width: 418
VWidth: 0
Flags: HW
LayerCount: 2
Fore
SplineSet
46.95 -14.9 m 1
 61.95 279.2 l 1
 367.8 279.2 l 1
 367.8 193.05 l 1
 144.1 193.05 l 1
 137.85 86.55 l 1
 167.85 112.05 237.65 105.55 271.4 104.15 c 0
 351.2 101.7 384.95 50.95 384.95 -20.4 c 2
 384.95 -84.4 l 2
 384.95 -170.25 329.15 -203.65 264.05 -203.65 c 0
 180.6 -203.65 136.4 -203.95 46.6 -188.25 c 1
 46.6 -115.8 l 1
 246.4 -115.8 l 2
 285.25 -115.8 293.55 -95.55 293.55 -70.6 c 2
 293.55 -28.95 l 2
 293.55 -8.7 292.75 20.8 249.2 20.8 c 2
 163.95 20.8 l 2
 140.35 20.8 124.85 10.65 124.85 -14.9 c 1
 46.95 -14.9 l 1
EndSplineSet
EndChar

StartChar: sixinferior
Encoding: 277 8326 175
Width: 439
VWidth: 0
Flags: HW
LayerCount: 2
Fore
SplineSet
137.65 8.2 m 1
 137.65 -31.45 142.45 -113.2 199.75 -113.2 c 2
 272.5 -113.2 l 2
 301.65 -113.2 313.2 -102.05 313.2 -72.35 c 2
 313.2 -29.2 l 2
 313.2 1.55 302.15 8.2 273.9 8.2 c 2
 137.65 8.2 l 1
46.25 52.75 m 0
 47.55 242.75 106.25 278.05 169.95 283.8 c 0
 238.4 290.6 323.15 283.45 387.9 271.1 c 1
 387.9 199.75 l 1
 202 199.75 l 2
 140.9 199.75 138.3 125.9 137.65 76.85 c 1
 182.15 85.65 237.6 91.55 288.75 91.55 c 0
 384.45 91.55 404.6 39.8 404.6 -19.25 c 2
 404.6 -88.4 l 2
 404.6 -166.35 357.1 -199.35 287.7 -199.35 c 2
 182.8 -199.35 l 2
 104.85 -199.35 44.95 -159.2 46.25 52.75 c 0
EndSplineSet
EndChar

StartChar: seveninferior
Encoding: 278 8327 176
Width: 386
VWidth: 0
Flags: HW
LayerCount: 2
Fore
SplineSet
12.55 194.35 m 1
 12.55 280.5 l 1
 349.4 280.5 l 1
 373.05 239.7 l 1
 190.35 -199.35 l 1
 89.55 -199.35 l 1
 254.25 194.35 l 1
 12.55 194.35 l 1
EndSplineSet
EndChar

StartChar: eightinferior
Encoding: 279 8328 177
Width: 464
VWidth: 0
Flags: HW
LayerCount: 2
Fore
SplineSet
147.25 127.7 m 2
 147.25 92.45 167.6 84.25 189.95 84.25 c 2
 274.35 84.25 l 2
 315.05 84.25 317.7 107.5 317.7 127.7 c 2
 317.7 153.75 l 2
 317.7 193.35 301.4 200.5 271.1 200.5 c 2
 195.8 200.5 l 2
 159.55 200.5 147.25 191.7 147.25 153.75 c 2
 147.25 127.7 l 2
147.25 -39.15 m 2
 147.25 -79 l 2
 147.25 -106.1 156.55 -116.65 191.25 -116.65 c 2
 276.3 -116.65 l 2
 304.65 -116.65 317.7 -106 317.7 -79 c 2
 317.7 -39.15 l 2
 317.7 -10.2 305.25 3.05 277.3 3.05 c 2
 189.95 3.05 l 2
 160.65 3.05 147.25 -8.25 147.25 -39.15 c 2
55.85 -41.45 m 2
 55.85 1.3 79.25 25 111.2 32.3 c 1
 64.3 50.15 55.85 89.7 55.85 126.15 c 2
 55.85 167.2 l 2
 55.85 259.9 111.5 283.85 181.3 283.85 c 2
 292.35 283.85 l 2
 367.95 283.85 409.1 253.2 409.1 167.9 c 2
 409.1 131.75 l 2
 409.75 116.35 405.65 65 358.3 56.4 c 1
 398.9 49.35 409.1 -5.4 409.1 -33.75 c 2
 409.1 -89.3 l 2
 409.1 -182.4 354.55 -200.65 294.3 -200.65 c 2
 176.75 -200.65 l 2
 68.3 -200.65 55.85 -141.2 55.85 -91.4 c 2
 55.85 -41.45 l 2
EndSplineSet
EndChar

StartChar: nineinferior
Encoding: 280 8329 178
Width: 439
VWidth: 0
Flags: HW
LayerCount: 2
Fore
SplineSet
129.4 114.7 m 2
 129.4 83.25 140.8 76.25 169.05 76.25 c 2
 304.95 76.25 l 1
 304.95 117.65 302.1 199.75 244.8 199.75 c 2
 170.1 199.75 l 2
 140.95 199.75 129.4 188.25 129.4 157.85 c 2
 129.4 114.7 l 2
38 104.4 m 2
 38 173.9 l 2
 38 252.55 85.85 285.9 155.25 285.9 c 2
 259.8 285.9 l 2
 337.75 285.9 397.65 245.4 396.35 31.7 c 0
 395.05 -159.35 338.95 -194.35 273.3 -201.1 c 0
 204.85 -208.55 121.4 -201.4 54.7 -189.45 c 1
 54.7 -117.75 l 1
 239.95 -117.75 l 2
 301.05 -117.75 304.3 -43.2 304.95 7.25 c 1
 260.45 -1.55 205 -7.45 154.2 -7.45 c 0
 58.5 -7.45 38 44.65 38 104.4 c 2
EndSplineSet
EndChar

StartChar: zero.oldstyle
Encoding: 281 -1 179
Width: 635
VWidth: 0
Flags: HW
HStem: 0 109<196.252 440.496> 522.7 109<196.318 442.465>
VStem: 59.15 116<130.635 501.211> 460.15 116<126.336 502.404>
LayerCount: 2
Fore
SplineSet
175.15 186.85 m 2
 175.15 123.7 219.9 109 258.8 109 c 2
 380.1 109 l 2
 433.25 109 460.15 132.5 460.15 186.5 c 2
 460.15 445.2 l 2
 460.15 491.2 440.45 522.7 382.9 522.7 c 2
 256.35 522.7 l 2
 192.65 522.7 175.15 480.95 175.15 445.2 c 2
 175.15 186.85 l 2
59.15 172.5 m 2
 59.15 455.7 l 2
 59.15 571.4 133.35 631.7 238.85 631.7 c 2
 402.85 631.7 l 2
 532.9 631.7 576.15 554.75 576.15 459.2 c 2
 576.15 172.5 l 2
 576.15 53.5 508.85 0 402.5 0 c 2
 238.5 0 l 2
 133.85 0 59.15 52.5 59.15 172.5 c 2
EndSplineSet
Substitution2: "'tnum' Tabular Numbers in Latin lookup 7-1" zero.tosf
Substitution2: "'lnum' Lining Figures lookup 19-1" zero
EndChar

StartChar: one.oldstyle
Encoding: 282 -1 180
Width: 363
VWidth: 0
Flags: HW
HStem: 0 21G<175.95 291.95> 0 21G<175.95 291.95>
VStem: 175.95 116<0 512.65>
LayerCount: 2
Fore
SplineSet
25.45 470.55 m 1
 25.45 548.05 l 1
 176.65 632 l 1
 291.95 632 l 1
 291.95 0 l 1
 175.95 0 l 1
 175.95 512.65 l 1
 25.45 470.55 l 1
EndSplineSet
Substitution2: "'tnum' Tabular Numbers in Latin lookup 7-1" one.tosf
Substitution2: "'lnum' Lining Figures lookup 19-1" one
EndChar

StartChar: two.oldstyle
Encoding: 283 -1 181
Width: 592
VWidth: 0
Flags: HW
HStem: 0 109<254.95 546.55> 530.05 109.35<64.842 406> 530.05 85.85<34.7 216.236>
VStem: 433.15 113.4<381.857 502.075>
LayerCount: 2
Fore
SplineSet
34.7 530.05 m 1
 34.7 615.9 l 1
 127.1 631.3 212.9 642.65 338.05 639.4 c 1
 483.65 639.4 549.8 570.3 549.8 447.85 c 0
 549.8 288.4 312.25 140.4 254.95 109 c 1
 546.55 109 l 1
 546.55 0 l 1
 41.05 0 l 1
 41.05 103 l 1
 154.05 165.95 433.15 319.3 433.15 441.1 c 0
 433.15 505 397.2 532 309.05 530.05 c 1
 34.7 530.05 l 1
EndSplineSet
Substitution2: "'tnum' Tabular Numbers in Latin lookup 7-1" two.tosf
Substitution2: "'lnum' Lining Figures lookup 19-1" two
EndChar

StartChar: three.oldstyle
Encoding: 284 -1 182
Width: 604
VWidth: 0
Flags: HW
HStem: -102 110<82.1457 404.72> -74 82<49.3 149.832> 213.5 110<174.8 398.23> 220.5 93<110.3 260.8> 530 109<90.0586 401.719> 530 81<42.3 142.016>
VStem: 425.8 115.3<28.3221 186.079 347.443 503.436>
LayerCount: 2
Fore
SplineSet
42.3 530 m 1
 42.3 611 l 1
 130.3 642 246.8 641 363.8 639 c 0
 473.8 637 541.1 568.45 541.1 467 c 2
 541.1 408.5 l 2
 541.1 335.5 516.15 287.1 468.8 269 c 1
 517.5 245.1 541.1 197.5 541.1 121.5 c 2
 541.1 73 l 2
 541.1 -40.2 478.8 -102 356.8 -102 c 0
 242.8 -102 136.3 -105 48.3 -74 c 1
 49.3 8 l 1
 319.3 8 l 2
 381.05 8 423.8 17.45 423.8 85.25 c 2
 423.8 126.75 l 2
 423.8 193.55 382.8 211.15 325.3 213.5 c 2
 110.3 220.5 l 1
 110.3 313.5 l 1
 325.3 323.5 l 2
 394.3 326.5 425.8 349.25 425.8 405 c 2
 425.8 453 l 2
 425.8 513.1 377.3 530 325.3 530 c 2
 42.3 530 l 1
EndSplineSet
Substitution2: "'tnum' Tabular Numbers in Latin lookup 7-1" three.tosf
Substitution2: "'lnum' Lining Figures lookup 19-1" three
EndChar

StartChar: four.oldstyle
Encoding: 285 -1 183
Width: 614
VWidth: 0
Flags: HW
HStem: 69.5 113<183.3 401.85>
VStem: 401.85 116<-98 69.5 182.5 363.95>
DStem2: 16.85 124 183.3 182.5 0.486008 0.873954<132.022 581.266>
LayerCount: 2
Fore
SplineSet
16.85 124 m 1
 299.35 632 l 1
 429.35 632 l 1
 183.3 182.5 l 1
 401.85 182.5 l 1
 401.85 363.95 l 1
 435.35 440 l 1
 517.85 440 l 1
 517.85 182.5 l 1
 597.35 182.5 l 1
 597.35 92 l 1
 517.85 69.5 l 1
 517.85 -98 l 1
 401.85 -98 l 1
 401.85 69.5 l 1
 50.85 69.5 l 1
 16.85 124 l 1
EndSplineSet
Substitution2: "'tnum' Tabular Numbers in Latin lookup 7-1" four.tosf
Substitution2: "'lnum' Lining Figures lookup 19-1" four
EndChar

StartChar: five.oldstyle
Encoding: 286 -1 184
Width: 613
VWidth: 0
Flags: HW
HStem: -104 114<94.3848 412.269> -80 90<64.45 242.852> 251 105.5<195.534 415.383> 523 109<198.45 524.45>
VStem: 66.1 108<186.5 236.938> 433.6 116<31.4535 233.178>
LayerCount: 2
Fore
SplineSet
64.45 10 m 1
 354.45 10 l 2
 421 10 433.6 53.4 433.6 89 c 2
 433.6 171.35 l 2
 433.6 204.35 429.45 251 358.3 251 c 2
 242.8 251 l 2
 206.25 251 174.1 232.45 174.1 186.5 c 1
 66.1 186.5 l 1
 88.1 632 l 1
 524.45 632 l 1
 524.45 523 l 1
 198.45 523 l 1
 189.25 330 l 1
 207.45 346.65 234.75 353.55 260.1 356.5 c 0
 304.3 361.75 359.5 356.85 384.2 356.5 c 0
 501.5 353 549.6 280.15 549.6 180 c 2
 549.6 73 l 2
 549.6 -64 446.55 -104 371.95 -104 c 0
 247.95 -104 198.45 -103 64.45 -80 c 1
 64.45 10 l 1
EndSplineSet
Substitution2: "'tnum' Tabular Numbers in Latin lookup 7-1" five.tosf
Substitution2: "'lnum' Lining Figures lookup 19-1" five
EndChar

StartChar: six.oldstyle
Encoding: 287 -1 185
Width: 613
VWidth: 0
Flags: HW
HStem: -1 109<221.103 437.276> 333 105.5<174.405 432.076> 333 84.5<171.2 392.066> 629 87.55<290.289 539.7>
VStem: 55.2 116<172.576 333 417.5 558.482> 448.35 115.35<122.403 319.709>
LayerCount: 2
Fore
SplineSet
171.2 333 m 1
 171.2 234.8 179.05 108 273.3 108 c 2
 376.1 108 l 2
 420.8 108 448.35 117.65 448.35 176.75 c 2
 448.35 265 l 2
 448.35 319.7 420.7 333 377.85 333 c 2
 171.2 333 l 1
55.2 384 m 0
 55.2 649 142.1 731.35 227.2 736.25 c 0
 327.85 741.85 445.4 732 539.7 716.55 c 1
 539.7 629 l 1
 275.2 629 l 2
 184.2 629 172.5 497.65 171.2 417.5 c 1
 239.4 430.65 318.2 438.5 395.7 438.5 c 0
 535.2 438.5 563.7 364.35 563.7 275.5 c 2
 563.7 158.5 l 2
 563.7 40.2 493.9 -1 392.2 -1 c 2
 247.05 -1 l 2
 133.5 -0.35 55.2 69 55.2 384 c 0
EndSplineSet
Substitution2: "'tnum' Tabular Numbers in Latin lookup 7-1" six.tosf
Substitution2: "'lnum' Lining Figures lookup 19-1" six
EndChar

StartChar: seven.oldstyle
Encoding: 288 -1 186
Width: 551
VWidth: 0
Flags: HW
HStem: 523 109<25.45 381.45>
DStem2: 144.45 -100 273.75 -100 0.350925 0.936403<45.3747 666.549>
LayerCount: 2
Fore
SplineSet
25.45 523 m 1
 25.45 632 l 1
 492.15 632 l 1
 526.15 573.5 l 1
 273.75 -100 l 1
 144.45 -100 l 1
 381.45 523 l 1
 25.45 523 l 1
EndSplineSet
Substitution2: "'tnum' Tabular Numbers in Latin lookup 7-1" seven.tosf
Substitution2: "'lnum' Lining Figures lookup 19-1" seven
EndChar

StartChar: eight.oldstyle
Encoding: 289 -1 187
Width: 628
VWidth: 0
Flags: HW
HStem: 0 105.5<193.955 431.316> 323 101<195.794 433.255> 631.5 105.5<195.668 430.424>
VStem: 63.45 116<120.035 307.106 441.345 615.705> 448.95 116<122.524 305.888 437.21 616.654>
LayerCount: 2
Fore
SplineSet
179.45 494 m 2
 179.45 436.8 221.05 424 255.05 424 c 2
 376.6 424 l 2
 439.45 424 448.95 460.1 448.95 494 c 2
 448.95 548.7 l 2
 448.95 613.6 422.05 631.5 375.3 631.5 c 2
 262.2 631.5 l 2
 210.1 631.5 179.45 623.3 179.45 548.7 c 2
 179.45 494 l 2
179.45 171.65 m 2
 179.45 127.55 202.5 105.5 262.2 105.5 c 2
 374.65 105.5 l 2
 418 105.5 448.95 127.4 448.95 171.65 c 2
 448.95 253.9 l 2
 448.95 300.05 419.55 323 377.3 323 c 2
 255.05 323 l 2
 210.45 323 179.45 303.65 179.45 253.9 c 2
 179.45 171.65 l 2
63.45 162.75 m 2
 63.45 245 l 2
 63.45 310.6 99 343.9 144.6 355.5 c 1
 77.1 382.75 63.45 443.2 63.45 499 c 2
 63.45 564 l 2
 63.45 700.1 143.45 737 246.45 737 c 2
 395.95 737 l 2
 506.8 737 564.95 688.4 564.95 563.65 c 2
 564.95 506 l 2
 565.6 482.25 559.5 402.9 489.95 390 c 1
 549.2 378.95 565.6 298.15 564.95 255.15 c 2
 564.95 164.85 l 2
 564.95 23.3 470.5 0 394.95 0 c 2
 246.45 0 l 2
 68.15 0 63.45 113.7 63.45 162.75 c 2
EndSplineSet
Substitution2: "'tnum' Tabular Numbers in Latin lookup 7-1" eight.tosf
Substitution2: "'lnum' Lining Figures lookup 19-1" eight
EndChar

StartChar: nine.oldstyle
Encoding: 290 -1 188
Width: 613
VWidth: 0
Flags: HW
HStem: -85.2 87.55<74.9 324.439> 192.85 105.5<182.524 440.195> 213.85 84.5<222.534 443.4> 523.35 109<177.324 393.497>
VStem: 50.9 115.35<311.641 508.947> 443.4 116<72.868 213.85 298.35 458.774>
LayerCount: 2
Fore
SplineSet
166.25 366.35 m 2
 166.25 311.65 193.9 298.35 236.75 298.35 c 2
 443.4 298.35 l 1
 443.4 396.55 435.55 523.35 341.3 523.35 c 2
 238.5 523.35 l 2
 193.8 523.35 166.25 513.7 166.25 454.6 c 2
 166.25 366.35 l 2
50.9 355.85 m 2
 50.9 472.85 l 2
 50.9 591.15 120.7 632.35 222.4 632.35 c 2
 367.55 632.35 l 2
 481.1 631.7 559.4 562.35 559.4 247.35 c 0
 559.4 -17.65 472.5 -100 387.4 -104.9 c 0
 286.75 -110.5 170.5 -103.9 74.9 -85.2 c 1
 74.9 2.35 l 1
 339.4 2.35 l 2
 430.4 2.35 442.1 133.7 443.4 213.85 c 1
 375.2 200.7 296.4 192.85 218.9 192.85 c 0
 79.4 192.85 50.9 267 50.9 355.85 c 2
EndSplineSet
Substitution2: "'tnum' Tabular Numbers in Latin lookup 7-1" nine.tosf
Substitution2: "'lnum' Lining Figures lookup 19-1" nine
EndChar

StartChar: ampersand
Encoding: 38 38 189
Width: 664
VWidth: 0
Flags: HW
LayerCount: 2
Fore
SplineSet
165.85 147.2 m 0
 197.45 107.4 259.45 83.2 306.1 128.25 c 2
 367.2 186.45 l 1
 246.2 347.2 l 1
 185 294.8 l 2
 121.8 241.4 131.75 190.8 165.85 147.2 c 0
69.95 82 m 1
 -2.6 179.8 24.9 293.4 111.2 368.1 c 2
 186.7 433.05 l 1
 131.05 511.05 l 1
 52.05 618.05 131.05 720.2 207 730 c 0
 325.1 744.85 408 727 480 710 c 1
 480 627.1 l 1
 301.5 627.1 l 2
 221.8 627.1 202.65 597.75 259.4 520.5 c 2
 452.05 257.8 l 1
 570.95 373.65 l 1
 610.4 327.25 l 1
 553.8 219.9 l 1
 514.9 175.6 l 1
 644.5 0 l 1
 507.5 0 l 1
 432.85 101.55 l 1
 365.05 40.15 l 2
 292.1 -25.75 143.05 -24.6 69.95 82 c 1
EndSplineSet
AlternateSubs2: "'salt' Access All Alternates in Latin lookup 4-1" ampersand.salt
Substitution2: "'smcp' Lowercase to Small Capitals lookup 16-1" ampersand.smcp
EndChar

StartChar: asterisk
Encoding: 42 42 190
Width: 432
VWidth: 0
Flags: HW
LayerCount: 2
Fore
SplineSet
243.65 571 m 1
 363.3 648.75 l 1
 390 606.05 l 1
 295.5 509.05 l 1
 243.65 571 l 1
196.8 470.05 m 1
 241.3 538 l 1
 352.7 447.7 l 1
 324.35 407.3 l 1
 196.8 470.05 l 1
169.35 718.75 m 1
 218.15 736.85 l 1
 288.25 616.05 l 1
 213.25 584 l 1
 169.35 718.75 l 1
103.3 415.4 m 1
 127.65 551.45 l 1
 206.3 532 l 1
 150.8 400.25 l 1
 103.3 415.4 l 1
42.3 566 m 1
 42.3 616.5 l 1
 181.3 642 l 1
 186.3 561 l 1
 42.3 566 l 1
EndSplineSet
Substitution2: "'smcp' Lowercase to Small Capitals lookup 16-1" asterisk.smcp
EndChar

StartChar: Euro
Encoding: 291 8364 191
Width: 615
VWidth: 0
Flags: HW
LayerCount: 2
Fore
SplineSet
16.85 251.5 m 1
 16.85 312.5 l 1
 97.85 319.5 l 1
 97.85 399.5 l 1
 16.85 407.5 l 1
 16.85 464.5 l 1
 97.85 473.5 l 1
 97.85 545.5 94.85 740 338.85 740 c 0
 390.85 740 518.75 726.15 594.35 706.5 c 1
 594.35 619.5 l 1
 594.35 619.5 441.85 634.5 359.85 634.5 c 0
 220.65 634.5 213.85 573 213.85 473.5 c 1
 447.85 466.5 l 1
 447.85 406.5 l 1
 213.85 399.5 l 1
 213.85 319.5 l 1
 447.85 312.5 l 1
 447.85 251.5 l 1
 447.85 251.5 210.85 246.5 213.85 244.5 c 1
 213.85 125.55 278.45 96 359.85 96 c 0
 453 96 598.35 116.5 598.35 116.5 c 1
 598.35 32.5 l 1
 521.9 3.9 435.85 -6 338.85 -6 c 0
 261.85 -6 97.85 18.5 97.85 244.5 c 1
 16.85 251.5 l 1
EndSplineSet
Substitution2: "'smcp' Lowercase to Small Capitals lookup 16-1" Euro.smcp
EndChar

StartChar: parenleft
Encoding: 40 40 192
Width: 362
VWidth: 60
Flags: HW
LayerCount: 2
Fore
SplineSet
63.45 326 m 0
 63.45 632.2 232.95 860 232.95 860 c 1
 345.45 860 l 1
 345.45 860 179.45 604.3 179.45 326 c 0
 179.45 20.4 345.45 -210 345.45 -210 c 1
 232.95 -210 l 1
 232.95 -210 63.45 -18.35 63.45 326 c 0
EndSplineSet
Substitution2: "'case' Case-Sensitive Forms lookup 1-1" parenleft.alt
Substitution2: "'c2sc' Capitals to Small Capitals in Latin lookup 17 subtable" parenleft.smcp
Substitution2: "'smcp' Lowercase to Small Capitals lookup 16-1" parenleft.smcp
EndChar

StartChar: parenright
Encoding: 41 41 193
Width: 362
VWidth: 60
Flags: HW
LayerCount: 2
Fore
SplineSet
16.85 -210 m 1
 16.85 -210 182.85 20.4 182.85 326 c 0
 182.85 604.3 16.85 860 16.85 860 c 1
 129.35 860 l 1
 129.35 860 298.85 632.2 298.85 326 c 0
 298.85 -18.35 129.35 -210 129.35 -210 c 1
 16.85 -210 l 1
EndSplineSet
Substitution2: "'case' Case-Sensitive Forms lookup 1-1" parenright.alt
Substitution2: "'c2sc' Capitals to Small Capitals in Latin lookup 17 subtable" parenright.smcp
Substitution2: "'smcp' Lowercase to Small Capitals lookup 16-1" parenright.smcp
EndChar

StartChar: plus
Encoding: 43 43 194
Width: 495
VWidth: 0
Flags: HW
LayerCount: 2
Fore
SplineSet
39.5 305 m 1
 39.5 407 l 1
 195.5 407 l 1
 195.5 564 l 1
 297.5 564 l 1
 297.5 407 l 1
 455.5 407 l 1
 455.5 305 l 1
 297.5 305 l 1
 297.5 148 l 1
 195.5 148 l 1
 195.5 305 l 1
 39.5 305 l 1
EndSplineSet
EndChar

StartChar: endash
Encoding: 292 8211 195
Width: 513
VWidth: 0
Flags: HW
LayerCount: 2
Fore
SplineSet
20 236 m 1
 20 339 l 1
 493 339 l 1
 493 236 l 1
 20 236 l 1
EndSplineSet
Substitution2: "'case' Case-Sensitive Forms lookup 1-1" endash.alt
Substitution2: "'c2sc' Capitals to Small Capitals in Latin lookup 17 subtable" endash.smcp
Substitution2: "'smcp' Lowercase to Small Capitals lookup 16-1" endash.smcp
EndChar

StartChar: emdash
Encoding: 293 8212 196
Width: 736
VWidth: 0
Flags: HW
LayerCount: 2
Fore
SplineSet
20 238 m 1
 20 341 l 1
 716 341 l 1
 716 238 l 1
 20 238 l 1
EndSplineSet
Substitution2: "'case' Case-Sensitive Forms lookup 1-1" emdash.alt
Substitution2: "'c2sc' Capitals to Small Capitals in Latin lookup 17 subtable" emdash.smcp
Substitution2: "'smcp' Lowercase to Small Capitals lookup 16-1" emdash.smcp
EndChar

StartChar: less
Encoding: 60 60 197
Width: 459
VWidth: 0
Flags: HW
LayerCount: 2
Fore
SplineSet
42.3 297.2 m 1
 42.3 408.7 l 1
 417.3 559.5 l 1
 417.3 448 l 1
 173.15 353.65 l 1
 417.3 249.3 l 1
 417.3 136.5 l 1
 42.3 297.2 l 1
EndSplineSet
EndChar

StartChar: equal
Encoding: 61 61 198
Width: 467
VWidth: 0
Flags: HW
LayerCount: 2
Fore
SplineSet
20 407 m 1
 20 509 l 1
 447 509 l 1
 447 407 l 1
 20 407 l 1
20 194.5 m 1
 20 296.5 l 1
 447 296.5 l 1
 447 194.5 l 1
 20 194.5 l 1
EndSplineSet
EndChar

StartChar: greater
Encoding: 62 62 199
Width: 459
VWidth: 0
Flags: HW
LayerCount: 2
Fore
SplineSet
42.3 136.5 m 1
 42.3 249.3 l 1
 286.45 353.65 l 1
 42.3 448 l 1
 42.3 559.5 l 1
 417.3 408.7 l 1
 417.3 297.2 l 1
 42.3 136.5 l 1
EndSplineSet
EndChar

StartChar: multiply
Encoding: 215 215 200
Width: 460
VWidth: 0
Flags: HW
LayerCount: 2
Fore
SplineSet
47.6 244.8 m 1
 158.45 355 l 1
 47.6 466.2 l 1
 119.2 538.8 l 1
 230.4 427.6 l 1
 342.25 539.15 l 1
 414.2 467.2 l 1
 302.35 355 l 1
 413.55 244.8 l 1
 341.6 172.2 l 1
 230.4 283.05 l 1
 120.2 172.85 l 1
 47.6 244.8 l 1
EndSplineSet
EndChar

StartChar: divide
Encoding: 247 247 201
Width: 504
VWidth: 0
Flags: HW
LayerCount: 2
Fore
SplineSet
195.55 475.85 m 2
 195.55 537.9 l 2
 195.55 552.9 203.55 562.9 219.55 562.9 c 2
 284.6 562.9 l 2
 300.65 562.9 308.3 552.6 308.3 537.9 c 2
 308.3 475.85 l 2
 308.3 459.8 298.6 452.85 284.6 452.85 c 2
 219.55 452.85 l 2
 205.55 452.85 195.55 461.85 195.55 475.85 c 2
195.55 161.45 m 2
 195.55 223.5 l 2
 195.55 238.5 203.55 248.5 219.55 248.5 c 2
 284.6 248.5 l 2
 300.65 248.5 308.3 238.2 308.3 223.5 c 2
 308.3 161.45 l 2
 308.3 145.4 298.6 138.45 284.6 138.45 c 2
 219.55 138.45 l 2
 205.55 138.45 195.55 147.45 195.55 161.45 c 2
42.3 302 m 1
 42.3 404 l 1
 462.15 404 l 1
 462.15 302 l 1
 42.3 302 l 1
EndSplineSet
EndChar

StartChar: question
Encoding: 63 63 202
Width: 542
VWidth: 0
Flags: HW
LayerCount: 2
Fore
SplineSet
164.75 23 m 2
 164.75 101 l 2
 164.75 116 172.75 126 188.75 126 c 2
 264.05 126 l 2
 280.1 126 287.75 115.7 287.75 101 c 2
 287.75 23 l 2
 287.75 6.95 278.05 0 264.05 0 c 2
 188.75 0 l 2
 174.75 0 164.75 9 164.75 23 c 2
16.85 629 m 1
 16.85 715.5 l 1
 113.25 732 183.85 744 298.85 739 c 1
 450.85 739 508.35 645 508.35 547 c 2
 508.35 463.5 l 2
 508.35 328.5 421.7 273.25 275.85 289 c 1
 275.85 195 l 1
 176.35 195 l 1
 176.35 378 l 1
 300.85 378 l 1
 349.85 380 393.35 402.8 393.35 464.9 c 2
 393.35 535.8 l 2
 393.35 601.9 356.85 629 273.85 629 c 2
 16.85 629 l 1
EndSplineSet
Substitution2: "'smcp' Lowercase to Small Capitals lookup 16-1" question.smcp
EndChar

StartChar: bracketleft
Encoding: 91 91 203
Width: 329
VWidth: 60
Flags: HW
LayerCount: 2
Fore
SplineSet
72.05 -20.5 m 2
 72.05 659.5 l 2
 72.05 744.7 101.75 842 229.05 842 c 2
 312.55 842 l 1
 312.55 740 l 1
 250.05 740 l 2
 212.05 740 188.05 709 188.05 649 c 2
 188.05 -17 l 2
 188.05 -77 212.05 -108 250.05 -108 c 2
 312.55 -108 l 1
 312.55 -210 l 1
 229.05 -210 l 2
 91.25 -210 72.05 -93.8 72.05 -20.5 c 2
EndSplineSet
EndChar

StartChar: bracketright
Encoding: 93 93 204
Width: 329
VWidth: 60
Flags: HW
LayerCount: 2
Fore
SplineSet
16.85 -108 m 1
 79.35 -108 l 2
 117.35 -108 141.35 -77 141.35 -17 c 2
 141.35 649 l 2
 141.35 709 117.35 740 79.35 740 c 2
 16.85 740 l 1
 16.85 842 l 1
 100.35 842 l 2
 227.65 842 257.35 744.7 257.35 659.5 c 2
 257.35 -20.5 l 2
 257.35 -93.8 238.15 -210 100.35 -210 c 2
 16.85 -210 l 1
 16.85 -108 l 1
EndSplineSet
EndChar

StartChar: braceleft
Encoding: 123 123 205
Width: 320
VWidth: 60
Flags: HW
LayerCount: 2
Fore
SplineSet
16.85 287.75 m 1
 16.85 379.25 l 1
 49.85 382.25 96.35 385.8 96.35 432.25 c 2
 96.35 656 l 2
 96.35 760.4 160 842 303.85 842 c 1
 303.85 740 l 1
 248.2 740 212.35 719 212.35 628 c 2
 212.35 427 l 2
 212.35 369.9 174.3 341.6 120.35 334 c 1
 174.3 324.9 211.35 291.25 211.35 244 c 2
 211.35 -13.5 l 2
 211.35 -78.5 242.25 -114.1 303.85 -111.5 c 1
 303.85 -210 l 1
 145.4 -210 95.35 -132.1 95.35 -38 c 2
 95.35 234.75 l 2
 95.35 273.95 56.85 290.75 16.85 287.75 c 1
EndSplineSet
EndChar

StartChar: braceright
Encoding: 125 125 206
Width: 320
VWidth: 60
Flags: HW
LayerCount: 2
Fore
SplineSet
16.85 -111.5 m 1
 78.45 -114.1 109.35 -78.5 109.35 -13.5 c 2
 109.35 244 l 2
 109.35 291.25 146.4 324.9 200.35 334 c 1
 146.4 341.6 108.35 369.9 108.35 427 c 2
 108.35 628 l 2
 108.35 719 72.5 740 16.85 740 c 1
 16.85 842 l 1
 160.7 842 224.35 760.4 224.35 656 c 2
 224.35 432.25 l 2
 224.35 385.8 270.85 382.25 303.85 379.25 c 1
 303.85 287.75 l 1
 263.85 290.75 225.35 273.95 225.35 234.75 c 2
 225.35 -38 l 2
 225.35 -132.1 175.3 -210 16.85 -210 c 1
 16.85 -111.5 l 1
EndSplineSet
EndChar

StartChar: at
Encoding: 64 64 207
Width: 859
VWidth: 0
Flags: HW
LayerCount: 2
Fore
SplineSet
330.5 131.85 m 0
 330.5 110.85 351.5 88.85 382.4 89.5 c 1
 430.9 88.85 480.75 110.4 517.8 136.5 c 1
 517.8 231.5 l 1
 380 219 l 2
 346.65 215.7 329.85 196.45 330.5 165.3 c 0
 330.15 164.3 330.15 132.85 330.5 131.85 c 0
55.2 7 m 2
 55.2 327 l 2
 55.2 394.5 78.2 512 247.7 512 c 2
 448 512 l 2
 527.75 512 615 488.3 615 361.5 c 2
 615 0 l 1
 537.3 0 l 1
 519.8 60.5 l 1
 517.8 60.5 447.5 -9 356.5 -9 c 1
 275.5 -10.3 227.85 50.5 228.5 118.5 c 2
 228.5 164.5 l 2
 228.5 250.8 279.05 301 368 301 c 0
 425.15 301 517.8 300 517.8 301 c 2
 517.8 301 518.8 355.65 517.8 356 c 1
 517.8 403.95 493.75 413.5 447.8 413.5 c 2
 247.7 413.5 l 2
 199.7 413.5 153.7 403.5 153.7 323.5 c 2
 153.7 14 l 2
 153.7 -76 207.7 -92.5 247.7 -92.5 c 2
 586.2 -92.5 l 2
 668.2 -92.5 689.2 -54 689.2 14 c 2
 689.2 491 l 2
 689.2 568 647.2 606.75 586.2 606.75 c 2
 182.2 606.75 l 1
 182.2 678.25 l 1
 230.2 688.25 354.7 706.25 480.7 705.25 c 1
 586.2 705.25 l 1
 695.35 703.95 787.7 643.65 787.7 491 c 2
 787.7 14 l 2
 787.7 -115.5 730.85 -192 589.7 -192 c 2
 247.7 -192 l 2
 138.7 -192 55.2 -131.75 55.2 7 c 2
EndSplineSet
Substitution2: "'case' Case-Sensitive Forms lookup 1-1" at.alt
Substitution2: "'smcp' Lowercase to Small Capitals lookup 16-1" at.smcp
EndChar

StartChar: breve
Encoding: 294 728 208
Width: 313
VWidth: 0
Flags: HW
LayerCount: 2
Fore
SplineSet
42.3 644 m 1
 96.3 644 l 1
 96.3 608.15 123.65 584 156.3 584 c 0
 194.3 584 218.3 606.9 218.3 644 c 1
 272.3 644 l 1
 272.3 570.8 216.9 530 156.3 530 c 0
 96.4 530 42.3 573.4 42.3 644 c 1
EndSplineSet
EndChar

StartChar: ogonek
Encoding: 295 731 209
Width: 214
VWidth: 0
Flags: HW
LayerCount: 2
Fore
SplineSet
116.6 0 m 1
 166.1 0 l 1
 85.2 -62.75 108.65 -114.8 172.6 -114 c 1
 172.6 -184.5 l 1
 63.2 -206.8 -28.5 -68.9 116.6 0 c 1
EndSplineSet
EndChar

StartChar: caron
Encoding: 296 711 210
Width: 387
VWidth: 0
Flags: HW
LayerCount: 2
Fore
SplineSet
42.3 664.5 m 1
 127.95 664.5 l 1
 197.1 600.5 l 1
 259.45 664.5 l 1
 344.8 664.5 l 1
 242.2 531 l 1
 150.2 531 l 1
 42.3 664.5 l 1
EndSplineSet
Substitution2: "'smcp' Lowercase to Small Capitals lookup 16-1" caron.smcp
EndChar

StartChar: hungarumlaut
Encoding: 297 733 211
Width: 393
VWidth: 0
Flags: HW
LayerCount: 2
Fore
SplineSet
165.15 531 m 1
 261.65 667.5 l 1
 374.15 667.5 l 1
 248.15 531 l 1
 165.15 531 l 1
16.85 531 m 1
 113.35 667.5 l 1
 225.85 667.5 l 1
 99.85 531 l 1
 16.85 531 l 1
EndSplineSet
EndChar

StartChar: dotaccent
Encoding: 298 729 212
Width: 195
VWidth: 0
Flags: HW
LayerCount: 2
Fore
SplineSet
42.3 549 m 2
 42.3 617 l 2
 42.3 632 50.3 642 66.3 642 c 2
 130.3 642 l 2
 145.3 642 153.3 631 153.3 617 c 2
 153.3 549 l 2
 153.3 534 144.3 526 130.3 526 c 2
 66.3 526 l 2
 52.3 526 42.3 535 42.3 549 c 2
EndSplineSet
EndChar

StartChar: Aogonek
Encoding: 299 260 213
Width: 684
VWidth: 0
Flags: HW
LayerCount: 2
Fore
SplineSet
257.35 283.25 m 1
 452.6 283.25 l 1
 357.35 573.5 l 1
 257.35 283.25 l 1
38 0 m 1
 293 732 l 1
 421.25 732 l 1
 666 0 l 1
 629.876 1.22643e-08 l 1
 549.8 -62.5096 573.299 -114.26 637.066 -113.463 c 1
 637.066 -183.963 l 1
 527.95 -206.205 436.441 -69.077 579.943 -1.85908e-06 c 1
 539.15 0 l 1
 483.15 177.4 l 1
 224.4 177.4 l 1
 166.8 0 l 1
 38 0 l 1
EndSplineSet
Substitution2: "'c2sc' Capitals to Small Capitals in Latin lookup 17 subtable" aogonek.smcp
EndChar

StartChar: Lcaron
Encoding: 300 317 214
Width: 546
VWidth: 0
Flags: HW
LayerCount: 2
Fore
SplineSet
251.3 705 m 1
 251.3 772 l 1
 339.3 772 l 1
 339.3 705 l 1
 329.3 571 l 1
 262.3 571 l 1
 251.3 705 l 1
67.75 136.5 m 2
 67.75 732 l 1
 183.75 732 l 1
 183.75 161 l 2
 183.75 108 216.75 109 245.75 109 c 2
 516.75 109 l 1
 516.75 0 l 1
 214.25 0 l 2
 139.495 0 67.75 23.5 67.75 136.5 c 2
EndSplineSet
Substitution2: "'c2sc' Capitals to Small Capitals in Latin lookup 17 subtable" lcaron.smcp
EndChar

StartChar: Sacute
Encoding: 301 346 215
Width: 588
VWidth: 0
Flags: HW
LayerCount: 2
Fore
SplineSet
55.2002 488.75 m 2
 55.2002 553 l 2
 55.2002 698 141.2 736.95 253.2 738 c 0
 339.45 739.4 473.6 723.55 524.2 710.85 c 1
 524.2 619 l 1
 460.2 624.05 300.8 629 277.7 629 c 0
 213.3 630.95 171.2 625.7 171.2 546 c 2
 171.2 499.25 l 2
 171.2 429.25 200.6 418.75 258.5 418.75 c 2
 383.7 418.75 l 2
 523.35 418.75 550.55 314.05 550.55 232.75 c 2
 550.55 177 l 2
 550.55 19.5996 447.2 -8 348.2 -8 c 0
 250.9 -8 142.45 3.0498 77.5498 20.1504 c 1
 77.5498 112 l 1
 117.55 108 237.7 101 330.7 101 c 0
 372.4 101 434.55 106.15 434.55 173.85 c 2
 434.55 223.65 l 2
 434.55 270.85 420.35 302.75 362.7 302.75 c 2
 240.2 302.75 l 2
 69.7002 302.75 55.2002 417.7 55.2002 488.75 c 2
265.004 798.297 m 1
 361.504 934.797 l 1
 474.004 934.797 l 1
 348.004 798.297 l 1
 265.004 798.297 l 1
EndSplineSet
Substitution2: "'c2sc' Capitals to Small Capitals in Latin lookup 17 subtable" sacute.smcp
EndChar

StartChar: Scaron
Encoding: 302 352 216
Width: 588
VWidth: 0
Flags: HW
LayerCount: 2
Fore
SplineSet
55.2002 488.75 m 2
 55.2002 553 l 2
 55.2002 698 141.2 736.95 253.2 738 c 0
 339.45 739.4 473.6 723.55 524.2 710.85 c 1
 524.2 619 l 1
 460.2 624.05 300.8 629 277.7 629 c 0
 213.3 630.95 171.2 625.7 171.2 546 c 2
 171.2 499.25 l 2
 171.2 429.25 200.6 418.75 258.5 418.75 c 2
 383.7 418.75 l 2
 523.35 418.75 550.55 314.05 550.55 232.75 c 2
 550.55 177 l 2
 550.55 19.5996 447.2 -8 348.2 -8 c 0
 250.9 -8 142.45 3.0498 77.5498 20.1504 c 1
 77.5498 112 l 1
 117.55 108 237.7 101 330.7 101 c 0
 372.4 101 434.55 106.15 434.55 173.85 c 2
 434.55 223.65 l 2
 434.55 270.85 420.35 302.75 362.7 302.75 c 2
 240.2 302.75 l 2
 69.7002 302.75 55.2002 417.7 55.2002 488.75 c 2
156.729 931.797 m 1
 242.379 931.797 l 1
 311.529 867.797 l 1
 373.879 931.797 l 1
 459.229 931.797 l 1
 356.629 798.297 l 1
 264.629 798.297 l 1
 156.729 931.797 l 1
EndSplineSet
Substitution2: "'c2sc' Capitals to Small Capitals in Latin lookup 17 subtable" scaron.smcp
EndChar

StartChar: Scedilla
Encoding: 303 350 217
Width: 588
VWidth: 0
Flags: HW
LayerCount: 2
Fore
SplineSet
55.2002 488.75 m 2
 55.2002 553 l 2
 55.2002 698 141.2 736.95 253.2 738 c 0
 339.45 739.4 473.6 723.55 524.2 710.85 c 1
 524.2 619 l 1
 460.2 624.05 300.8 629 277.7 629 c 0
 213.3 630.95 171.2 625.7 171.2 546 c 2
 171.2 499.25 l 2
 171.2 429.25 200.6 418.75 258.5 418.75 c 2
 383.7 418.75 l 2
 523.35 418.75 550.55 314.05 550.55 232.75 c 2
 550.55 177 l 2
 550.55 19.5996 447.2 -8 348.2 -8 c 0
 250.9 -8 142.45 3.0498 77.5498 20.1504 c 1
 77.5498 112 l 1
 117.55 108 237.7 101 330.7 101 c 0
 372.4 101 434.55 106.15 434.55 173.85 c 2
 434.55 223.65 l 2
 434.55 270.85 420.35 302.75 362.7 302.75 c 2
 240.2 302.75 l 2
 69.7002 302.75 55.2002 417.7 55.2002 488.75 c 2
196 -132.1 m 1
 243.4 -117.1 l 1
 271.4 -105.1 274 -82.2998 274 -44.2998 c 1
 358.5 -44.2998 l 1
 358.5 -146.3 334.7 -183.8 250.5 -183.8 c 2
 196 -183.8 l 1
 196 -132.1 l 1
EndSplineSet
Substitution2: "'c2sc' Capitals to Small Capitals in Latin lookup 17 subtable" scedilla.smcp
EndChar

StartChar: Tcaron
Encoding: 304 356 218
Width: 588
VWidth: 0
Flags: HW
LayerCount: 2
Fore
SplineSet
36.25 623 m 1
 36.25 732 l 1
 565.25 732 l 1
 565.25 623 l 1
 355.75 623 l 1
 355.75 0 l 1
 239.75 0 l 1
 239.75 623 l 1
 36.25 623 l 1
143 930.5 m 1
 228.65 930.5 l 1
 297.8 866.5 l 1
 360.15 930.5 l 1
 445.5 930.5 l 1
 342.9 797 l 1
 250.9 797 l 1
 143 930.5 l 1
EndSplineSet
Substitution2: "'c2sc' Capitals to Small Capitals in Latin lookup 17 subtable" tcaron.smcp
EndChar

StartChar: Zacute
Encoding: 305 377 219
Width: 559
VWidth: 0
Flags: HW
LayerCount: 2
Fore
SplineSet
29.75 0 m 1
 29.75 109 l 1
 387.25 623 l 1
 29.75 623 l 1
 29.75 732 l 1
 529.75 732 l 1
 529.75 623 l 1
 182.75 109 l 1
 529.75 109 l 1
 529.75 0 l 1
 29.75 0 l 1
238.25 797 m 1
 334.75 933.5 l 1
 447.25 933.5 l 1
 321.25 797 l 1
 238.25 797 l 1
EndSplineSet
Substitution2: "'c2sc' Capitals to Small Capitals in Latin lookup 17 subtable" zacute.smcp
EndChar

StartChar: Zcaron
Encoding: 306 381 220
Width: 559
VWidth: 0
Flags: HW
LayerCount: 2
Fore
SplineSet
29.75 0 m 1
 29.75 109 l 1
 387.25 623 l 1
 29.75 623 l 1
 29.75 732 l 1
 529.75 732 l 1
 529.75 623 l 1
 182.75 109 l 1
 529.75 109 l 1
 529.75 0 l 1
 29.75 0 l 1
128.5 930.5 m 1
 214.15 930.5 l 1
 283.3 866.5 l 1
 345.65 930.5 l 1
 431 930.5 l 1
 328.4 797 l 1
 236.4 797 l 1
 128.5 930.5 l 1
EndSplineSet
Substitution2: "'c2sc' Capitals to Small Capitals in Latin lookup 17 subtable" zcaron.smcp
EndChar

StartChar: Zdotaccent
Encoding: 307 379 221
Width: 559
VWidth: 0
Flags: HW
LayerCount: 2
Fore
SplineSet
29.75 0 m 1
 29.75 109 l 1
 387.25 623 l 1
 29.75 623 l 1
 29.75 732 l 1
 529.75 732 l 1
 529.75 623 l 1
 182.75 109 l 1
 529.75 109 l 1
 529.75 0 l 1
 29.75 0 l 1
224.25 820 m 2
 224.25 888 l 2
 224.25 903 232.25 913 248.25 913 c 2
 312.25 913 l 2
 327.25 913 335.25 902 335.25 888 c 2
 335.25 820 l 2
 335.25 805 326.25 797 312.25 797 c 2
 248.25 797 l 2
 234.25 797 224.25 806 224.25 820 c 2
EndSplineSet
Substitution2: "'c2sc' Capitals to Small Capitals in Latin lookup 17 subtable" zdotaccent.smcp
EndChar

StartChar: aogonek
Encoding: 308 261 222
Width: 519
VWidth: 0
Flags: HW
LayerCount: 2
Fore
SplineSet
149.7 146.4 m 2
 149.7 100.85 174 92.5 202.75 92.5 c 0
 269.1 92.5 361.05 137.2 361.05 137.2 c 1
 361.05 251.15 l 1
 198.55 239 l 2
 159.4 235.35 149.7 207.4 149.7 181 c 2
 149.7 146.4 l 2
33.7002 131.95 m 2
 33.7002 185.95 l 2
 33.7002 264.2 78.4502 327 181.05 327 c 2
 181.05 327 361.05 326 361.05 327 c 2
 361.05 327 362.05 372 361.05 373 c 1
 361.05 431.2 332.55 444.5 286.05 444.5 c 0
 230.5 444.5 114.1 437.4 51.0498 432.85 c 1
 51.0498 507.5 l 1
 121.35 532.05 200.2 540.35 299.2 541 c 0
 402.15 541.65 477.05 500.15 477.05 376.5 c 2
 477.05 0 l 1
 458.547 1.40682e-09 l 1
 377.854 -62.6902 401.315 -114.665 465.22 -113.866 c 1
 465.22 -184.366 l 1
 355.891 -206.652 264.239 -68.9449 408.938 4.78829e-06 c 1
 386.7 0 l 1
 361.05 60.5 l 1
 356.6 53.1504 262.25 -7.0498 177.55 -6 c 0
 86 -4.25 33.7002 57.0996 33.7002 131.95 c 2
EndSplineSet
AlternateSubs2: "'salt' Access All Alternates in Latin lookup 4-1" aogonek.salt
Substitution2: "'smcp' Lowercase to Small Capitals lookup 16-1" aogonek.smcp
EndChar

StartChar: lcaron
Encoding: 309 318 223
Width: 337
VWidth: 0
Flags: HW
LayerCount: 2
Fore
SplineSet
235.9 714.35 m 1
 235.9 781.35 l 1
 323.9 781.35 l 1
 323.9 714.35 l 1
 313.9 580.35 l 1
 246.9 580.35 l 1
 235.9 714.35 l 1
50.9 189 m 2
 50.9 783 l 1
 166.9 783 l 1
 166.9 203 l 2
 166.9 122.3 181.25 107 216.9 95 c 1
 216.9 95 284.9 74 291.9 74 c 1
 291.9 0 l 1
 186.4 0 l 2
 92.05 0 50.9 48 50.9 189 c 2
EndSplineSet
Substitution2: "'smcp' Lowercase to Small Capitals lookup 16-1" lcaron.smcp
EndChar

StartChar: sacute
Encoding: 310 347 224
Width: 507
VWidth: 0
Flags: HW
LayerCount: 2
Fore
SplineSet
33.7002 351 m 2
 33.7002 397 l 2
 33.7002 479 68.7002 536 171.7 536 c 0
 255.55 536 402.05 529.9 447.05 513 c 1
 447.05 436.05 l 1
 199 436.05 l 2
 152.85 436.05 149.7 419.8 149.7 391.4 c 2
 149.7 359.4 l 2
 149.7 318.05 170.75 316.75 199 316.75 c 2
 336.7 316.75 l 2
 432.8 316.75 473.7 258.9 473.7 182.5 c 2
 473.7 130 l 2
 473.7 21 407.7 -5 343.7 -5 c 0
 261.8 -5 93 3.34961 55.7002 20.2998 c 1
 55.7002 95.9502 l 1
 315 95.9502 l 2
 320.95 95.9502 357.7 94.5 357.7 137 c 2
 357.7 170.6 l 2
 357.7 197.55 349.2 212.65 315 212.65 c 2
 178.7 212.65 l 2
 84.7002 212.65 33.7002 248 33.7002 351 c 2
212.2 599.25 m 1
 308.7 735.75 l 1
 421.2 735.75 l 1
 295.2 599.25 l 1
 212.2 599.25 l 1
EndSplineSet
Substitution2: "'smcp' Lowercase to Small Capitals lookup 16-1" sacute.smcp
EndChar

StartChar: scaron
Encoding: 311 353 225
Width: 507
VWidth: 0
Flags: HW
LayerCount: 2
Fore
SplineSet
33.7002 351 m 2
 33.7002 397 l 2
 33.7002 479 68.7002 536 171.7 536 c 0
 255.55 536 402.05 529.9 447.05 513 c 1
 447.05 436.05 l 1
 199 436.05 l 2
 152.85 436.05 149.7 419.8 149.7 391.4 c 2
 149.7 359.4 l 2
 149.7 318.05 170.75 316.75 199 316.75 c 2
 336.7 316.75 l 2
 432.8 316.75 473.7 258.9 473.7 182.5 c 2
 473.7 130 l 2
 473.7 21 407.7 -5 343.7 -5 c 0
 261.8 -5 93 3.34961 55.7002 20.2998 c 1
 55.7002 95.9502 l 1
 315 95.9502 l 2
 320.95 95.9502 357.7 94.5 357.7 137 c 2
 357.7 170.6 l 2
 357.7 197.55 349.2 212.65 315 212.65 c 2
 178.7 212.65 l 2
 84.7002 212.65 33.7002 248 33.7002 351 c 2
107.2 732.75 m 1
 192.85 732.75 l 1
 262 668.75 l 1
 324.35 732.75 l 1
 409.7 732.75 l 1
 307.1 599.25 l 1
 215.1 599.25 l 1
 107.2 732.75 l 1
EndSplineSet
Substitution2: "'smcp' Lowercase to Small Capitals lookup 16-1" scaron.smcp
EndChar

StartChar: scedilla
Encoding: 312 351 226
Width: 507
VWidth: 0
Flags: HW
LayerCount: 2
Fore
SplineSet
33.7002 351 m 2
 33.7002 397 l 2
 33.7002 479 68.7002 536 171.7 536 c 0
 255.55 536 402.05 529.9 447.05 513 c 1
 447.05 436.05 l 1
 199 436.05 l 2
 152.85 436.05 149.7 419.8 149.7 391.4 c 2
 149.7 359.4 l 2
 149.7 318.05 170.75 316.75 199 316.75 c 2
 336.7 316.75 l 2
 432.8 316.75 473.7 258.9 473.7 182.5 c 2
 473.7 130 l 2
 473.7 21 407.7 -5 343.7 -5 c 0
 261.8 -5 93 3.34961 55.7002 20.2998 c 1
 55.7002 95.9502 l 1
 315 95.9502 l 2
 320.95 95.9502 357.7 94.5 357.7 137 c 2
 357.7 170.6 l 2
 357.7 197.55 349.2 212.65 315 212.65 c 2
 178.7 212.65 l 2
 84.7002 212.65 33.7002 248 33.7002 351 c 2
106.65 -126.1 m 1
 154.05 -111.1 l 1
 182.05 -99.0996 184.65 -76.2998 184.65 -38.2998 c 1
 269.15 -38.2998 l 1
 269.15 -140.3 245.35 -177.8 161.15 -177.8 c 2
 106.65 -177.8 l 1
 106.65 -126.1 l 1
EndSplineSet
Substitution2: "'smcp' Lowercase to Small Capitals lookup 16-1" scedilla.smcp
EndChar

StartChar: tcaron
Encoding: 313 357 227
Width: 397
VWidth: 0
Flags: HW
LayerCount: 2
Fore
SplineSet
280.5 800.35 m 1
 369.15 800.35 l 1
 369.15 733.35 l 1
 358.5 599.35 l 1
 291.5 599.35 l 1
 281.15 733.35 l 1
 280.5 800.35 l 1
16.85 437 m 1
 16.85 507 l 1
 107.45 532 l 1
 128.95 680 l 1
 223.45 680 l 1
 223.45 532 l 1
 355.35 532 l 1
 355.35 437 l 1
 223.45 437 l 1
 223.45 204 l 2
 223.45 122.6 243.3 104.7 273.1 95.3 c 1
 273.1 95.3 341.1 74.3 348.1 74.3 c 1
 348.1 0.3 l 1
 238.4 0.3 l 2
 160.35 0.3 107.45 49 107.45 190 c 2
 107.45 437 l 1
 16.85 437 l 1
EndSplineSet
AlternateSubs2: "'salt' Access All Alternates in Latin lookup 4-1" tcaron.salt
Substitution2: "'smcp' Lowercase to Small Capitals lookup 16-1" tcaron.smcp
EndChar

StartChar: zacute
Encoding: 314 378 228
Width: 467
VWidth: 0
Flags: HW
LayerCount: 2
Fore
SplineSet
25.4502 429 m 1
 25.4502 531 l 1
 442.45 531 l 1
 442.45 429 l 1
 194.5 103 l 1
 442.45 103 l 1
 443.45 102 442.45 1 442.45 1 c 1
 40.4502 1 l 1
 40.4502 102.3 l 1
 297.25 429 l 1
 25.4502 429 l 1
192.45 596 m 1
 288.95 732.5 l 1
 401.45 732.5 l 1
 275.45 596 l 1
 192.45 596 l 1
EndSplineSet
Substitution2: "'smcp' Lowercase to Small Capitals lookup 16-1" zacute.smcp
EndChar

StartChar: zcaron
Encoding: 315 382 229
Width: 467
VWidth: 0
Flags: HW
LayerCount: 2
Fore
SplineSet
25.4502 429 m 1
 25.4502 531 l 1
 442.45 531 l 1
 442.45 429 l 1
 194.5 103 l 1
 442.45 103 l 1
 443.45 102 442.45 1 442.45 1 c 1
 40.4502 1 l 1
 40.4502 102.3 l 1
 297.25 429 l 1
 25.4502 429 l 1
82.7002 729.5 m 1
 168.35 729.5 l 1
 237.5 665.5 l 1
 299.85 729.5 l 1
 385.2 729.5 l 1
 282.6 596 l 1
 190.6 596 l 1
 82.7002 729.5 l 1
EndSplineSet
Substitution2: "'smcp' Lowercase to Small Capitals lookup 16-1" zcaron.smcp
EndChar

StartChar: zdotaccent
Encoding: 316 380 230
Width: 467
VWidth: 0
Flags: HW
LayerCount: 2
Fore
SplineSet
25.4502 429 m 1
 25.4502 531 l 1
 442.45 531 l 1
 442.45 429 l 1
 194.5 103 l 1
 442.45 103 l 1
 443.45 102 442.45 1 442.45 1 c 1
 40.4502 1 l 1
 40.4502 102.3 l 1
 297.25 429 l 1
 25.4502 429 l 1
178.45 619 m 2
 178.45 687 l 2
 178.45 702 186.45 712 202.45 712 c 2
 266.45 712 l 2
 281.45 712 289.45 701 289.45 687 c 2
 289.45 619 l 2
 289.45 604 280.45 596 266.45 596 c 2
 202.45 596 l 2
 188.45 596 178.45 605 178.45 619 c 2
EndSplineSet
Substitution2: "'smcp' Lowercase to Small Capitals lookup 16-1" zdotaccent.smcp
EndChar

StartChar: Racute
Encoding: 317 340 231
Width: 602
VWidth: 0
Flags: HW
LayerCount: 2
Fore
SplineSet
170.75 393 m 1
 362.9 393 l 2
 410.65 393 442.9 402.1 442.9 506.75 c 0
 442.9 607.3 406.9 625.5 362.9 625.5 c 2
 170.75 625.5 l 1
 170.75 393 l 1
54.4004 0 m 1
 54.4004 732 l 1
 371.65 732 l 2
 478.9 732 559.9 678.35 559.9 506.75 c 0
 559.9 322.35 475.6 302.85 439.55 293.25 c 1
 583.75 0 l 1
 454.4 0 l 1
 321.4 285 l 1
 170.4 299 l 1
 170.4 0 l 1
 54.4004 0 l 1
257.75 793.75 m 1
 354.25 930.25 l 1
 466.75 930.25 l 1
 340.75 793.75 l 1
 257.75 793.75 l 1
EndSplineSet
Substitution2: "'c2sc' Capitals to Small Capitals in Latin lookup 17 subtable" racute.smcp
EndChar

StartChar: Abreve
Encoding: 318 258 232
Width: 684
VWidth: 0
Flags: HW
LayerCount: 2
Fore
SplineSet
257.35 283.25 m 1
 452.6 283.25 l 1
 357.35 573.5 l 1
 257.35 283.25 l 1
38 0 m 1
 293 732 l 1
 421.25 732 l 1
 666 0 l 1
 539.15 0 l 1
 483.15 177.4 l 1
 224.4 177.4 l 1
 166.8 0 l 1
 38 0 l 1
242.125 911 m 1
 296.125 911 l 1
 296.125 875.15 323.475 851 356.125 851 c 0
 394.125 851 418.125 873.9 418.125 911 c 1
 472.125 911 l 1
 472.125 837.8 416.725 797 356.125 797 c 0
 296.225 797 242.125 840.4 242.125 911 c 1
EndSplineSet
Substitution2: "'c2sc' Capitals to Small Capitals in Latin lookup 17 subtable" abreve.smcp
EndChar

StartChar: Lacute
Encoding: 319 313 233
Width: 546
VWidth: 0
Flags: HW
LayerCount: 2
Fore
SplineSet
67.75 136.5 m 2
 67.75 732 l 1
 183.75 732 l 1
 183.75 161 l 2
 183.75 108 216.75 109 245.75 109 c 2
 516.75 109 l 1
 516.75 0 l 1
 214.25 0 l 2
 139.5 0 67.75 23.5 67.75 136.5 c 2
84.25 797 m 1
 180.75 933.5 l 1
 293.25 933.5 l 1
 167.25 797 l 1
 84.25 797 l 1
EndSplineSet
Substitution2: "'c2sc' Capitals to Small Capitals in Latin lookup 17 subtable" lacute.smcp
EndChar

StartChar: Cacute
Encoding: 320 262 234
Width: 574
VWidth: 0
Flags: HW
LayerCount: 2
Fore
SplineSet
46.5996 368 m 0
 46.5996 602 94.75 740 293.75 740 c 0
 377.95 740 469.15 729.4 544.75 709.75 c 1
 544.75 618.55 l 1
 543.75 618.55 410.6 631 314.75 631 c 0
 204.1 631 162.6 595.35 162.6 366 c 0
 162.6 202 193.3 103 315.1 103 c 0
 420.1 103 544.75 110.7 544.75 110.7 c 1
 544.75 19.5 l 1
 477.55 1.9502 379.35 -7.0498 293.75 -6 c 0
 108.75 -4.9502 46.5996 142.15 46.5996 368 c 0
289.25 800 m 1
 385.75 936.5 l 1
 498.25 936.5 l 1
 372.25 800 l 1
 289.25 800 l 1
EndSplineSet
Substitution2: "'c2sc' Capitals to Small Capitals in Latin lookup 17 subtable" cacute.smcp
EndChar

StartChar: Ccaron
Encoding: 321 268 235
Width: 574
VWidth: 0
Flags: HW
LayerCount: 2
Fore
SplineSet
46.5996 368 m 0
 46.5996 602 94.75 740 293.75 740 c 0
 377.95 740 469.15 729.4 544.75 709.75 c 1
 544.75 618.55 l 1
 543.75 618.55 410.6 631 314.75 631 c 0
 204.1 631 162.6 595.35 162.6 366 c 0
 162.6 202 193.3 103 315.1 103 c 0
 420.1 103 544.75 110.7 544.75 110.7 c 1
 544.75 19.5 l 1
 477.55 1.9502 379.35 -7.0498 293.75 -6 c 0
 108.75 -4.9502 46.5996 142.15 46.5996 368 c 0
185.55 933.5 m 1
 271.2 933.5 l 1
 340.35 869.5 l 1
 402.7 933.5 l 1
 488.05 933.5 l 1
 385.45 800 l 1
 293.45 800 l 1
 185.55 933.5 l 1
EndSplineSet
Substitution2: "'c2sc' Capitals to Small Capitals in Latin lookup 17 subtable" ccaron.smcp
EndChar

StartChar: Eogonek
Encoding: 322 280 236
Width: 567
VWidth: 0
Flags: HW
LayerCount: 2
Fore
SplineSet
66 136.3 m 2
 66 588 l 2
 66 704.471 144.705 733.95 213 732 c 1
 213 732 491.9 721.6 532.85 716 c 1
 532.85 621.25 l 1
 234 621.25 l 2
 182 621.25 182 592.25 182 565.25 c 2
 182 419.85 l 1
 489.35 409.5 l 1
 489.35 314.8 l 1
 182 305.15 l 1
 182 159.75 l 2
 182.65 106.75 215 107.75 244 107.75 c 2
 532.85 107.75 l 1
 532.85 14 l 2
 532.748 13.9862 532.645 13.9723 532.539 13.9584 c 0
 451.88 -48.7215 475.344 -100.684 539.241 -99.8848 c 1
 539.241 -170.385 l 1
 432.195 -192.205 342.095 -60.6457 474.201 9.5738 c 1
 382.671 4.05611 223 -3 223 -3 c 1
 157.455 -6.2998 66 9.2998 66 136.3 c 2
EndSplineSet
Substitution2: "'c2sc' Capitals to Small Capitals in Latin lookup 17 subtable" eogonek.smcp
EndChar

StartChar: Ecaron
Encoding: 323 282 237
Width: 567
VWidth: 0
Flags: HW
LayerCount: 2
Fore
SplineSet
66 136.3 m 2
 66 588 l 2
 66 704.471 144.705 733.95 213 732 c 1
 213 732 491.9 721.6 532.85 716 c 1
 532.85 621.25 l 1
 234 621.25 l 2
 182 621.25 182 592.25 182 565.25 c 2
 182 419.85 l 1
 489.35 409.5 l 1
 489.35 314.8 l 1
 182 305.15 l 1
 182 159.75 l 2
 182.65 106.75 215 107.75 244 107.75 c 2
 532.85 107.75 l 1
 532.85 14 l 1
 496.8 9.09961 223 -3 223 -3 c 2
 157.455 -6.2998 66 9.2998 66 136.3 c 2
166.55 927.25 m 1
 252.2 927.25 l 1
 321.35 863.25 l 1
 383.7 927.25 l 1
 469.05 927.25 l 1
 366.45 793.75 l 1
 274.45 793.75 l 1
 166.55 927.25 l 1
EndSplineSet
Substitution2: "'c2sc' Capitals to Small Capitals in Latin lookup 17 subtable" ecaron.smcp
EndChar

StartChar: Dcaron
Encoding: 324 270 238
Width: 660
VWidth: 0
Flags: HW
LayerCount: 2
Fore
SplineSet
183.75 107.45 m 1
 357.6 107.45 l 2
 463.35 107.45 504.75 214.55 504.75 364 c 0
 504.75 566.45 449.45 626.5 357.6 626.5 c 2
 183.75 626.5 l 1
 183.75 107.45 l 1
67.75 0 m 1
 67.75 732 l 1
 364.6 732 l 2
 580.5 732 620.75 532.95 620.75 363 c 0
 620.75 165.5 548.5 0 364.6 0 c 2
 67.75 0 l 1
166.75 927.25 m 1
 252.4 927.25 l 1
 321.55 863.25 l 1
 383.9 927.25 l 1
 469.25 927.25 l 1
 366.65 793.75 l 1
 274.65 793.75 l 1
 166.75 927.25 l 1
EndSplineSet
Substitution2: "'c2sc' Capitals to Small Capitals in Latin lookup 17 subtable" dcaron.smcp
EndChar

StartChar: Nacute
Encoding: 325 323 239
Width: 678
VWidth: 0
Flags: HW
LayerCount: 2
Fore
SplineSet
67.75 0 m 1
 67.75 732 l 1
 185.75 732 l 1
 512.4 215 l 1
 512.4 732 l 1
 628.4 732 l 1
 628.4 0 l 1
 512.4 0 l 1
 184.75 513.5 l 1
 184.75 0 l 1
 67.75 0 l 1
313.075 797 m 1
 409.575 933.5 l 1
 522.075 933.5 l 1
 396.075 797 l 1
 313.075 797 l 1
EndSplineSet
AlternateSubs2: "'salt' Access All Alternates in Latin lookup 4-1" Nacute.salt
Substitution2: "'c2sc' Capitals to Small Capitals in Latin lookup 17 subtable" nacute.smcp
EndChar

StartChar: Ncaron
Encoding: 326 327 240
Width: 678
VWidth: 0
Flags: HW
LayerCount: 2
Fore
SplineSet
67.75 0 m 1
 67.75 732 l 1
 185.75 732 l 1
 512.4 215 l 1
 512.4 732 l 1
 628.4 732 l 1
 628.4 0 l 1
 512.4 0 l 1
 184.75 513.5 l 1
 184.75 0 l 1
 67.75 0 l 1
203.325 930.5 m 1
 288.975 930.5 l 1
 358.125 866.5 l 1
 420.475 930.5 l 1
 505.825 930.5 l 1
 403.225 797 l 1
 311.225 797 l 1
 203.325 930.5 l 1
EndSplineSet
AlternateSubs2: "'salt' Access All Alternates in Latin lookup 4-1" Ncaron.salt
Substitution2: "'c2sc' Capitals to Small Capitals in Latin lookup 17 subtable" ncaron.smcp
EndChar

StartChar: Ohungarumlaut
Encoding: 327 336 241
Width: 672
VWidth: 0
Flags: HW
LayerCount: 2
Fore
SplineSet
171.2 361 m 0
 171.2 140.4 208.85 105 345.85 105 c 0
 477.35 105 519.2 144.9 519.2 361 c 0
 519.2 614.85 466.1 628 345.85 628 c 0
 228.6 628 171.2 618 171.2 361 c 0
55.2002 361 m 0
 55.2002 704 177.85 737 345.85 737 c 0
 518.85 737 635.2 704 635.2 361 c 0
 635.2 38 525.85 -4 345.85 -4 c 0
 165.85 -4 55.2002 28 55.2002 361 c 0
378.5 797 m 1
 475 933.5 l 1
 587.5 933.5 l 1
 461.5 797 l 1
 378.5 797 l 1
230.2 797 m 1
 326.7 933.5 l 1
 439.2 933.5 l 1
 313.2 797 l 1
 230.2 797 l 1
EndSplineSet
Substitution2: "'c2sc' Capitals to Small Capitals in Latin lookup 17 subtable" ohungarumlaut.smcp
EndChar

StartChar: Rcaron
Encoding: 328 344 242
Width: 602
VWidth: 0
Flags: HW
LayerCount: 2
Fore
SplineSet
170.75 393 m 1
 362.9 393 l 2
 410.65 393 442.9 402.1 442.9 506.75 c 0
 442.9 607.3 406.9 625.5 362.9 625.5 c 2
 170.75 625.5 l 1
 170.75 393 l 1
54.4004 0 m 1
 54.4004 732 l 1
 371.65 732 l 2
 478.9 732 559.9 678.35 559.9 506.75 c 0
 559.9 322.35 475.6 302.85 439.55 293.25 c 1
 583.75 0 l 1
 454.4 0 l 1
 321.4 285 l 1
 170.4 299 l 1
 170.4 0 l 1
 54.4004 0 l 1
147.3 930.5 m 1
 232.95 930.5 l 1
 302.1 866.5 l 1
 364.45 930.5 l 1
 449.8 930.5 l 1
 347.2 797 l 1
 255.2 797 l 1
 147.3 930.5 l 1
EndSplineSet
Substitution2: "'c2sc' Capitals to Small Capitals in Latin lookup 17 subtable" rcaron.smcp
EndChar

StartChar: Uring
Encoding: 329 366 243
Width: 669
VWidth: 0
Flags: HW
LayerCount: 2
Fore
SplineSet
67.75 320 m 2
 67.75 732 l 1
 183.75 732 l 1
 183.75 320 l 2
 183.75 120.05 236.45 104 345.75 104 c 0
 441.25 104 501.75 126.65 501.75 320 c 2
 501.75 732 l 1
 618.75 732 l 1
 618.75 320 l 2
 618.75 -3 466.75 -5 345.75 -5 c 0
 209.75 -5 67.75 -13 67.75 320 c 2
296.1 899 m 0
 296.1 872.85 317.6 852.35 343.75 852.35 c 0
 369.9 852.35 390.4 872.85 390.4 899 c 0
 390.4 925.15 369.9 946.65 343.75 946.65 c 0
 317.6 946.65 296.1 925.15 296.1 899 c 0
241.75 899 m 0
 241.75 956 287.75 1002 343.75 1002 c 0
 399.75 1002 444.75 956 444.75 899 c 0
 444.75 842 399.75 797 343.75 797 c 0
 287.75 797 241.75 842 241.75 899 c 0
EndSplineSet
Substitution2: "'c2sc' Capitals to Small Capitals in Latin lookup 17 subtable" uring.smcp
EndChar

StartChar: Uhungarumlaut
Encoding: 330 368 244
Width: 669
VWidth: 0
Flags: HW
LayerCount: 2
Fore
SplineSet
67.75 320 m 2
 67.75 732 l 1
 183.75 732 l 1
 183.75 320 l 2
 183.75 120.05 236.45 104 345.75 104 c 0
 441.25 104 501.75 126.65 501.75 320 c 2
 501.75 732 l 1
 618.75 732 l 1
 618.75 320 l 2
 618.75 -3 466.75 -5 345.75 -5 c 0
 209.75 -5 67.75 -13 67.75 320 c 2
375.9 797 m 1
 472.4 933.5 l 1
 584.9 933.5 l 1
 458.9 797 l 1
 375.9 797 l 1
227.6 797 m 1
 324.1 933.5 l 1
 436.6 933.5 l 1
 310.6 797 l 1
 227.6 797 l 1
EndSplineSet
Substitution2: "'c2sc' Capitals to Small Capitals in Latin lookup 17 subtable" uhungarumlaut.smcp
EndChar

StartChar: Tcommaaccent
Encoding: 331 354 245
Width: 588
VWidth: 0
Flags: HW
LayerCount: 2
Fore
SplineSet
36.25 623 m 1
 36.25 732 l 1
 565.25 732 l 1
 565.25 623 l 1
 355.75 623 l 1
 355.75 0 l 1
 239.75 0 l 1
 239.75 623 l 1
 36.25 623 l 1
124.2 -132.6 m 1
 171.6 -117.6 l 1
 199.6 -105.6 202.2 -82.7998 202.2 -44.7998 c 1
 286.7 -44.7998 l 1
 286.7 -146.8 262.9 -184.3 178.7 -184.3 c 2
 124.2 -184.3 l 1
 124.2 -132.6 l 1
EndSplineSet
Substitution2: "'c2sc' Capitals to Small Capitals in Latin lookup 17 subtable" tcommaaccent.smcp
EndChar

StartChar: racute
Encoding: 332 341 246
Width: 420
VWidth: 0
Flags: HW
LayerCount: 2
Fore
SplineSet
50.9004 0 m 1
 50.9004 531 l 1
 144.9 531 l 1
 166.9 464 l 1
 212.5 499.35 264 536.65 335.85 536.65 c 0
 361 536.65 387 535.35 400.4 529.7 c 1
 400.4 417.15 l 1
 387 419.1 354.35 421.05 324.65 421.05 c 0
 258.65 421.05 216.95 407.4 166.9 362.35 c 1
 166.9 0 l 1
 50.9004 0 l 1
196.825 597.3 m 1
 293.325 733.8 l 1
 405.825 733.8 l 1
 279.825 597.3 l 1
 196.825 597.3 l 1
EndSplineSet
AlternateSubs2: "'salt' Access All Alternates in Latin lookup 4-1" racute.salt
Substitution2: "'smcp' Lowercase to Small Capitals lookup 16-1" racute.smcp
EndChar

StartChar: abreve
Encoding: 333 259 247
Width: 519
VWidth: 0
Flags: HW
LayerCount: 2
Fore
SplineSet
149.7 146.4 m 2
 149.7 100.85 174 92.5 202.75 92.5 c 0
 269.1 92.5 361.05 137.2 361.05 137.2 c 1
 361.05 251.15 l 1
 198.55 239 l 2
 159.4 235.35 149.7 207.4 149.7 181 c 2
 149.7 146.4 l 2
33.7002 131.95 m 2
 33.7002 185.95 l 2
 33.7002 264.2 78.4502 327 181.05 327 c 2
 181.05 327 361.05 326 361.05 327 c 2
 361.05 327 362.05 372 361.05 373 c 1
 361.05 431.2 332.55 444.5 286.05 444.5 c 0
 230.5 444.5 114.1 437.4 51.0498 432.85 c 1
 51.0498 507.5 l 1
 121.35 532.05 200.2 540.35 299.2 541 c 0
 402.15 541.65 477.05 500.15 477.05 376.5 c 2
 477.05 0 l 1
 386.7 0 l 1
 361.05 60.5 l 1
 356.6 53.1504 262.25 -7.0498 177.55 -6 c 0
 86 -4.25 33.7002 57.0996 33.7002 131.95 c 2
156.25 715 m 1
 210.25 715 l 1
 210.25 679.15 237.6 655 270.25 655 c 0
 308.25 655 332.25 677.9 332.25 715 c 1
 386.25 715 l 1
 386.25 641.8 330.85 601 270.25 601 c 0
 210.35 601 156.25 644.4 156.25 715 c 1
EndSplineSet
Substitution2: "'smcp' Lowercase to Small Capitals lookup 16-1" abreve.smcp
EndChar

StartChar: lacute
Encoding: 334 314 248
Width: 308
VWidth: 0
Flags: HW
LayerCount: 2
Fore
SplineSet
50.9004 189 m 2
 50.9004 783 l 1
 166.9 783 l 1
 166.9 203 l 2
 166.9 122.3 187.1 104.4 216.9 95 c 1
 216.9 95 284.9 74 291.9 74 c 1
 291.9 0 l 1
 186.4 0 l 2
 103.1 0 50.9004 48 50.9004 189 c 2
87.875 843 m 1
 184.375 979.5 l 1
 296.875 979.5 l 1
 170.875 843 l 1
 87.875 843 l 1
EndSplineSet
Substitution2: "'smcp' Lowercase to Small Capitals lookup 16-1" lacute.smcp
EndChar

StartChar: cacute
Encoding: 335 263 249
Width: 496
VWidth: 0
Flags: HW
LayerCount: 2
Fore
SplineSet
42.2998 266 m 0
 42.2998 489.6 115.3 536 217.3 536 c 0
 269.3 536 374.6 529.3 455.8 506.5 c 1
 455.8 431.5 l 1
 455.8 431.5 344.45 437.5 255.45 437.5 c 0
 192.65 437.5 158.3 431.05 158.3 262.7 c 0
 158.3 120.55 183.45 93.5 255.45 93.5 c 0
 347.45 93.5 462.8 103.45 462.8 103.45 c 1
 462.8 27.1504 l 1
 383.9 -6.34961 300.3 -4 217.3 -5 c 1
 118.3 -5 42.2998 41.75 42.2998 266 c 0
230.738 597.367 m 1
 327.238 733.867 l 1
 439.738 733.867 l 1
 313.738 597.367 l 1
 230.738 597.367 l 1
EndSplineSet
Substitution2: "'smcp' Lowercase to Small Capitals lookup 16-1" cacute.smcp
EndChar

StartChar: ccaron
Encoding: 336 269 250
Width: 496
VWidth: 0
Flags: HW
LayerCount: 2
Fore
SplineSet
42.2998 266 m 0
 42.2998 489.6 115.3 536 217.3 536 c 0
 269.3 536 374.6 529.3 455.8 506.5 c 1
 455.8 431.5 l 1
 455.8 431.5 344.45 437.5 255.45 437.5 c 0
 192.65 437.5 158.3 431.05 158.3 262.7 c 0
 158.3 120.55 183.45 93.5 255.45 93.5 c 0
 347.45 93.5 462.8 103.45 462.8 103.45 c 1
 462.8 27.1504 l 1
 383.9 -6.34961 300.3 -4 217.3 -5 c 1
 118.3 -5 42.2998 41.75 42.2998 266 c 0
118.562 730.867 m 1
 204.213 730.867 l 1
 273.362 666.867 l 1
 335.713 730.867 l 1
 421.062 730.867 l 1
 318.463 597.367 l 1
 226.463 597.367 l 1
 118.562 730.867 l 1
EndSplineSet
Substitution2: "'smcp' Lowercase to Small Capitals lookup 16-1" ccaron.smcp
EndChar

StartChar: eogonek
Encoding: 337 281 251
Width: 525
VWidth: 0
Flags: HW
LayerCount: 2
Fore
SplineSet
158.3 305 m 1
 324.2 305 l 2
 358.75 305 375.3 319.95 375.3 348.05 c 0
 375.3 428.9 361.95 440 279.85 440 c 0
 191.7 440 157.6 436.9 158.3 305 c 1
42.2998 268 m 0
 42.2998 499.4 107.5 535 274.3 535 c 0
 417.5 535 491.3 519.5 491.3 343.5 c 0
 491.3 255.3 443.3 214.5 347.3 214.5 c 2
 158.3 214.5 l 1
 158.3 108.05 189.7 93.1504 266.3 93.1504 c 0
 351.3 93.1504 406.3 92.5 481.3 103.5 c 1
 481.3 23 l 1
 400.4 -39.75 423.85 -91.7998 487.8 -91 c 1
 487.8 -161.5 l 1
 387.449 -181.955 301.991 -67.6169 400.531 4.6163 c 1
 339.777 -4.14532 273.721 -5 217.3 -5 c 0
 82.2998 -5 42.2998 68.4004 42.2998 268 c 0
EndSplineSet
Substitution2: "'smcp' Lowercase to Small Capitals lookup 16-1" eogonek.smcp
EndChar

StartChar: ecaron
Encoding: 338 283 252
Width: 525
VWidth: 0
Flags: HW
LayerCount: 2
Fore
SplineSet
158.3 305 m 1
 324.2 305 l 2
 358.75 305 375.3 319.95 375.3 348.05 c 0
 375.3 428.9 361.95 440 279.85 440 c 0
 191.7 440 157.6 436.9 158.3 305 c 1
42.2998 268 m 0
 42.2998 499.4 107.5 535 274.3 535 c 0
 417.5 535 491.3 519.5 491.3 343.5 c 0
 491.3 255.3 443.3 214.5 347.3 214.5 c 2
 158.3 214.5 l 1
 158.3 108.05 189.7 93.1504 266.3 93.1504 c 0
 351.3 93.1504 406.3 92.5 481.3 103.5 c 1
 481.3 23 l 1
 404.15 -3.15039 300.3 -5 217.3 -5 c 0
 82.2998 -5 42.2998 68.4004 42.2998 268 c 0
124.4 726.25 m 1
 210.05 726.25 l 1
 279.2 662.25 l 1
 341.55 726.25 l 1
 426.9 726.25 l 1
 324.3 592.75 l 1
 232.3 592.75 l 1
 124.4 726.25 l 1
EndSplineSet
Substitution2: "'smcp' Lowercase to Small Capitals lookup 16-1" ecaron.smcp
EndChar

StartChar: dcaron
Encoding: 339 271 253
Width: 588
VWidth: 0
Flags: HW
LayerCount: 2
Fore
SplineSet
554.65 780.7 m 1
 643.3 780.7 l 1
 643.3 713.7 l 1
 632.65 579.7 l 1
 565.3 579.7 l 1
 555.3 713.7 l 1
 554.65 780.7 l 1
158.3 266.5 m 0
 158.3 143.85 186.95 97.05 239.35 97.05 c 0
 301.55 97.05 351.25 114.4 389.85 134.65 c 1
 389.85 420.1 l 1
 341.5 435.65 298.15 442.25 239.35 442.25 c 0
 187.95 442.25 158.3 412 158.3 266.5 c 0
42.3 263 m 0
 42.3 420.35 67.7 539 216.25 539 c 0
 261.25 539 335.65 526.05 389.85 502.5 c 1
 389.85 785 l 1
 505.2 785 l 1
 505.2 0 l 1
 412.65 0 l 1
 389.85 55.5 l 1
 359.3 31.6 281.1 -6 216.25 -6 c 0
 80.35 -6 42.3 113.35 42.3 263 c 0
EndSplineSet
AlternateSubs2: "'salt' Access All Alternates in Latin lookup 4-1" dcaron.salt
Substitution2: "'smcp' Lowercase to Small Capitals lookup 16-1" dcaron.smcp
EndChar

StartChar: nacute
Encoding: 340 324 254
Width: 547
VWidth: 0
Flags: HW
LayerCount: 2
Fore
SplineSet
50.9004 0 m 1
 50.9004 531 l 1
 141.4 531 l 1
 166.9 472.5 l 1
 218.1 506.1 264.4 540 345.4 540 c 0
 462.6 540 505.9 455.9 505.9 359.5 c 2
 505.9 0 l 1
 389.9 0 l 1
 389.9 360.9 l 2
 389.9 418.5 360.7 441.5 319.85 441.5 c 0
 254.9 441.5 221.15 425 166.9 391.5 c 1
 166.9 0 l 1
 50.9004 0 l 1
234.625 600 m 1
 331.125 736.5 l 1
 443.625 736.5 l 1
 317.625 600 l 1
 234.625 600 l 1
EndSplineSet
AlternateSubs2: "'salt' Access All Alternates in Latin lookup 4-1" nacute.salt
Substitution2: "'smcp' Lowercase to Small Capitals lookup 16-1" nacute.smcp
EndChar

StartChar: ncaron
Encoding: 341 328 255
Width: 547
VWidth: 0
Flags: HW
LayerCount: 2
Fore
SplineSet
50.9004 0 m 1
 50.9004 531 l 1
 141.4 531 l 1
 166.9 472.5 l 1
 218.1 506.1 264.4 540 345.4 540 c 0
 462.6 540 505.9 455.9 505.9 359.5 c 2
 505.9 0 l 1
 389.9 0 l 1
 389.9 360.9 l 2
 389.9 418.5 360.7 441.5 319.85 441.5 c 0
 254.9 441.5 221.15 425 166.9 391.5 c 1
 166.9 0 l 1
 50.9004 0 l 1
134.3 733.5 m 1
 219.95 733.5 l 1
 289.1 669.5 l 1
 351.45 733.5 l 1
 436.8 733.5 l 1
 334.2 600 l 1
 242.2 600 l 1
 134.3 733.5 l 1
EndSplineSet
AlternateSubs2: "'salt' Access All Alternates in Latin lookup 4-1" ncaron.salt
Substitution2: "'smcp' Lowercase to Small Capitals lookup 16-1" ncaron.smcp
EndChar

StartChar: ohungarumlaut
Encoding: 342 337 256
Width: 563
VWidth: 0
Flags: HW
LayerCount: 2
Fore
SplineSet
158.3 258 m 0
 158.3 106.2 196.75 93.5 281.55 93.5 c 0
 371 93.5 404.8 105.4 404.8 258 c 0
 404.8 421.75 377.2 437.5 281.55 437.5 c 0
 188.1 437.5 158.3 422.05 158.3 258 c 0
42.2998 258 m 0
 42.2998 475 104.05 536 281.55 536 c 0
 463 536 520.8 469 520.8 258 c 0
 520.8 61 464.75 -5 281.55 -5 c 0
 99.75 -5 42.2998 68 42.2998 258 c 0
314.2 596 m 1
 410.7 732.5 l 1
 523.2 732.5 l 1
 397.2 596 l 1
 314.2 596 l 1
165.9 596 m 1
 262.4 732.5 l 1
 374.9 732.5 l 1
 248.9 596 l 1
 165.9 596 l 1
EndSplineSet
Substitution2: "'smcp' Lowercase to Small Capitals lookup 16-1" ohungarumlaut.smcp
EndChar

StartChar: rcaron
Encoding: 343 345 257
Width: 420
VWidth: 0
Flags: HW
LayerCount: 2
Fore
SplineSet
50.9004 0 m 1
 50.9004 531 l 1
 144.9 531 l 1
 166.9 464 l 1
 212.5 499.35 264 536.65 335.85 536.65 c 0
 361 536.65 387 535.35 400.4 529.7 c 1
 400.4 417.15 l 1
 387 419.1 354.35 421.05 324.65 421.05 c 0
 258.65 421.05 216.95 407.4 166.9 362.35 c 1
 166.9 0 l 1
 50.9004 0 l 1
74.4004 730.15 m 1
 160.05 730.15 l 1
 229.2 666.15 l 1
 291.55 730.15 l 1
 376.9 730.15 l 1
 274.3 596.65 l 1
 182.3 596.65 l 1
 74.4004 730.15 l 1
EndSplineSet
AlternateSubs2: "'salt' Access All Alternates in Latin lookup 4-1" rcaron.salt
Substitution2: "'smcp' Lowercase to Small Capitals lookup 16-1" rcaron.smcp
EndChar

StartChar: uring
Encoding: 344 367 258
Width: 547
VWidth: 0
Flags: HW
LayerCount: 2
Fore
SplineSet
42.2998 171.5 m 2
 42.2998 531 l 1
 158.3 531 l 1
 158.3 170.1 l 2
 158.3 112.5 187.5 89.5 228.35 89.5 c 0
 293.3 89.5 327.05 106 381.3 139.5 c 1
 381.3 531 l 1
 497.3 531 l 1
 497.3 0 l 1
 406.8 0 l 1
 381.3 58.5 l 1
 325.55 25.5996 283.8 -9 202.8 -9 c 0
 85.5996 -9 42.2998 75.0996 42.2998 171.5 c 2
222.65 698 m 0
 222.65 671.85 244.15 651.35 270.3 651.35 c 0
 296.45 651.35 316.95 671.85 316.95 698 c 0
 316.95 724.15 296.45 745.65 270.3 745.65 c 0
 244.15 745.65 222.65 724.15 222.65 698 c 0
168.3 698 m 0
 168.3 755 214.3 801 270.3 801 c 0
 326.3 801 371.3 755 371.3 698 c 0
 371.3 641 326.3 596 270.3 596 c 0
 214.3 596 168.3 641 168.3 698 c 0
EndSplineSet
AlternateSubs2: "'salt' Access All Alternates in Latin lookup 4-1" uring.salt
Substitution2: "'smcp' Lowercase to Small Capitals lookup 16-1" uring.smcp
EndChar

StartChar: uhungarumlaut
Encoding: 345 369 259
Width: 547
VWidth: 0
Flags: HW
LayerCount: 2
Fore
SplineSet
42.2998 171.5 m 2
 42.2998 531 l 1
 158.3 531 l 1
 158.3 170.1 l 2
 158.3 112.5 187.5 89.5 228.35 89.5 c 0
 293.3 89.5 327.05 106 381.3 139.5 c 1
 381.3 531 l 1
 497.3 531 l 1
 497.3 0 l 1
 406.8 0 l 1
 381.3 58.5 l 1
 325.55 25.5996 283.8 -9 202.8 -9 c 0
 85.5996 -9 42.2998 75.0996 42.2998 171.5 c 2
302.45 596 m 1
 398.95 732.5 l 1
 511.45 732.5 l 1
 385.45 596 l 1
 302.45 596 l 1
154.15 596 m 1
 250.65 732.5 l 1
 363.15 732.5 l 1
 237.15 596 l 1
 154.15 596 l 1
EndSplineSet
AlternateSubs2: "'salt' Access All Alternates in Latin lookup 4-1" uhungarumlaut.salt
Substitution2: "'smcp' Lowercase to Small Capitals lookup 16-1" uhungarumlaut.smcp
EndChar

StartChar: tcommaaccent
Encoding: 346 355 260
Width: 380
VWidth: 0
Flags: HW
LayerCount: 2
Fore
SplineSet
16.8496 437 m 1
 16.8496 507 l 1
 107.45 532 l 1
 128.95 680 l 1
 223.45 680 l 1
 223.45 532 l 1
 355.35 532 l 1
 355.35 437 l 1
 223.45 437 l 1
 223.45 204 l 2
 223.45 122.6 243.3 104.7 273.1 95.2998 c 1
 273.1 95.2998 341.1 74.2998 348.1 74.2998 c 1
 348.1 0.299805 l 1
 238.4 0.299805 l 2
 160.35 0.299805 107.45 49 107.45 190 c 2
 107.45 437 l 1
 16.8496 437 l 1
69.5996 -133.9 m 1
 117 -118.9 l 1
 145 -106.9 147.6 -84.0996 147.6 -46.0996 c 1
 232.1 -46.0996 l 1
 232.1 -148.1 208.3 -185.6 124.1 -185.6 c 2
 69.5996 -185.6 l 1
 69.5996 -133.9 l 1
EndSplineSet
AlternateSubs2: "'salt' Access All Alternates in Latin lookup 4-1" tcommaaccent.salt
Substitution2: "'smcp' Lowercase to Small Capitals lookup 16-1" tcommaaccent.smcp
EndChar

StartChar: Lslash
Encoding: 347 321 261
Width: 565
VWidth: 0
Flags: HW
LayerCount: 2
Fore
SplineSet
7.85 310.55 m 1
 7.85 378.55 l 1
 87.7 412.8 l 1
 87.7 732 l 1
 203.7 732 l 1
 203.7 462.65 l 1
 326.2 514.95 l 1
 325.55 447.6 l 1
 203.7 394.65 l 1
 203.7 161 l 2
 203.7 108 236.7 109 265.7 109 c 2
 536.7 109 l 1
 536.7 0 l 1
 234.2 0 l 2
 159.445 0 87.7 23.5 87.7 136.5 c 2
 87.7 344.8 l 1
 7.85 310.55 l 1
EndSplineSet
Substitution2: "'c2sc' Capitals to Small Capitals in Latin lookup 17 subtable" lslash.smcp
EndChar

StartChar: uni00AD
Encoding: 173 173 262
Width: 354
VWidth: 0
Flags: HW
LayerCount: 2
Fore
SplineSet
20 239 m 1
 20 341 l 1
 334 341 l 1
 334 239 l 1
 20 239 l 1
EndSplineSet
Substitution2: "'case' Case-Sensitive Forms lookup 1-1" uni00AD.alt
Substitution2: "'c2sc' Capitals to Small Capitals in Latin lookup 17 subtable" uni00AD.smcp
Substitution2: "'smcp' Lowercase to Small Capitals lookup 16-1" uni00AD.smcp
EndChar

StartChar: lslash
Encoding: 348 322 263
Width: 347
VWidth: 0
Flags: HW
LayerCount: 2
Fore
SplineSet
10.35 357.1 m 1
 10.35 425.1 l 1
 87.2 457.7 l 1
 87.2 783 l 1
 203.2 783 l 1
 203.2 507.2 l 1
 328.7 561.5 l 1
 328.05 494.15 l 1
 203.2 439.85 l 1
 203.2 203 l 2
 203.2 122.3 223.4 104.4 253.2 95 c 1
 253.2 95 321.2 74 328.2 74 c 1
 328.2 0 l 1
 222.7 0 l 2
 139.4 0 87.2 48 87.2 189 c 2
 87.2 390.35 l 1
 10.35 357.1 l 1
EndSplineSet
Substitution2: "'smcp' Lowercase to Small Capitals lookup 16-1" lslash.smcp
EndChar

StartChar: Dcroat
Encoding: 349 272 264
Width: 660
VWidth: 0
Flags: HW
LayerCount: 2
Fore
SplineSet
183.75 107.45 m 1
 358.25 107.45 l 2
 464 107.45 502.8 214.55 502.8 364 c 0
 502.8 563.85 444.9 623.25 358.25 623.25 c 2
 183.75 622.6 l 1
 183.75 403.5 l 1
 305.25 403.5 l 1
 305.25 342.5 l 1
 183.75 342.5 l 1
 183.75 107.45 l 1
2.75 342.5 m 1
 2.75 403.5 l 1
 67.75 403.5 l 1
 67.75 731.35 l 2
 67.75 732 326.25 732 365.25 732 c 0
 581.15 732 620.75 532.95 620.75 363 c 0
 620.75 165.5 549.15 0 365.25 0 c 2
 67.75 0 l 1
 67.75 342.5 l 1
 2.75 342.5 l 1
EndSplineSet
Substitution2: "'c2sc' Capitals to Small Capitals in Latin lookup 17 subtable" dcroat.smcp
EndChar

StartChar: dcroat
Encoding: 350 273 265
Width: 560
VWidth: 0
Flags: HW
LayerCount: 2
Fore
SplineSet
156.2 266.5 m 0
 156.2 143.85 184.85 97.05 237.25 97.05 c 0
 299.45 97.05 349.15 114.4 387.75 134.65 c 1
 387.75 420.1 l 1
 339.4 435.65 296.05 442.25 237.25 442.25 c 0
 185.85 442.25 156.2 412 156.2 266.5 c 0
40.2 263 m 0
 40.2 420.35 65.6 539 214.15 539 c 0
 259.15 539 333.55 526.05 387.75 502.5 c 1
 387.75 609 l 1
 275.55 609 l 1
 275.55 670 l 1
 387.75 670 l 1
 387.75 785 l 1
 503.1 785 l 1
 503.1 670 l 1
 570.9 670 l 1
 570.9 609 l 1
 503.1 609 l 1
 503.1 0 l 1
 410.55 0 l 1
 387.75 55.5 l 1
 357.2 31.6 279 -6 214.15 -6 c 0
 78.25 -6 40.2 113.35 40.2 263 c 0
EndSplineSet
AlternateSubs2: "'salt' Access All Alternates in Latin lookup 4-1" dcroat.salt
Substitution2: "'smcp' Lowercase to Small Capitals lookup 16-1" dcroat.smcp
EndChar

StartChar: questiondown.alt
Encoding: 351 -1 266
Width: 542
VWidth: 0
Flags: HW
LayerCount: 2
Fore
SplineSet
256.6 631.3 m 2
 256.6 709.3 l 2
 256.6 725.35 265.95 732.3 279.95 732.3 c 2
 355.6 732.3 l 2
 369.6 732.3 379.6 723.3 379.6 709.3 c 2
 379.6 631.3 l 2
 379.6 616.3 371.6 606.3 355.6 606.3 c 2
 279.95 606.3 l 2
 263.9 606.3 256.6 616.6 256.6 631.3 c 2
33.7 185.3 m 2
 33.7 268.8 l 2
 33.7 403.8 120.7 459.05 266.55 443.3 c 1
 266.55 445.25 267.85 533.4 266.55 537.3 c 1
 365.7 537.3 l 1
 365.7 354.3 l 1
 328 354.95 278.9 355.6 241.2 354.3 c 0
 192.2 352.3 149.05 329.5 149.05 267.4 c 2
 149.05 196.5 l 2
 149.05 130.4 185.2 102.65 268.2 102.65 c 2
 525.55 103.3 l 1
 525.55 16.8 l 1
 429.15 0.3 358.55 -11.7 243.55 -6.7 c 1
 91.55 -6.7 33.7 87.3 33.7 185.3 c 2
EndSplineSet
EndChar

StartChar: at.alt
Encoding: 352 -1 267
Width: 860
VWidth: 0
Flags: HW
LayerCount: 2
Fore
SplineSet
331.15 225.95 m 0
 331.15 204.95 352.15 182.95 383.05 183.6 c 1
 431.55 182.95 481.4 204.5 518.45 230.6 c 1
 518.45 325.6 l 1
 380.65 313.1 l 2
 347.3 309.8 330.5 290.55 331.15 259.4 c 0
 330.8 258.4 330.8 226.95 331.15 225.95 c 0
55.2 421.1 m 2
 55.2 488.6 78.85 606.1 248.35 606.1 c 2
 448.65 606.1 l 2
 528.4 606.1 615.65 582.4 615.65 455.6 c 2
 615.65 94.1 l 1
 537.95 94.1 l 1
 520.45 154.6 l 1
 518.45 154.6 448.15 85.1 357.15 85.1 c 1
 276.15 83.8 228.5 144.6 229.15 212.6 c 2
 229.15 258.6 l 2
 229.15 344.9 279.7 395.1 368.65 395.1 c 0
 425.8 395.1 518.45 394.1 518.45 395.1 c 2
 518.45 395.1 519.45 449.75 518.45 450.1 c 1
 518.45 498.05 494.4 507.6 448.45 507.6 c 2
 248.35 507.6 l 2
 200.35 507.6 154.35 497.6 154.35 417.6 c 2
 154.35 108.1 l 2
 154.35 18.1 208.35 1.6 248.35 1.6 c 2
 586.85 1.6 l 2
 668.85 1.6 689.85 40.1 689.85 108.1 c 2
 689.85 585.1 l 2
 689.85 662.1 647.85 700.85 586.85 700.85 c 2
 182.85 700.85 l 1
 182.85 772.35 l 1
 230.85 782.35 355.35 800.35 481.35 799.35 c 2
 586.85 798.7 l 2
 696 797.4 788.35 737.75 788.35 585.1 c 2
 788.35 108.1 l 2
 788.35 -21.4 731.5 -97.9 590.35 -97.9 c 2
 248.35 -97.9 l 2
 139.35 -97.9 55.85 -37.65 55.85 101.1 c 2
 55.2 421.1 l 2
EndSplineSet
EndChar

StartChar: questiondown
Encoding: 191 191 268
Width: 543
VWidth: 0
Flags: HW
LayerCount: 2
Fore
SplineSet
254.95 372.3 m 2
 254.95 446.4 l 2
 254.95 461.8 266.6 470.7 279.3 471.35 c 2
 350.7 471.35 l 2
 364.7 470.7 374.7 462.35 374.7 448.35 c 2
 374.7 372.3 l 2
 374.05 357.95 366.7 347.95 352.65 347.3 c 2
 276.7 347.3 l 1
 261.95 349.9 255.6 358.9 254.95 372.3 c 2
33.7 10.45 m 1
 32.4 133.75 119.05 198.1 264.9 182.35 c 1
 264.9 184.3 266.2 272.45 264.9 276.35 c 1
 365.7 276.35 l 1
 366.35 93.35 l 1
 328.65 94 278.9 94.65 241.2 93.35 c 0
 192.2 91.35 160.4 56.85 157.8 4.5 c 1
 157.8 4.5 157.15 -52.75 157.15 -65.75 c 0
 157.15 -114.3 188.45 -160.25 268.2 -158.3 c 0
 300.7 -158.3 526.5 -157.65 526.5 -157.65 c 2
 524.55 -157.65 526.5 -244.8 525.2 -244.15 c 0
 428.8 -260.65 358.2 -272.65 243.2 -267.65 c 1
 80.15 -268.3 33.7 -162.6 33.7 -73.7 c 2
 33.7 10.45 l 1
EndSplineSet
Substitution2: "'case' Case-Sensitive Forms lookup 1-1" questiondown.alt
Substitution2: "'smcp' Lowercase to Small Capitals lookup 16-1" questiondown.smcp
EndChar

StartChar: oe
Encoding: 353 339 269
Width: 886
VWidth: 0
Flags: HW
LayerCount: 2
Fore
SplineSet
520.15 305 m 1
 685.4 305 l 2
 719.95 305 736.5 319.95 736.5 348.05 c 0
 736.5 428.9 723.15 440 641.05 440 c 0
 552.25 440 515.55 430.4 520.15 305 c 1
158.3 258 m 0
 158.3 106.2 196.75 93.5 281.55 93.5 c 0
 391.55 93.5 403.5 124.15 403.5 268 c 0
 403.5 410.05 380.75 437.5 281.55 437.5 c 0
 188.1 437.5 158.3 422.05 158.3 258 c 0
42.3 258 m 0
 42.3 475 104.05 536 281.55 536 c 0
 365.6 536 422.05 520.55 457.75 481.45 c 1
 492.75 525.75 550.45 535 635.5 535 c 0
 778.7 535 852.5 519.5 852.5 343.5 c 0
 852.5 255.3 804.5 214.5 708.5 214.5 c 2
 520.15 214.5 l 1
 517.55 115.85 549.6 93.15 627.5 93.15 c 0
 712.5 93.15 767.5 92.5 842.5 103.5 c 1
 842.5 23 l 1
 765.35 -3.15 661.5 -5 578.5 -5 c 0
 519.4 -5 480 9.8 454.7 44.9 c 1
 419.35 9.45 363.6 -5 281.55 -5 c 0
 99.75 -5 42.3 68 42.3 258 c 0
EndSplineSet
Substitution2: "'smcp' Lowercase to Small Capitals lookup 16-1" oe.smcp
EndChar

StartChar: OE
Encoding: 354 338 270
Width: 1025
VWidth: 0
Flags: HW
LayerCount: 2
Fore
SplineSet
55.2 361 m 0
 55.2 704 177.2 737 345.2 737 c 0
 429.4 737 499.45 728.75 548.45 678.4 c 1
 572.7 719.55 618 734.65 665.85 732 c 2
 665.85 732 938.4 721.6 979.35 716 c 1
 979.35 621.25 l 1
 686.85 621.25 l 2
 634.85 621.25 634.85 592.25 634.85 565.25 c 2
 634.85 419.85 l 1
 935.85 409.5 l 1
 935.85 314.8 l 1
 634.85 305.15 l 1
 634.85 159.75 l 2
 635.5 106.75 667.85 107.75 696.85 107.75 c 2
 979.35 107.75 l 1
 979.35 14 l 1
 943.3 9.1 675.85 -3 675.85 -3 c 2
 628.8 -5.65 573.1 1.2 545.05 50.95 c 1
 497.4 5.55 429.7 -4 345.2 -4 c 0
 165.2 -4 55.2 28 55.2 361 c 0
171.2 361 m 0
 171.2 140.4 208.2 105 345.2 105 c 0
 476.7 105 518.85 144.9 518.85 361 c 0
 518.85 614.85 465.45 628 345.2 628 c 0
 227.95 628 171.2 618 171.2 361 c 0
EndSplineSet
EndChar

StartChar: Ydieresis
Encoding: 355 376 271
Width: 647
VWidth: 0
Flags: HW
LayerCount: 2
Fore
SplineSet
38 732 m 1
 164.5 732 l 1
 324.1 369 l 1
 499.5 732 l 1
 626 732 l 1
 380.7 239 l 1
 380.7 0 l 1
 264.7 0 l 1
 264.7 239 l 1
 38 732 l 1
403.75 853.25 m 0
 403.75 884.05 429.2 908.5 460 908.5 c 0
 490.8 908.5 515.25 884.05 515.25 853.25 c 0
 515.25 822.45 490.8 797 460 797 c 0
 429.2 797 403.75 822.45 403.75 853.25 c 0
148.75 853.25 m 0
 148.75 884.05 174.2 908.5 205 908.5 c 0
 235.8 908.5 260.25 884.05 260.25 853.25 c 0
 260.25 822.45 235.8 797 205 797 c 0
 174.2 797 148.75 822.45 148.75 853.25 c 0
EndSplineSet
Substitution2: "'c2sc' Capitals to Small Capitals in Latin lookup 17 subtable" ydieresis.smcp
EndChar

StartChar: guillemotright
Encoding: 187 187 272
Width: 569
VWidth: 0
Flags: HW
LayerCount: 2
Fore
SplineSet
249.65 214.1 m 1
 392.5 354 l 1
 253.25 489.95 l 1
 321 557 l 1
 527 354 l 1
 316 146 l 1
 249.65 214.1 l 1
42.3 214.1 m 1
 185.15 354 l 1
 45.9 489.95 l 1
 113.65 557 l 1
 319.65 354 l 1
 108.65 146 l 1
 42.3 214.1 l 1
EndSplineSet
EndChar

StartChar: cent
Encoding: 162 162 273
Width: 488
VWidth: 0
Flags: HW
LayerCount: 2
Fore
SplineSet
33.7 266 m 0
 33.7 494.15 108.35 540.55 219.45 537.3 c 1
 219.45 634 l 1
 296.25 634 l 1
 296.25 533.35 l 1
 344.85 528.05 400.75 519.05 447.55 506.5 c 1
 447.55 431.5 l 1
 447.55 431.5 335.85 438.8 246.85 438.8 c 0
 184.05 438.8 149.7 431.05 149.7 262.7 c 0
 149.7 120.55 174.85 92.2 246.85 92.2 c 0
 338.85 92.2 454.2 102.15 454.2 102.15 c 1
 454.2 25.85 l 1
 402.35 4.25 349.25 -2.75 294.85 -4.7 c 1
 294.85 -95.65 l 1
 218.05 -95.65 l 1
 218.05 -6.3 l 1
 110 -6.9 33.7 36.95 33.7 266 c 0
EndSplineSet
EndChar

StartChar: sterling
Encoding: 163 163 274
Width: 587
VWidth: 0
Flags: HW
LayerCount: 2
Fore
SplineSet
42.3 0 m 1
 42.3 90.5 l 1
 110.8 109 l 1
 110.8 319.5 l 1
 42.3 319.5 l 1
 42.3 382 l 1
 110.8 402.5 l 1
 110.8 491 l 2
 110.8 709.55 208.85 732 356.3 732 c 0
 413.3 732 545.3 716 545.3 716 c 1
 545.3 624 l 1
 354.8 624 l 2
 255.2 624 226.8 619.6 226.8 498.7 c 2
 226.8 402.5 l 1
 466.3 385.5 l 1
 466.3 319.5 l 1
 226.8 319.5 l 1
 226.8 109 l 1
 544.3 109 l 1
 544.3 0 l 1
 42.3 0 l 1
EndSplineSet
Substitution2: "'smcp' Lowercase to Small Capitals lookup 16-1" sterling.smcp
EndChar

StartChar: yen
Encoding: 165 165 275
Width: 621
VWidth: 0
Flags: HW
LayerCount: 2
Fore
SplineSet
16.85 732 m 1
 143.35 732 l 1
 302.95 398.9 l 1
 476.4 732 l 1
 604.85 732 l 1
 382.95 331.5 l 1
 519.15 331.5 l 1
 519.15 258.5 l 1
 359.55 258.5 l 1
 359.55 217.25 l 1
 519.15 217.25 l 1
 519.15 144.25 l 1
 359.55 144.25 l 1
 359.55 0 l 1
 243.55 0 l 1
 243.55 144.25 l 1
 92.15 144.25 l 1
 92.15 217.25 l 1
 243.55 217.25 l 1
 243.55 258.5 l 1
 92.15 258.5 l 1
 92.15 331.5 l 1
 221.55 331.5 l 1
 16.85 732 l 1
EndSplineSet
Substitution2: "'smcp' Lowercase to Small Capitals lookup 16-1" yen.smcp
EndChar

StartChar: section
Encoding: 167 167 276
Width: 545
VWidth: 0
Flags: HW
LayerCount: 2
Fore
SplineSet
162.6 361.4 m 2
 162.6 322 179.85 318 211.6 318 c 2
 331.45 318 l 2
 380.65 318 382.45 334.4 382.45 362.4 c 1
 383.45 363.4 382.45 409 382.45 409 c 2
 382.45 438.75 380.45 456 331.45 456 c 2
 211.6 456 l 2
 171.05 456 162.6 445.85 162.6 407 c 2
 162.6 361.4 l 2
47.6 342.5 m 2
 47.6 387 l 2
 47.6 430.7 51 478.1 102.1 494 c 1
 54.45 512.75 46.6 556.4 46.6 590 c 2
 46.6 646 l 2
 46.6 744 105.6 784 183.6 784 c 0
 249.75 784 413.3 773.55 461.1 765 c 1
 461.1 682 l 1
 208.1 682 l 2
 178.65 682 163.25 672 162.6 641.1 c 2
 162.6 593.5 l 2
 162.6 565.65 182.8 554.2 208.8 554.2 c 2
 352.1 554.2 l 2
 465.1 554.2 499.75 507.85 499.1 427.9 c 2
 499.1 383.4 l 2
 499.1 351.55 495.7 294.1 446.6 282.5 c 1
 493 275.1 498.1 223 498.1 190 c 2
 498.1 127.5 l 2
 498.1 10.8 424.1 -8 360.1 -8 c 0
 289.4 -8 128.95 2.1 83.6 11 c 1
 83.6 94 l 1
 331.4 94 l 2
 361.2 94 381.8 98.35 382.45 129.95 c 2
 382.45 181.6 l 2
 382.45 213.8 368.3 219.5 334.95 219.5 c 2
 190.6 219.5 l 2
 103.6 219.5 47.6 242.6 47.6 342.5 c 2
EndSplineSet
EndChar

StartChar: g.salt
Encoding: 356 -1 277
Width: 555
VWidth: 0
Flags: HW
LayerCount: 2
Fore
SplineSet
158.3 276.05 m 0
 158.3 180.3 157.45 92.7 249.75 92.7 c 0
 304.85 92.7 330.3 96.7 388.45 115.6 c 1
 388.45 444.1 l 1
 250.45 444.1 l 2
 160.6 444.1 158.3 338 158.3 276.05 c 0
42.3 273.6 m 0
 42.3 448.95 107.95 539.1 232.95 539.1 c 0
 338.95 539.1 455 521.85 504.45 511.55 c 1
 504.45 -76 l 2
 504.45 -207.7 420 -282.85 313.95 -272 c 2
 66.45 -248 l 1
 66.45 -171 l 1
 303.45 -171 l 2
 356.45 -171 388.45 -140 388.45 -76 c 2
 388.45 34.25 l 1
 339.15 7.55 277.95 -4.4 232.95 -4.4 c 0
 79.95 -4.4 42.3 103.7 42.3 273.6 c 0
EndSplineSet
EndChar

StartChar: guillemotleft
Encoding: 171 171 278
Width: 569
VWidth: 0
Flags: HW
LayerCount: 2
Fore
SplineSet
249.65 354 m 1
 455.65 557 l 1
 523.4 489.95 l 1
 384.15 354 l 1
 527 214.1 l 1
 460.65 146 l 1
 249.65 354 l 1
42.3 354 m 1
 248.3 557 l 1
 316.05 489.95 l 1
 176.8 354 l 1
 319.65 214.1 l 1
 253.3 146 l 1
 42.3 354 l 1
EndSplineSet
EndChar

StartChar: paragraph
Encoding: 182 182 279
Width: 578
VWidth: 0
Flags: HW
LayerCount: 2
Fore
SplineSet
125.2 507.3 m 2
 125.2 453.35 165.2 446.5 193.2 446.5 c 2
 243.7 446.5 l 1
 243.7 640.5 l 1
 193.2 640.5 l 2
 136.95 640.5 125.2 611.7 125.2 578.8 c 2
 125.2 507.3 l 2
33.7 499 m 2
 33.7 592 l 2
 33.7 687 106.75 732 189.7 732 c 2
 562.05 732 l 1
 562.05 638.5 l 1
 503.2 638.5 l 1
 503.2 0 l 1
 411.7 0 l 1
 411.7 640.5 l 1
 335.2 640.5 l 1
 335.2 -270 l 1
 243.7 -270 l 1
 243.7 372 l 1
 237.7 370 221.15 354.35 189.7 355 c 0
 82.85 355 33.7 421 33.7 499 c 2
EndSplineSet
EndChar

StartChar: macron
Encoding: 175 175 280
Width: 376
VWidth: 0
Flags: HW
LayerCount: 2
Fore
SplineSet
42.3 531 m 1
 42.3 604.5 l 1
 334.3 604.5 l 1
 334.3 531 l 1
 42.3 531 l 1
EndSplineSet
Substitution2: "'smcp' Lowercase to Small Capitals lookup 16-1" macron.smcp
EndChar

StartChar: copyright
Encoding: 169 169 281
Width: 804
VWidth: 0
Flags: HW
LayerCount: 2
Fore
SplineSet
226.1 365 m 0
 226.1 526 285.95 583 370.1 583 c 0
 411.1 583 494.9 573.2 551.6 559 c 1
 551.6 493 l 1
 488.6 502 417.1 505 384.1 505 c 0
 330.1 505 307.6 463.5 307.6 362 c 0
 307.6 278 324.45 225 386.55 225 c 0
 453.65 225 520.85 234.95 557.6 241 c 1
 557.6 175 l 1
 497.8 153.5 440.25 147 373.25 147 c 0
 294.25 147 226.1 188 226.1 365 c 0
128.1 368 m 0
 128.1 219.4 177.1 78.65 291.1 78 c 2
 533.1 78 l 2
 615.3 78.65 676.6 164 676.6 368 c 0
 676.6 488 667.6 654 536.6 654 c 2
 291.1 654 l 2
 202.1 654 128.1 600.55 128.1 368 c 0
46.6 368 m 0
 46.6 542.2 86.15 732 291.1 732 c 2
 536.6 732 l 2
 735.05 732 758.1 523.85 758.1 368 c 0
 758.1 151.9 687.6 0 536.6 0 c 2
 291.1 0 l 2
 103.95 0 46.6 203.55 46.6 368 c 0
EndSplineSet
EndChar

StartChar: registered
Encoding: 174 174 282
Width: 804
VWidth: 0
Flags: HW
LayerCount: 2
Fore
SplineSet
334.1 386 m 1
 425.1 386 l 2
 477.1 386 485.6 395.85 485.6 447.5 c 0
 485.6 499.65 457.75 502 425.1 502 c 2
 334.1 502 l 1
 334.1 386 l 1
252.6 153 m 1
 252.6 580 l 1
 433.1 580 l 2
 499.1 580 567.1 556.25 567.1 448.5 c 0
 567.1 346.15 520.15 327.65 482.3 317.5 c 1
 570.85 153 l 1
 481.7 153 l 1
 395.6 316 l 1
 334.1 328 l 1
 334.1 153 l 1
 252.6 153 l 1
128.1 368 m 0
 128.1 219.4 177.1 78.65 291.1 78 c 2
 533.1 78 l 2
 615.3 78.65 676.6 164 676.6 368 c 0
 676.6 488 667.6 654 536.6 654 c 2
 291.1 654 l 2
 202.1 654 128.1 600.55 128.1 368 c 0
46.6 368 m 0
 46.6 542.2 86.15 732 291.1 732 c 2
 536.6 732 l 2
 735.05 732 758.1 523.85 758.1 368 c 0
 758.1 151.9 687.6 0 536.6 0 c 2
 291.1 0 l 2
 103.95 0 46.6 203.55 46.6 368 c 0
EndSplineSet
EndChar

StartChar: plusminus
Encoding: 177 177 283
Width: 510
VWidth: 0
Flags: HW
LayerCount: 2
Fore
SplineSet
47.6 383.5 m 1
 47.6 485.5 l 1
 203.6 485.5 l 1
 203.6 642.5 l 1
 305.6 642.5 l 1
 305.6 485.5 l 1
 463.6 485.5 l 1
 463.6 383.5 l 1
 305.6 383.5 l 1
 305.6 226.5 l 1
 203.6 226.5 l 1
 203.6 383.5 l 1
 47.6 383.5 l 1
47.6 76.5 m 1
 47.6 178.5 l 1
 463.6 178.5 l 1
 463.6 76.5 l 1
 47.6 76.5 l 1
EndSplineSet
EndChar

StartChar: logicalnot
Encoding: 172 172 284
Width: 506
VWidth: 0
Flags: HW
LayerCount: 2
Fore
SplineSet
39.5 245.5 m 1
 39.5 344 l 1
 466.5 344 l 1
 466.5 287 466.5 216 466.5 159 c 1
 368 159 l 1
 368 245.5 l 1
 39.5 245.5 l 1
EndSplineSet
EndChar

StartChar: guilsinglleft
Encoding: 357 8249 285
Width: 356
VWidth: 0
Flags: HW
LayerCount: 2
Fore
SplineSet
42.3 354 m 1
 248.3 557 l 1
 316.05 489.95 l 1
 176.8 354 l 1
 319.65 214.1 l 1
 253.3 146 l 1
 42.3 354 l 1
EndSplineSet
EndChar

StartChar: guilsinglright
Encoding: 358 8250 286
Width: 356
VWidth: 0
Flags: HW
LayerCount: 2
Fore
SplineSet
42.3 214.1 m 1
 185.15 354 l 1
 45.9 489.95 l 1
 113.65 557 l 1
 319.65 354 l 1
 108.65 146 l 1
 42.3 214.1 l 1
EndSplineSet
EndChar

StartChar: perthousand
Encoding: 359 8240 287
Width: 1379
VWidth: 0
Flags: HW
LayerCount: 2
Fore
SplineSet
1066.6 141.35 m 2
 1066.6 101.8 1077.75 88.35 1119.85 88.35 c 2
 1203.35 88.35 l 2
 1252.95 88.35 1258.6 104.4 1258.6 141.35 c 2
 1258.6 246.35 l 2
 1258.6 289.75 1244.65 299.35 1205.35 299.35 c 2
 1121.85 299.35 l 2
 1076.45 299.35 1066.6 287.5 1066.6 246.35 c 2
 1066.6 141.35 l 2
980.6 130.85 m 2
 980.6 256.85 l 2
 980.6 341.85 1012.1 385.35 1113.1 385.35 c 2
 1214.1 385.35 l 2
 1312.1 385.35 1344.6 341.85 1344.6 256.85 c 2
 1344.6 130.85 l 2
 1344.6 45.85 1313.1 2.35 1212.1 2.35 c 2
 1111.1 2.35 l 2
 1013.1 2.35 980.6 45.85 980.6 130.85 c 2
646.2 141.35 m 2
 646.2 101.8 657.35 88.35 699.45 88.35 c 2
 782.6 88.35 l 2
 832.2 88.35 838.2 104.4 838.2 141.35 c 2
 838.2 246.35 l 2
 838.2 289.75 823.9 299.35 784.6 299.35 c 2
 701.45 299.35 l 2
 656.05 299.35 646.2 287.5 646.2 246.35 c 2
 646.2 141.35 l 2
560.2 130.85 m 2
 560.2 256.85 l 2
 560.2 341.85 591.35 385.35 692.35 385.35 c 2
 793.7 385.35 l 2
 891.7 385.35 924.2 341.85 924.2 256.85 c 2
 924.2 130.85 l 2
 924.2 45.85 892.7 2.35 791.7 2.35 c 2
 690.35 2.35 l 2
 592.35 2.35 560.2 45.85 560.2 130.85 c 2
214.75 0 m 1
 658.35 732 l 1
 747.9 732 l 1
 306.75 0 l 1
 214.75 0 l 1
121.7 488 m 2
 121.7 448.45 132.85 435 174.95 435 c 2
 258.45 435 l 2
 308.05 435 313.7 451.05 313.7 488 c 2
 313.7 593 l 2
 313.7 636.4 299.75 646 260.45 646 c 2
 176.95 646 l 2
 131.55 646 121.7 634.15 121.7 593 c 2
 121.7 488 l 2
35.7 477.5 m 2
 35.7 603.5 l 2
 35.7 688.5 67.2 732 168.2 732 c 2
 269.2 732 l 2
 367.2 732 399.7 688.5 399.7 603.5 c 2
 399.7 477.5 l 2
 399.7 392.5 368.2 349 267.2 349 c 2
 166.2 349 l 2
 68.2 349 35.7 392.5 35.7 477.5 c 2
EndSplineSet
Substitution2: "'smcp' Lowercase to Small Capitals lookup 16-1" perthousand.smcp
EndChar

StartChar: dagger
Encoding: 360 8224 288
Width: 419
VWidth: 0
Flags: HW
LayerCount: 2
Fore
SplineSet
16.85 466.25 m 1
 16.85 556.75 l 1
 149.85 568.5 l 1
 159.6 770 l 1
 261.1 770 l 1
 270.85 568.5 l 1
 402.85 556.75 l 1
 402.85 466.25 l 1
 270.85 454.5 l 1
 260.1 -72 l 1
 158.6 -72 l 1
 149.85 454.5 l 1
 16.85 466.25 l 1
EndSplineSet
EndChar

StartChar: daggerdbl
Encoding: 361 8225 289
Width: 436
VWidth: 0
Flags: HW
LayerCount: 2
Fore
SplineSet
16.85 156.5 m 1
 16.85 247 l 1
 151.55 260.15 l 1
 149.85 454.5 l 1
 16.85 466.25 l 1
 16.85 556.75 l 1
 149.85 568.5 l 1
 160.25 770 l 1
 261.1 770 l 1
 270.85 568.5 l 1
 402.85 556.75 l 1
 402.85 466.25 l 1
 270.85 454.5 l 1
 267.85 259.8 l 1
 402.85 247 l 1
 402.85 156.5 l 1
 264.45 144.05 l 1
 260.1 -72 l 1
 158.6 -72 l 1
 154.6 143.35 l 1
 16.85 156.5 l 1
EndSplineSet
EndChar

StartChar: trademark
Encoding: 362 8482 290
Width: 700
VWidth: 0
Flags: HW
LayerCount: 2
Fore
SplineSet
314.85 383 m 1
 348.85 732 l 1
 432.15 732 l 1
 504.15 515.3 l 1
 563.85 732 l 1
 649.85 732 l 1
 687.85 383 l 1
 606.35 383 l 1
 588.3 573.8 l 1
 540.2 383 l 1
 469.7 383 l 1
 411.35 573.75 l 1
 396.35 383 l 1
 314.85 383 l 1
16.85 657.5 m 1
 16.85 732 l 1
 289.85 732 l 1
 289.85 657.5 l 1
 194.6 657.5 l 1
 194.6 383 l 1
 113.1 383 l 1
 113.1 657.5 l 1
 16.85 657.5 l 1
EndSplineSet
EndChar

StartChar: notequal
Encoding: 363 8800 291
Width: 460
VWidth: 0
Flags: HW
LayerCount: 2
Fore
SplineSet
16.85 194.5 m 1
 16.85 299.75 l 1
 165.95 299.75 l 1
 228.3 403.75 l 1
 16.85 403.75 l 1
 16.85 509 l 1
 290.3 509 l 1
 331.75 578.05 l 1
 399.75 578.05 l 1
 358.3 509 l 1
 443.85 509 l 1
 443.85 403.75 l 1
 296.3 403.75 l 1
 233.95 299.75 l 1
 443.85 299.75 l 1
 443.85 194.5 l 1
 172.3 194.5 l 1
 124.85 114.45 l 1
 56.85 114.45 l 1
 104.3 194.5 l 1
 16.85 194.5 l 1
EndSplineSet
EndChar

StartChar: infinity
Encoding: 364 8734 292
Width: 770
VWidth: 0
Flags: HW
LayerCount: 2
Fore
SplineSet
436.55 340.65 m 1
 463.6 300.4 500.3 260.15 557.05 260.15 c 0
 617.1 260.15 633.65 295.45 633.65 341 c 0
 633.65 386.55 627.35 422.85 557.05 422.85 c 0
 508 422.85 462.95 381.9 436.55 340.65 c 1
136.95 341 m 0
 136.95 295.45 149.5 260.15 212.85 260.15 c 0
 269.6 260.15 305.6 300.75 332.65 341 c 1
 306.25 382.25 258.4 422.85 212.85 422.85 c 0
 140.9 422.85 136.95 386.55 136.95 341 c 0
42.3 341 m 0
 42.3 428 70.3 514 208.3 514 c 0
 284.3 514 342.75 474 383.9 415.3 c 1
 421.9 476.1 486.3 514 562.3 514 c 0
 700.3 514 728.3 428 728.3 341 c 0
 728.3 249 689.3 169 562.3 169 c 0
 490.2 169 431.45 192 382.55 269.3 c 1
 337.15 192 282.3 169 208.3 169 c 0
 81.3 169 42.3 249 42.3 341 c 0
EndSplineSet
EndChar

StartChar: lessequal
Encoding: 365 8804 293
Width: 459
VWidth: 0
Flags: HW
LayerCount: 2
Fore
SplineSet
42.3 377.2 m 1
 42.3 488.7 l 1
 417.3 632.5 l 1
 417.3 521 l 1
 173.15 433.65 l 1
 417.3 336.3 l 1
 417.3 223.5 l 1
 42.3 377.2 l 1
42.3 89.65 m 1
 42.3 184.65 l 1
 417.6 184.65 l 1
 417.6 89.65 l 1
 42.3 89.65 l 1
EndSplineSet
EndChar

StartChar: greaterequal
Encoding: 366 8805 294
Width: 459
VWidth: 0
Flags: HW
LayerCount: 2
Fore
SplineSet
42.95 223.5 m 1
 42.95 336.3 l 1
 287.1 433.65 l 1
 42.95 521 l 1
 42.95 632.5 l 1
 417.95 488.7 l 1
 417.95 377.2 l 1
 42.95 223.5 l 1
42.3 89.65 m 1
 42.3 184.65 l 1
 417.95 184.65 l 1
 417.95 89.65 l 1
 42.3 89.65 l 1
EndSplineSet
EndChar

StartChar: circumflex
Encoding: 367 710 295
Width: 387
VWidth: 0
Flags: HW
LayerCount: 2
Fore
SplineSet
42.3 531 m 1
 153.35 664.5 l 1
 245.35 664.5 l 1
 344.8 531 l 1
 259.8 531 l 1
 196.5 595 l 1
 128.3 531 l 1
 42.3 531 l 1
EndSplineSet
Substitution2: "'smcp' Lowercase to Small Capitals lookup 16-1" circumflex.smcp
EndChar

StartChar: tilde
Encoding: 368 732 296
Width: 426
VWidth: 0
Flags: HW
LayerCount: 2
Fore
SplineSet
42.3 581.1 m 1
 77.05 615.15 115.8 648.6 162.05 648.6 c 1
 209.95 646.65 236.5 614.25 268.7 613.6 c 0
 298.3 612.25 331.9 631.9 360.4 651 c 1
 383.8 597.8 l 1
 354.65 570 315 530.35 269.85 531.65 c 0
 218.4 533.6 196.75 566.65 159.7 566 c 0
 117.45 565.35 100.3 548.5 65.4 531 c 1
 42.3 581.1 l 1
EndSplineSet
Substitution2: "'smcp' Lowercase to Small Capitals lookup 16-1" tilde.smcp
EndChar

StartChar: ring
Encoding: 369 730 297
Width: 287
VWidth: 0
Flags: HW
LayerCount: 2
Fore
SplineSet
96.65 632 m 0
 96.65 605.85 118.15 585.35 144.3 585.35 c 0
 170.45 585.35 190.95 605.85 190.95 632 c 0
 190.95 658.15 170.45 679.65 144.3 679.65 c 0
 118.15 679.65 96.65 658.15 96.65 632 c 0
42.3 632 m 0
 42.3 689 88.3 735 144.3 735 c 0
 200.3 735 245.3 689 245.3 632 c 0
 245.3 575 200.3 530 144.3 530 c 0
 88.3 530 42.3 575 42.3 632 c 0
EndSplineSet
Substitution2: "'smcp' Lowercase to Small Capitals lookup 16-1" ring.smcp
EndChar

